;TYPE=PLATED
;Layer: PTH_Through
;EasyEDA Pro v2.2.39.2, 2025-05-28 23:54:08
;Gerber Generator version 0.3
M48
METRIC,LZ,0000.00000
;Hole size 1 = 0.30480 METRIC
T01C0.30480
;Hole size 2 = 0.30500 METRIC
T02C0.30500
;Hole size 3 = 1.10000 METRIC
T03C1.10000
;Hole size 4 = 1.20000 METRIC
T04C1.20000
%
G05
G90
T01
X-0.69049Y-0.69592
X0.01661Y-1.40302
X0.72372Y0.71793
X1.43065Y0.01101
X-1.3976Y0.01119
X0.01661Y1.4254
X0.01661Y0.01119
X-0.69049Y0.71758
X0.72372Y-0.69592
T02
X6.60128Y7.61849
X5.84894Y7.61849
X4.8917Y-1.11024
X7.89079Y-1.13181
X7.89079Y-2.05135
X7.89079Y-2.99269
X7.89079Y-4.05281
X7.89079Y-5.1339
X7.89079Y-6.33881
X7.89079Y-7.58668
X7.50979Y-8.11681
X6.62079Y-8.11681
X5.60479Y-8.11681
X4.54911Y-8.11681
X3.57279Y-8.11681
X3.44579Y-7.19556
X3.44579Y-6.09727
X3.44579Y-4.96817
X4.58879Y-4.17981
X6.94223Y-4.45413
X-8.66027Y1.95603
X-8.45884Y1.07441
X-9.39135Y1.75219
X-9.29278Y0.80188
X-1.50721Y8.13919
X-2.26921Y6.74219
X-2.26921Y7.50419
X-2.90421Y6.86919
X-1.63421Y7.343
X2.78979Y-5.32281
X-3.59839Y4.46558
X4.71579Y5.72619
X3.69979Y5.51651
X1.54664Y5.14684
X2.19864Y5.0359
X2.00671Y3.83445
X1.29433Y2.70275
X2.65736Y3.60623
X3.14196Y2.92655
X1.98806Y1.85575
X2.4313Y1.37693
X-1.26074Y2.68482
X-6.69164Y8.54742
X-7.41986Y8.74915
X-7.92786Y9.32038
X-3.01588Y3.14209
X-3.44313Y2.64727
X3.69979Y2.4068
X2.91271Y0.93627
X8.14479Y1.78919
X-5.66747Y2.97865
X-2.8878Y0.96321
X-2.27823Y1.58197
X-4.4105Y-2.55807
X-3.86172Y-3.06941
X-4.30073Y-1.90607
X-2.39189Y-1.54867
X-5.64517Y-3.85498
X-9.00021Y-3.79881
X-5.35471Y-0.09365
X-9.12721Y8.77419
X-9.63521Y5.09119
X-4.18664Y5.05382
X-7.72253Y-6.24932
X-9.25421Y-8.87881
X9.45501Y7.35462
X9.28779Y4.83719
X9.01296Y6.15058
X-2.65021Y9.91719
X-1.12621Y6.61519
X-1.88821Y5.85319
X10.55779Y-4.17981
X10.55779Y-5.32281
X10.55779Y-6.46581
X10.55779Y-7.48181
X10.55779Y-8.75181
X10.5407Y-10.0547
X14.62179Y-2.14781
X13.25236Y-0.85565
X12.33579Y-1.63981
X11.19279Y-1.00481
X10.30379Y-0.36981
X9.28779Y0.64619
X9.66879Y-4.56081
X9.66879Y-6.08481
X8.77979Y-7.22781
X8.90679Y-2.90981
X8.90679Y-5.32281
X14.43513Y-0.83577
X12.20879Y-0.75081
X13.35179Y-2.14781
X9.66879Y-7.73581
X-10.14321Y-10.78381
X-1.92438Y9.49516
X7.89079Y5.72619
X7.76379Y7.12319
X0.218Y-5.51672
X0.1394Y-4.83129
X3.77535Y-2.58792
X3.12335Y-2.73998
X2.1543Y-1.63155
X1.71548Y-2.1148
X2.71988Y-3.25858
X2.49214Y-3.91058
X-1.61641Y-8.1367
X-4.09487Y-8.7239
X-3.21665Y-7.49489
X10.6035Y-13.79026
T03
X13.98679Y1.28119
X11.44679Y1.28119
X13.98679Y3.82119
X11.44679Y3.82119
X13.98679Y6.36119
X11.44679Y6.36119
X13.98679Y8.90119
X11.44679Y8.90119
T04
X-8.87321Y11.44119
X-8.87321Y13.98119
X-6.33321Y11.44119
X-6.33321Y13.98119
X-3.79321Y11.44119
X-3.79321Y13.98119
X-1.25321Y11.44119
X-1.25321Y13.98119
X1.28679Y11.44119
X1.28679Y13.98119
X3.82679Y11.44119
X3.82679Y13.98119
X6.36679Y11.44119
X6.36679Y13.98119
X8.90679Y11.44119
X8.90679Y13.98119
X-11.41321Y-8.87881
X-13.95321Y-8.87881
X-11.41321Y-6.33881
X-13.95321Y-6.33881
X-11.41321Y-3.79881
X-13.95321Y-3.79881
X-11.41321Y-1.25881
X-13.95321Y-1.25881
X-11.41321Y1.28119
X-13.95321Y1.28119
X-11.41321Y3.82119
X-13.95321Y3.82119
X-11.41321Y6.36119
X-13.95321Y6.36119
X-11.41321Y8.90119
X-13.95321Y8.90119
X8.90679Y-11.41881
X8.90679Y-13.95881
X6.36679Y-11.41881
X6.36679Y-13.95881
X3.82679Y-11.41881
X3.82679Y-13.95881
X1.28679Y-11.41881
X1.28679Y-13.95881
X-1.25321Y-11.41881
X-1.25321Y-13.95881
X-3.79321Y-11.41881
X-3.79321Y-13.95881
X-6.33321Y-11.41881
X-6.33321Y-13.95881
X-8.87321Y-11.41881
X-8.87321Y-13.95881
M30