G04 Layer: TopSolderMaskLayer*
G04 EasyEDA Pro v2.2.39.2, 2025-05-28 23:54:08*
G04 Gerber Generator version 0.3*
G04 Scale: 100 percent, Rotated: No, Reflected: No*
G04 Dimensions in millimeters*
G04 Leading zeros omitted, absolute positions, 4 integers and 5 decimals*
G04 Generated by one-click*
%FSLAX45Y45*%
%MOMM*%
%AMRoundRect*1,1,$1,$2,$3*1,1,$1,$4,$5*1,1,$1,0-$2,0-$3*1,1,$1,0-$4,0-$5*20,1,$1,$2,$3,$4,$5,0*20,1,$1,$4,$5,0-$2,0-$3,0*20,1,$1,0-$2,0-$3,0-$4,0-$5,0*20,1,$1,0-$4,0-$5,$2,$3,0*4,1,4,$2,$3,$4,$5,0-$2,0-$3,0-$4,0-$5,$2,$3,0*%
%ADD10RoundRect,0.08771X-0.48008X-0.08842X0.08842X0.48008*%
%ADD11RoundRect,0.08771X-0.27695X-0.40199X-0.27695X0.40199*%
%ADD12RoundRect,0.08771X0.08842X-0.48008X-0.48008X0.08842*%
%ADD13RoundRect,0.08771X-0.40199X0.27695X0.40199X0.27695*%
%ADD14RoundRect,0.08771X0.12992X-0.47055X-0.48596X0.04624*%
%ADD15RoundRect,0.25388X0.08842X-0.36258X-0.36258X0.08842*%
%ADD16RoundRect,0.3665X-0.13847X-0.26352X-0.13847X0.26352*%
%ADD17RoundRect,0.36466X-0.13847X-0.26352X-0.13847X0.26352*%
%ADD18RoundRect,0.36466X-0.28425X-0.08842X0.08842X0.28425*%
%ADD19RoundRect,0.36466X-0.27546X-0.11286X0.06331X0.29088*%
%ADD20RoundRect,0.08906X-0.57483X-0.14142X0.14142X0.57483*%
%ADD21RoundRect,0.09336X-1.00432X-0.50432X-1.00432X0.50432*%
%ADD22RoundRect,0.076X-0.32393X-0.1644X0.1644X0.32393*%
%ADD23RoundRect,0.076X-0.32393X0.1644X-0.1644X0.32393*%
%ADD24RoundRect,0.09914X-2.83016X0.0X0.0X2.83016*%
%ADD25RoundRect,0.09402X-0.60399X0.55399X0.60399X0.55399*%
%ADD26RoundRect,0.25388X-0.19386X-0.20669X-0.19386X0.20669*%
%ADD27C,1.902*%
%ADD28RoundRect,0.09681X-0.90259X0.90259X0.90259X0.90259*%
%ADD29RoundRect,0.09681X-0.90259X-0.90259X-0.90259X0.90259*%
%ADD30RoundRect,0.09654X-0.85273X-0.85273X-0.85273X0.85273*%
%ADD31C,1.802*%
%ADD32RoundRect,0.09164X-0.03536X-0.60837X-0.60837X-0.03536*%
%ADD33RoundRect,0.09164X-0.60837X0.03536X-0.03536X0.60837*%
G75*


G04 Pad Start*
G54D10*
G01X369536Y-380324D03*
G01X446623Y-303238D03*
G54D11*
G01X712879Y-358190D03*
G01X712879Y-249173D03*
G54D12*
G01X-355090Y758767D03*
G01X-432177Y835854D03*
G01X-836471Y278156D03*
G01X-913557Y355243D03*
G54D13*
G01X594871Y-113181D03*
G01X703888Y-113181D03*
G54D10*
G01X218023Y-481038D03*
G01X140936Y-558124D03*
G01X-315377Y395262D03*
G01X-392464Y318176D03*
G01X484723Y458762D03*
G01X407636Y381676D03*
G54D12*
G01X623536Y598462D03*
G01X700623Y521376D03*
G54D14*
G01X772724Y74256D03*
G01X856235Y4182D03*
G54D15*
G01X-582077Y-202524D03*
G01X-659164Y-125438D03*
G01X-658277Y-278724D03*
G01X-735364Y-201638D03*
G54D17*
G01X611279Y-358190D03*
G01X611279Y-249173D03*
G54D18*
G01X521936Y267376D03*
G01X599023Y344462D03*
G54D19*
G01X1046142Y-294637D03*
G01X1116217Y-211125D03*
G54D17*
G01X598579Y22810D03*
G01X598579Y131827D03*
G54D20*
G01X-631972Y427264D03*
G01X-766316Y561609D03*
G01X-582455Y745471D03*
G01X-515282Y678299D03*
G01X-448110Y611126D03*
G54D21*
G01X1347879Y-1094383D03*
G01X1347879Y-554379D03*
G54D22*
G01X426481Y58215D03*
G01X398194Y86503D03*
G01X369906Y114791D03*
G01X341636Y143061D03*
G01X313348Y171349D03*
G01X285060Y199636D03*
G01X256773Y227924D03*
G01X228485Y256212D03*
G01X200215Y284482D03*
G01X171927Y312770D03*
G01X143639Y341057D03*
G01X115352Y369345D03*
G01X87064Y397633D03*
G01X58794Y425903D03*
G54D23*
G01X-55435Y425903D03*
G01X-83705Y397633D03*
G01X-111993Y369345D03*
G01X-140280Y341057D03*
G01X-168568Y312770D03*
G01X-196856Y284482D03*
G01X-225126Y256212D03*
G01X-253414Y227924D03*
G01X-281701Y199636D03*
G01X-309989Y171349D03*
G01X-338277Y143061D03*
G01X-366547Y114791D03*
G01X-394835Y86503D03*
G01X-423123Y58215D03*
G54D22*
G01X-423105Y-55996D03*
G01X-394835Y-84266D03*
G01X-366547Y-112553D03*
G01X-338259Y-140841D03*
G01X-309971Y-169129D03*
G01X-281683Y-197417D03*
G01X-253414Y-225686D03*
G01X-225126Y-253974D03*
G01X-196838Y-282262D03*
G01X-168550Y-310550D03*
G01X-140262Y-338838D03*
G01X-111993Y-367107D03*
G01X-83705Y-395395D03*
G01X-55417Y-423683D03*
G54D23*
G01X58776Y-423683D03*
G01X87064Y-395395D03*
G01X115352Y-367107D03*
G01X143621Y-338838D03*
G01X171909Y-310550D03*
G01X200197Y-282262D03*
G01X228485Y-253974D03*
G01X256773Y-225686D03*
G01X285042Y-197417D03*
G01X313330Y-169129D03*
G01X341618Y-140841D03*
G01X369906Y-112553D03*
G01X398194Y-84266D03*
G01X426463Y-55996D03*
G54D24*
G01X1679Y1101D03*
G54D25*
G01X655475Y-546175D03*
G01X465483Y-546175D03*
G01X465483Y-696187D03*
G01X655475Y-696187D03*
G54D11*
G01X814479Y251410D03*
G01X814479Y360427D03*
G54D26*
G01X928779Y349200D03*
G01X928779Y262637D03*
G01X292100Y551282D03*
G01X292100Y464718D03*
G54D27*
G01X-887321Y1144119D03*
G01X-887321Y1398119D03*
G01X-633321Y1144119D03*
G01X-633321Y1398119D03*
G01X-379321Y1144119D03*
G01X-379321Y1398119D03*
G01X-125321Y1144119D03*
G01X-125321Y1398119D03*
G01X128679Y1144119D03*
G01X128679Y1398119D03*
G01X382679Y1144119D03*
G01X382679Y1398119D03*
G01X636679Y1144119D03*
G01X636679Y1398119D03*
G01X890679Y1144119D03*
G54D28*
G01X890679Y1398119D03*
G54D27*
G01X-1141321Y-887881D03*
G01X-1395321Y-887881D03*
G01X-1141321Y-633881D03*
G01X-1395321Y-633881D03*
G01X-1141321Y-379881D03*
G01X-1395321Y-379881D03*
G01X-1141321Y-125881D03*
G01X-1395321Y-125881D03*
G01X-1141321Y128119D03*
G01X-1395321Y128119D03*
G01X-1141321Y382119D03*
G01X-1395321Y382119D03*
G01X-1141321Y636119D03*
G01X-1395321Y636119D03*
G01X-1141321Y890119D03*
G54D29*
G01X-1395321Y890119D03*
G54D27*
G01X890679Y-1141881D03*
G01X890679Y-1395881D03*
G01X636679Y-1141881D03*
G01X636679Y-1395881D03*
G01X382679Y-1141881D03*
G01X382679Y-1395881D03*
G01X128679Y-1141881D03*
G01X128679Y-1395881D03*
G01X-125321Y-1141881D03*
G01X-125321Y-1395881D03*
G01X-379321Y-1141881D03*
G01X-379321Y-1395881D03*
G01X-633321Y-1141881D03*
G01X-633321Y-1395881D03*
G01X-887321Y-1141881D03*
G54D28*
G01X-887321Y-1395881D03*
G54D30*
G01X1398679Y128119D03*
G54D31*
G01X1144679Y128119D03*
G01X1398679Y382119D03*
G01X1144679Y382119D03*
G01X1398679Y636119D03*
G01X1144679Y636119D03*
G01X1398679Y890119D03*
G01X1144679Y890119D03*
G54D32*
G01X-254658Y834515D03*
G01X-353656Y933514D03*
G01X-734420Y357526D03*
G01X-833419Y456524D03*
G54D33*
G01X493999Y747999D03*
G01X395001Y649001D03*
G04 Pad End*

M02*

