G04 Layer: TopSilkscreenLayer*
G04 EasyEDA Pro v2.2.39.2, 2025-05-28 23:54:08*
G04 Gerber Generator version 0.3*
G04 Scale: 100 percent, Rotated: No, Reflected: No*
G04 Dimensions in millimeters*
G04 Leading zeros omitted, absolute positions, 4 integers and 5 decimals*
G04 Generated by one-click*
%FSLAX45Y45*%
%MOMM*%
%ADD10C,0.1524*%
%ADD11C,0.254*%
%ADD12C,0.15001*%
%ADD13C,0.1333*%
G75*


G04 Text Start*
G36*
G01X-786815Y-939088D02*
G01X-802401Y-939088D01*
G01X-802401Y-961602D01*
G01X-802690Y-985559D01*
G01X-802979Y-987002D01*
G01X-817411Y-987002D01*
G01X-817411Y-860002D01*
G01X-802401Y-860002D01*
G01X-802401Y-907338D01*
G01X-786815Y-907338D01*
G01X-786815Y-939088D01*
G37*
G36*
G01X-755065Y-891752D02*
G01X-770651Y-891752D01*
G01X-770651Y-907338D01*
G01X-786238Y-907338D01*
G01X-786238Y-891752D01*
G01X-770651Y-891752D01*
G01X-770651Y-875588D01*
G01X-755065Y-875588D01*
G01X-755065Y-891752D01*
G37*
G36*
G01X-770651Y-939088D02*
G01X-770651Y-955252D01*
G01X-755065Y-955252D01*
G01X-755065Y-970838D01*
G01X-770651Y-970838D01*
G01X-770651Y-955252D01*
G01X-786238Y-955252D01*
G01X-786238Y-939088D01*
G01X-770651Y-939088D01*
G37*
G36*
G01X-754488Y-875588D02*
G01X-754488Y-860002D01*
G01X-738901Y-860002D01*
G01X-738901Y-875588D01*
G01X-754488Y-875588D01*
G37*
G36*
G01X-754488Y-970838D02*
G01X-738901Y-970838D01*
G01X-738901Y-977477D01*
G01X-739190Y-985559D01*
G01X-739479Y-987002D01*
G01X-754488Y-987002D01*
G01X-754488Y-970838D01*
G37*
G36*
G01X-707151Y-939088D02*
G01X-707151Y-970838D01*
G01X-659815Y-970838D01*
G01X-659815Y-987002D01*
G01X-707151Y-987002D01*
G01X-707151Y-970838D01*
G01X-722738Y-970838D01*
G01X-722738Y-915131D01*
G01X-707151Y-915131D01*
G01X-706863Y-923213D01*
G01X-682906Y-923502D01*
G01X-659238Y-923502D01*
G01X-659238Y-907338D01*
G01X-707151Y-907338D01*
G01X-707151Y-915131D01*
G01X-707151Y-915131D01*
G01X-722738Y-915131D01*
G01X-722738Y-907338D01*
G01X-707151Y-907338D01*
G01X-707151Y-891752D01*
G01X-659815Y-891752D01*
G01X-659815Y-907338D01*
G01X-643651Y-907338D01*
G01X-643651Y-939088D01*
G01X-707151Y-939088D01*
G37*
G36*
G01X-659238Y-970838D02*
G01X-659238Y-955252D01*
G01X-643651Y-955252D01*
G01X-643651Y-970838D01*
G01X-659238Y-970838D01*
G37*
G36*
G01X-627488Y-978920D02*
G01X-627488Y-970838D01*
G01X-595738Y-970838D01*
G01X-595738Y-907338D01*
G01X-627488Y-907338D01*
G01X-627488Y-891752D01*
G01X-580151Y-891752D01*
G01X-580151Y-970838D01*
G01X-548401Y-970838D01*
G01X-548401Y-977477D01*
G01X-548690Y-985559D01*
G01X-548979Y-987002D01*
G01X-627488Y-987002D01*
G01X-627488Y-978920D01*
G37*
G36*
G01X-595738Y-867795D02*
G01X-595738Y-860002D01*
G01X-580151Y-860002D01*
G01X-580151Y-875588D01*
G01X-595738Y-875588D01*
G01X-595738Y-867795D01*
G37*
G36*
G01X-484901Y-860002D02*
G01X-484901Y-970838D01*
G01X-453151Y-970838D01*
G01X-453151Y-977477D01*
G01X-453440Y-985559D01*
G01X-453729Y-987002D01*
G01X-484901Y-987002D01*
G01X-484901Y-970838D01*
G01X-500488Y-970838D01*
G01X-500488Y-875588D01*
G01X-532238Y-875588D01*
G01X-532238Y-860002D01*
G01X-484901Y-860002D01*
G37*
G36*
G01X-286031Y-1019329D02*
G01X-292959Y-1018752D01*
G01X-294401Y-1018174D01*
G01X-294401Y-1011824D01*
G01X-294690Y-1004031D01*
G01X-295051Y-1003021D01*
G01X-295556Y-1002877D01*
G01X-318359Y-1003165D01*
G01X-335244Y-1002949D01*
G01X-341449Y-1002299D01*
G01X-342099Y-988445D01*
G01X-342124Y-983827D01*
G01X-325863Y-983827D01*
G01X-325863Y-986713D01*
G01X-318070Y-987002D01*
G01X-310565Y-987002D01*
G01X-310565Y-923502D01*
G01X-316626Y-923502D01*
G01X-323554Y-923213D01*
G01X-325286Y-923213D01*
G01X-325863Y-923646D01*
G01X-325863Y-924368D01*
G01X-325574Y-953231D01*
G01X-325863Y-983827D01*
G01X-325863Y-983827D01*
G01X-342124Y-983827D01*
G01X-342315Y-948613D01*
G01X-342026Y-893772D01*
G01X-341738Y-891752D01*
G01X-335388Y-891752D01*
G01X-327595Y-891463D01*
G01X-326151Y-891174D01*
G01X-326151Y-877031D01*
G01X-326440Y-861445D01*
G01X-326729Y-860002D01*
G01X-333656Y-860002D01*
G01X-341449Y-859424D01*
G01X-342099Y-857621D01*
G01X-342315Y-853363D01*
G01X-342026Y-845859D01*
G01X-341738Y-843838D01*
G01X-319513Y-843838D01*
G01X-295845Y-844127D01*
G01X-294401Y-844415D01*
G01X-294401Y-850765D01*
G01X-294690Y-858559D01*
G01X-294979Y-860002D01*
G01X-301040Y-860002D01*
G01X-308545Y-860290D01*
G01X-309988Y-860579D01*
G01X-309988Y-874722D01*
G01X-310276Y-890309D01*
G01X-310565Y-891752D01*
G01X-317492Y-891752D01*
G01X-325286Y-892040D01*
G01X-325863Y-892473D01*
G01X-325863Y-893195D01*
G01X-325574Y-898679D01*
G01X-325863Y-904163D01*
G01X-325863Y-906184D01*
G01X-321750Y-907049D01*
G01X-309988Y-907338D01*
G01X-294401Y-907338D01*
G01X-294401Y-953520D01*
G01X-294113Y-1001145D01*
G01X-293824Y-1002588D01*
G01X-278815Y-1002588D01*
G01X-278815Y-1001145D01*
G01X-262363Y-1001145D01*
G01X-261786Y-1002299D01*
G01X-254281Y-1002588D01*
G01X-247065Y-1002588D01*
G01X-247065Y-971415D01*
G01X-230901Y-971415D01*
G01X-230901Y-978054D01*
G01X-230613Y-985559D01*
G01X-230613Y-985559D01*
G01X-230036Y-986713D01*
G01X-223974Y-987002D01*
G01X-216759Y-986713D01*
G01X-215315Y-986424D01*
G01X-215315Y-985847D01*
G01X-198863Y-985847D01*
G01X-198286Y-986713D01*
G01X-190781Y-987002D01*
G01X-183565Y-987002D01*
G01X-183565Y-980363D01*
G01X-183854Y-972281D01*
G01X-184142Y-970838D01*
G01X-190492Y-970838D01*
G01X-197997Y-971415D01*
G01X-198863Y-972570D01*
G01X-198574Y-978343D01*
G01X-198863Y-984404D01*
G01X-198863Y-985847D01*
G01X-198863Y-985847D01*
G01X-215315Y-985847D01*
G01X-215315Y-980074D01*
G01X-215604Y-972281D01*
G01X-215892Y-970838D01*
G01X-221954Y-970838D01*
G01X-229459Y-971127D01*
G01X-230901Y-971415D01*
G01X-247065Y-971415D01*
G01X-247065Y-970838D01*
G01X-247282Y-947098D01*
G01X-247300Y-946881D01*
G01X-230901Y-946881D01*
G01X-230613Y-954386D01*
G01X-222820Y-954674D01*
G01X-215315Y-954674D01*
G01X-215315Y-952077D01*
G01X-198863Y-952077D01*
G01X-198863Y-954386D01*
G01X-191070Y-954674D01*
G01X-183565Y-954674D01*
G01X-183565Y-946881D01*
G01X-183782Y-941109D01*
G01X-184431Y-939377D01*
G01X-190204Y-939665D01*
G01X-195976Y-939377D01*
G01X-197997Y-939377D01*
G01X-198791Y-939738D01*
G01X-198863Y-940243D01*
G01X-198574Y-945438D01*
G01X-198863Y-952077D01*
G01X-198863Y-952077D01*
G01X-215315Y-952077D01*
G01X-215315Y-948324D01*
G01X-215604Y-940531D01*
G01X-216037Y-939521D01*
G01X-216759Y-939377D01*
G01X-222242Y-939665D01*
G01X-227726Y-939377D01*
G01X-229747Y-939377D01*
G01X-230613Y-941397D01*
G01X-230901Y-946881D01*
G01X-230901Y-946881D01*
G01X-247300Y-946881D01*
G01X-247931Y-939377D01*
G01X-253704Y-939665D01*
G01X-259476Y-939377D01*
G01X-261497Y-939377D01*
G01X-262291Y-939738D01*
G01X-262363Y-940243D01*
G01X-262074Y-969684D01*
G01X-262363Y-999413D01*
G01X-262363Y-1001145D01*
G01X-262363Y-1001145D01*
G01X-278815Y-1001145D01*
G01X-278815Y-931872D01*
G01X-278777Y-922347D01*
G01X-262363Y-922347D01*
G01X-249086Y-922924D01*
G01X-233499Y-923213D01*
G01X-230901Y-923502D01*
G01X-230901Y-922924D01*
G01X-214738Y-922924D01*
G01X-208676Y-922924D01*
G01X-201749Y-923213D01*
G01X-200017Y-923213D01*
G01X-199368Y-921553D01*
G01X-199151Y-917152D01*
G01X-199440Y-909359D01*
G01X-199729Y-907338D01*
G01X-214738Y-907338D01*
G01X-214738Y-922924D01*
G01X-214738Y-922924D01*
G01X-230901Y-922924D01*
G01X-230901Y-916863D01*
G01X-231190Y-908781D01*
G01X-231479Y-907338D01*
G01X-237829Y-907338D01*
G01X-245622Y-907049D01*
G01X-247065Y-906761D01*
G01X-247065Y-900699D01*
G01X-246776Y-893195D01*
G01X-246488Y-891752D01*
G01X-240138Y-891752D01*
G01X-232345Y-891463D01*
G01X-230901Y-891174D01*
G01X-230901Y-875588D01*
G01X-214738Y-875588D01*
G01X-214738Y-882515D01*
G01X-214449Y-890309D01*
G01X-214449Y-890309D01*
G01X-213872Y-891463D01*
G01X-207234Y-891752D01*
G01X-200017Y-891174D01*
G01X-199368Y-889226D01*
G01X-199151Y-884536D01*
G01X-199440Y-877031D01*
G01X-199729Y-875588D01*
G01X-214738Y-875588D01*
G01X-230901Y-875588D01*
G01X-245334Y-875588D01*
G01X-261209Y-875877D01*
G01X-262219Y-876238D01*
G01X-262363Y-876743D01*
G01X-262074Y-898679D01*
G01X-262363Y-920904D01*
G01X-262363Y-922347D01*
G01X-262363Y-922347D01*
G01X-278777Y-922347D01*
G01X-278599Y-878619D01*
G01X-277949Y-860290D01*
G01X-272176Y-859641D01*
G01X-256590Y-859424D01*
G01X-233499Y-859713D01*
G01X-230901Y-860002D01*
G01X-230901Y-853363D01*
G01X-230613Y-845281D01*
G01X-230324Y-843838D01*
G01X-223397Y-843838D01*
G01X-215604Y-844415D01*
G01X-214954Y-846724D01*
G01X-214738Y-852497D01*
G01X-214594Y-858053D01*
G01X-214161Y-859713D01*
G01X-192513Y-859424D01*
G01X-169422Y-859713D01*
G01X-167401Y-860002D01*
G01X-167401Y-875588D01*
G01X-173751Y-875588D01*
G01X-181545Y-875877D01*
G01X-182988Y-876165D01*
G01X-182988Y-882515D01*
G01X-182699Y-890309D01*
G01X-182411Y-891752D01*
G01X-167401Y-891752D01*
G01X-167401Y-898102D01*
G01X-167690Y-905895D01*
G01X-167979Y-907338D01*
G01X-182988Y-907338D01*
G01X-182988Y-913977D01*
G01X-182699Y-922059D01*
G01X-182338Y-923069D01*
G01X-181834Y-923213D01*
G01X-176349Y-922924D01*
G01X-169422Y-923213D01*
G01X-167401Y-923502D01*
G01X-167401Y-970549D01*
G01X-167618Y-1006052D01*
G01X-168267Y-1018463D01*
G01X-170216Y-1019113D01*
G01X-174329Y-1019329D01*
G01X-181545Y-1018752D01*
G01X-183565Y-1018174D01*
G01X-183565Y-1010381D01*
G01X-183710Y-1004609D01*
G01X-184142Y-1002877D01*
G01X-207811Y-1003165D01*
G01X-230901Y-1003165D01*
G01X-230901Y-1010381D01*
G01X-231118Y-1016010D01*
G01X-231767Y-1018463D01*
G01X-235664Y-1019113D01*
G01X-245622Y-1019329D01*
G01X-259476Y-1019040D01*
G01X-261497Y-1018752D01*
G01X-262363Y-1016803D01*
G01X-262651Y-1010959D01*
G01X-262651Y-1003165D01*
G01X-268424Y-1003165D01*
G01X-276217Y-1002877D01*
G01X-278238Y-1002588D01*
G01X-278238Y-1008938D01*
G01X-278526Y-1016731D01*
G01X-279681Y-1018752D01*
G01X-286031Y-1019329D01*
G37*
G36*
G01X-151238Y-978920D02*
G01X-151238Y-970838D01*
G01X-119488Y-970838D01*
G01X-119488Y-907338D01*
G01X-151238Y-907338D01*
G01X-151238Y-891752D01*
G01X-103901Y-891752D01*
G01X-103901Y-970838D01*
G01X-72151Y-970838D01*
G01X-72151Y-977477D01*
G01X-72440Y-985559D01*
G01X-72729Y-987002D01*
G01X-151238Y-987002D01*
G01X-151238Y-978920D01*
G37*
G36*
G01X-119488Y-867795D02*
G01X-119488Y-860002D01*
G01X-103901Y-860002D01*
G01X-103901Y-875588D01*
G01X-119488Y-875588D01*
G01X-119488Y-867795D01*
G37*
G36*
G01X-8651Y-923502D02*
G01X-8651Y-939088D01*
G01X6935Y-939088D01*
G01X6935Y-955252D01*
G01X-8651Y-955252D01*
G01X-8651Y-939088D01*
G01X-40401Y-939088D01*
G01X-40401Y-923502D01*
G01X-55988Y-923502D01*
G01X-55988Y-907338D01*
G01X-40401Y-907338D01*
G01X-40401Y-891752D01*
G01X6935Y-891752D01*
G01X6935Y-907338D01*
G01X-40401Y-907338D01*
G01X-40401Y-923502D01*
G01X-8651Y-923502D01*
G37*
G36*
G01X-40401Y-955252D02*
G01X-40401Y-970838D01*
G01X6935Y-970838D01*
G01X6935Y-987002D01*
G01X-40401Y-987002D01*
G01X-40401Y-970838D01*
G01X-55988Y-970838D01*
G01X-55988Y-955252D01*
G01X-40401Y-955252D01*
G37*
G36*
G01X7512Y-907338D02*
G01X23099Y-907338D01*
G01X23099Y-913977D01*
G01X22810Y-922059D01*
G01X22521Y-923502D01*
G01X7512Y-923502D01*
G01X7512Y-907338D01*
G37*
G36*
G01X7512Y-970838D02*
G01X7512Y-955252D01*
G01X23099Y-955252D01*
G01X23099Y-970838D01*
G01X7512Y-970838D01*
G37*
G36*
G01X39262Y-978920D02*
G01X39262Y-970838D01*
G01X71012Y-970838D01*
G01X71012Y-907338D01*
G01X39262Y-907338D01*
G01X39262Y-891752D01*
G01X86599Y-891752D01*
G01X86599Y-970838D01*
G01X118349Y-970838D01*
G01X118349Y-977477D01*
G01X118060Y-985559D01*
G01X117771Y-987002D01*
G01X39262Y-987002D01*
G01X39262Y-978920D01*
G37*
G36*
G01X71012Y-867795D02*
G01X71012Y-860002D01*
G01X86599Y-860002D01*
G01X86599Y-875588D01*
G01X71012Y-875588D01*
G01X71012Y-867795D01*
G37*
G36*
G01X150099Y-978920D02*
G01X150099Y-970838D01*
G01X134512Y-970838D01*
G01X134512Y-938799D01*
G01X150099Y-938799D01*
G01X150387Y-970549D01*
G01X174344Y-970838D01*
G01X198012Y-970838D01*
G01X198012Y-907338D01*
G01X150099Y-907338D01*
G01X150099Y-938799D01*
G01X150099Y-938799D01*
G01X134512Y-938799D01*
G01X134512Y-907338D01*
G01X150099Y-907338D01*
G01X150099Y-891752D01*
G01X197435Y-891752D01*
G01X197435Y-907338D01*
G01X213599Y-907338D01*
G01X213599Y-970838D01*
G01X197435Y-970838D01*
G01X197435Y-987002D01*
G01X150099Y-987002D01*
G01X150099Y-978920D01*
G37*
G36*
G01X260935Y-907338D02*
G01X260935Y-923502D01*
G01X245349Y-923502D01*
G01X245349Y-953809D01*
G01X245060Y-985559D01*
G01X244771Y-987002D01*
G01X229762Y-987002D01*
G01X229762Y-891752D01*
G01X245349Y-891752D01*
G01X245349Y-907338D01*
G01X260935Y-907338D01*
G37*
G36*
G01X292685Y-907338D02*
G01X261512Y-907338D01*
G01X261512Y-891752D01*
G01X292685Y-891752D01*
G01X292685Y-907338D01*
G37*
G36*
G01X293262Y-907338D02*
G01X308849Y-907338D01*
G01X308849Y-945727D01*
G01X308560Y-985559D01*
G01X308271Y-987002D01*
G01X293262Y-987002D01*
G01X293262Y-907338D01*
G37*
G36*
G01X483185Y-923502D02*
G01X420262Y-923502D01*
G01X420262Y-860002D01*
G01X499349Y-860002D01*
G01X499349Y-875588D01*
G01X435849Y-875588D01*
G01X435849Y-907338D01*
G01X483185Y-907338D01*
G01X483185Y-923502D01*
G37*
G36*
G01X435849Y-955252D02*
G01X435849Y-970838D01*
G01X483185Y-970838D01*
G01X483185Y-987002D01*
G01X435849Y-987002D01*
G01X435849Y-970838D01*
G01X420262Y-970838D01*
G01X420262Y-955252D01*
G01X435849Y-955252D01*
G37*
G36*
G01X483762Y-970838D02*
G01X483762Y-923502D01*
G01X499349Y-923502D01*
G01X499349Y-970838D01*
G01X483762Y-970838D01*
G37*
G36*
G01X-436641Y-792633D02*
G01X-436641Y-818033D01*
G01X-405238Y-818033D01*
G01X-405122Y-817456D01*
G01X-405007Y-814223D01*
G01X-405007Y-811568D01*
G01X-430407Y-811568D01*
G01X-430407Y-767233D01*
G01X-436641Y-767233D01*
G01X-436641Y-792633D01*
G37*
G36*
G01X-779541Y-792633D02*
G01X-779541Y-818033D01*
G01X-748138Y-818033D01*
G01X-748022Y-817456D01*
G01X-747907Y-814223D01*
G01X-747907Y-811568D01*
G01X-773307Y-811568D01*
G01X-773307Y-767233D01*
G01X-779541Y-767233D01*
G01X-779541Y-792633D01*
G37*
G36*
G01X-665241Y-792633D02*
G01X-665241Y-818033D01*
G01X-633838Y-818033D01*
G01X-633722Y-817456D01*
G01X-633607Y-814223D01*
G01X-633607Y-811568D01*
G01X-659007Y-811568D01*
G01X-659007Y-767233D01*
G01X-665241Y-767233D01*
G01X-665241Y-792633D01*
G37*
G36*
G01X-550941Y-792633D02*
G01X-550941Y-818033D01*
G01X-519538Y-818033D01*
G01X-519422Y-817456D01*
G01X-519307Y-814223D01*
G01X-519307Y-811568D01*
G01X-544707Y-811568D01*
G01X-544707Y-767233D01*
G01X-550941Y-767233D01*
G01X-550941Y-792633D01*
G37*
G36*
G01X-792241Y-767233D02*
G01X-792241Y-811568D01*
G01X-786007Y-811568D01*
G01X-786007Y-767233D01*
G01X-792241Y-767233D01*
G37*
G36*
G01X-677941Y-767233D02*
G01X-677941Y-811568D01*
G01X-671707Y-811568D01*
G01X-671707Y-767233D01*
G01X-677941Y-767233D01*
G37*
G36*
G01X-563641Y-767233D02*
G01X-563641Y-811568D01*
G01X-557407Y-811568D01*
G01X-557407Y-767233D01*
G01X-563641Y-767233D01*
G37*
G36*
G01X-449341Y-767233D02*
G01X-449341Y-811568D01*
G01X-443107Y-811568D01*
G01X-443107Y-767233D01*
G01X-449341Y-767233D01*
G37*
G36*
G01X-398541Y-811568D02*
G01X-392307Y-811568D01*
G01X-392307Y-773468D01*
G01X-398541Y-773468D01*
G01X-398541Y-811568D01*
G37*
G36*
G01X-741441Y-811568D02*
G01X-735207Y-811568D01*
G01X-735207Y-773468D01*
G01X-741441Y-773468D01*
G01X-741441Y-811568D01*
G37*
G36*
G01X-627141Y-811568D02*
G01X-620907Y-811568D01*
G01X-620907Y-773468D01*
G01X-627141Y-773468D01*
G01X-627141Y-811568D01*
G37*
G36*
G01X-512841Y-811568D02*
G01X-506607Y-811568D01*
G01X-506607Y-773468D01*
G01X-512841Y-773468D01*
G01X-512841Y-811568D01*
G37*
G36*
G01X-678172Y-818033D02*
G01X-678172Y-811568D01*
G01X-697107Y-811568D01*
G01X-697107Y-818033D01*
G01X-678172Y-818033D01*
G37*
G36*
G01X-792472Y-818033D02*
G01X-792472Y-811568D01*
G01X-811407Y-811568D01*
G01X-811407Y-818033D01*
G01X-792472Y-818033D01*
G37*
G36*
G01X-716272Y-818033D02*
G01X-716272Y-811568D01*
G01X-735207Y-811568D01*
G01X-735207Y-818033D01*
G01X-716272Y-818033D01*
G37*
G36*
G01X-601972Y-818033D02*
G01X-601972Y-811568D01*
G01X-620907Y-811568D01*
G01X-620907Y-818033D01*
G01X-601972Y-818033D01*
G37*
G36*
G01X-563872Y-818033D02*
G01X-563872Y-811568D01*
G01X-582807Y-811568D01*
G01X-582807Y-818033D01*
G01X-563872Y-818033D01*
G37*
G36*
G01X-487672Y-818033D02*
G01X-487672Y-811568D01*
G01X-506607Y-811568D01*
G01X-506607Y-818033D01*
G01X-487672Y-818033D01*
G37*
G36*
G01X-449572Y-818033D02*
G01X-449572Y-811568D01*
G01X-468507Y-811568D01*
G01X-468507Y-818033D01*
G01X-449572Y-818033D01*
G37*
G36*
G01X-373372Y-818033D02*
G01X-373372Y-811568D01*
G01X-392307Y-811568D01*
G01X-392307Y-818033D01*
G01X-373372Y-818033D01*
G37*
G36*
G01X-735207Y-773468D02*
G01X-716272Y-773468D01*
G01X-716272Y-767233D01*
G01X-735207Y-767233D01*
G01X-735207Y-773468D01*
G37*
G36*
G01X-620907Y-773468D02*
G01X-601972Y-773468D01*
G01X-601972Y-767233D01*
G01X-620907Y-767233D01*
G01X-620907Y-773468D01*
G37*
G36*
G01X-506607Y-773468D02*
G01X-487672Y-773468D01*
G01X-487672Y-767233D01*
G01X-506607Y-767233D01*
G01X-506607Y-773468D01*
G37*
G36*
G01X-392307Y-773468D02*
G01X-373372Y-773468D01*
G01X-373372Y-767233D01*
G01X-392307Y-767233D01*
G01X-392307Y-773468D01*
G37*
G36*
G01X-703341Y-811568D02*
G01X-697107Y-811568D01*
G01X-697107Y-798868D01*
G01X-703341Y-798868D01*
G01X-703341Y-811568D01*
G37*
G36*
G01X-589041Y-811568D02*
G01X-582807Y-811568D01*
G01X-582807Y-798868D01*
G01X-589041Y-798868D01*
G01X-589041Y-811568D01*
G37*
G36*
G01X-474741Y-811568D02*
G01X-468507Y-811568D01*
G01X-468507Y-798868D01*
G01X-474741Y-798868D01*
G01X-474741Y-811568D01*
G37*
G36*
G01X-817411Y-811568D02*
G01X-811407Y-811568D01*
G01X-811407Y-798868D01*
G01X-817411Y-798868D01*
G01X-817411Y-811568D01*
G37*
G36*
G01X-366907Y-773468D02*
G01X-373141Y-773468D01*
G01X-373141Y-779933D01*
G01X-367138Y-779933D01*
G01X-367022Y-779356D01*
G01X-366907Y-776123D01*
G01X-366907Y-773468D01*
G37*
G36*
G01X-709807Y-773468D02*
G01X-716041Y-773468D01*
G01X-716041Y-779933D01*
G01X-710038Y-779933D01*
G01X-709922Y-779356D01*
G01X-709807Y-776123D01*
G01X-709807Y-773468D01*
G37*
G36*
G01X-595507Y-773468D02*
G01X-601741Y-773468D01*
G01X-601741Y-779933D01*
G01X-595738Y-779933D01*
G01X-595622Y-779356D01*
G01X-595507Y-776123D01*
G01X-595507Y-773468D01*
G37*
G36*
G01X-481207Y-773468D02*
G01X-487441Y-773468D01*
G01X-487441Y-779933D01*
G01X-481438Y-779933D01*
G01X-481322Y-779356D01*
G01X-481207Y-776123D01*
G01X-481207Y-773468D01*
G37*
G36*
G01X-373141Y-805333D02*
G01X-373141Y-811568D01*
G01X-366907Y-811568D01*
G01X-366907Y-805333D01*
G01X-373141Y-805333D01*
G37*
G36*
G01X-716041Y-805333D02*
G01X-716041Y-811568D01*
G01X-709807Y-811568D01*
G01X-709807Y-805333D01*
G01X-716041Y-805333D01*
G37*
G36*
G01X-601741Y-805333D02*
G01X-601741Y-811568D01*
G01X-595507Y-811568D01*
G01X-595507Y-805333D01*
G01X-601741Y-805333D01*
G37*
G36*
G01X-487441Y-805333D02*
G01X-487441Y-811568D01*
G01X-481207Y-811568D01*
G01X-481207Y-805333D01*
G01X-487441Y-805333D01*
G37*
G54D10*
G01X1379730Y-837784D02*
G01X1333248Y-837784D01*
G01X1324104Y-840832D01*
G01X1317754Y-847182D01*
G01X1314706Y-856326D01*
G01X1314706Y-862676D01*
G01X1317754Y-871820D01*
G01X1324104Y-877916D01*
G01X1333248Y-881218D01*
G01X1379730Y-881218D01*
G01X1379730Y-954624D02*
G01X1314706Y-923636D01*
G01X1379730Y-911444D02*
G01X1379730Y-954624D01*
G04 Text End*

G04 PolygonModel Start*
G01X515200Y-305174D02*
G01X459332Y-361042D01*
G01X356827Y-322520D02*
G01X300959Y-378388D01*
G01X371472Y-448901D02*
G01X427340Y-393033D01*
G01X300959Y-399941D02*
G01X349920Y-448901D01*
G01X388819Y-290529D02*
G01X444687Y-234661D01*
G01X466239Y-234661D02*
G01X515200Y-283621D01*
G01X300959Y-378388D02*
G03X300959Y-399941I10776J-10776D01*
G01X349920Y-448901D02*
G03X371472Y-448901I10776J10776D01*
G01X444687Y-234661D02*
G02X466239Y-234661I10776J-10776D01*
G01X515200Y-283621D02*
G02X515200Y-305174I-10776J-10776D01*
G01X762740Y-202051D02*
G01X762740Y-281060D01*
G01X663019Y-326302D02*
G01X663019Y-405312D01*
G01X762740Y-405312D02*
G01X762740Y-326302D01*
G01X678259Y-420552D02*
G01X747500Y-420552D01*
G01X663019Y-281060D02*
G01X663019Y-202051D01*
G01X678259Y-186811D02*
G01X747500Y-186811D01*
G01X663019Y-405312D02*
G03X678259Y-420552I15240J0D01*
G01X747500Y-420552D02*
G03X762740Y-405312I0J15240D01*
G01X663019Y-202051D02*
G02X678259Y-186811I15240J0D01*
G01X747500Y-186811D02*
G02X762740Y-202051I0J-15240D01*
G01X-430241Y904431D02*
G01X-374373Y848563D01*
G01X-412895Y746058D02*
G01X-357027Y690190D01*
G01X-286514Y760703D02*
G01X-342382Y816571D01*
G01X-335474Y690190D02*
G01X-286514Y739151D01*
G01X-444886Y778050D02*
G01X-500754Y833918D01*
G01X-500754Y855470D02*
G01X-451793Y904431D01*
G01X-357027Y690190D02*
G03X-335474Y690190I10776J10776D01*
G01X-286514Y739151D02*
G03X-286514Y760703I-10776J10776D01*
G01X-500754Y833918D02*
G02X-500754Y855470I10776J10776D01*
G01X-451793Y904431D02*
G02X-430241Y904431I10776J-10776D01*
G01X-911621Y423820D02*
G01X-855753Y367952D01*
G01X-894275Y265448D02*
G01X-838407Y209580D01*
G01X-767894Y280093D02*
G01X-823762Y335960D01*
G01X-816855Y209580D02*
G01X-767894Y258540D01*
G01X-926266Y297439D02*
G01X-982134Y353307D01*
G01X-982134Y374859D02*
G01X-933174Y423820D01*
G01X-838407Y209580D02*
G03X-816855Y209580I10776J10776D01*
G01X-767894Y258540D02*
G03X-767894Y280093I-10776J10776D01*
G01X-982134Y353307D02*
G02X-982134Y374859I10776J10776D01*
G01X-933174Y423820D02*
G02X-911621Y423820I10776J-10776D01*
G01X751010Y-163041D02*
G01X672001Y-163041D01*
G01X626758Y-63321D02*
G01X547749Y-63321D01*
G01X547749Y-163041D02*
G01X626758Y-163041D01*
G01X532509Y-78561D02*
G01X532509Y-147801D01*
G01X672001Y-63321D02*
G01X751010Y-63321D01*
G01X766250Y-78561D02*
G01X766250Y-147801D01*
G01X547749Y-63321D02*
G03X532509Y-78561I0J-15240D01*
G01X532509Y-147801D02*
G03X547749Y-163041I15240J0D01*
G01X751010Y-63321D02*
G02X766250Y-78561I0J-15240D01*
G01X766250Y-147801D02*
G02X751010Y-163041I-15240J0D01*
G01X72359Y-556188D02*
G01X128227Y-500320D01*
G01X230732Y-538842D02*
G01X286600Y-482974D01*
G01X216087Y-412461D02*
G01X160219Y-468329D01*
G01X286600Y-461421D02*
G01X237639Y-412461D01*
G01X198740Y-570833D02*
G01X142872Y-626701D01*
G01X121320Y-626701D02*
G01X72359Y-577741D01*
G01X286600Y-482974D02*
G03X286600Y-461421I-10776J10776D01*
G01X237639Y-412461D02*
G03X216087Y-412461I-10776J-10776D01*
G01X142872Y-626701D02*
G02X121320Y-626701I-10776J10776D01*
G01X72359Y-577741D02*
G02X72359Y-556188I10776J10776D01*
G01X-461041Y320112D02*
G01X-405173Y375980D01*
G01X-302668Y337458D02*
G01X-246800Y393326D01*
G01X-317313Y463839D02*
G01X-373181Y407971D01*
G01X-246800Y414879D02*
G01X-295761Y463839D01*
G01X-334660Y305467D02*
G01X-390528Y249599D01*
G01X-412080Y249599D02*
G01X-461041Y298559D01*
G01X-246800Y393326D02*
G03X-246800Y414879I-10776J10776D01*
G01X-295761Y463839D02*
G03X-317313Y463839I-10776J-10776D01*
G01X-390528Y249599D02*
G02X-412080Y249599I-10776J10776D01*
G01X-461041Y298559D02*
G02X-461041Y320112I10776J10776D01*
G01X339059Y383612D02*
G01X394927Y439480D01*
G01X497432Y400958D02*
G01X553300Y456826D01*
G01X482787Y527339D02*
G01X426919Y471471D01*
G01X553300Y478379D02*
G01X504339Y527339D01*
G01X465440Y368967D02*
G01X409572Y313099D01*
G01X388020Y313099D02*
G01X339059Y362059D01*
G01X553300Y456826D02*
G03X553300Y478379I-10776J10776D01*
G01X504339Y527339D02*
G03X482787Y527339I-10776J-10776D01*
G01X409572Y313099D02*
G02X388020Y313099I-10776J10776D01*
G01X339059Y362059D02*
G02X339059Y383612I10776J10776D01*
G01X698687Y452799D02*
G01X642819Y508667D01*
G01X681340Y611171D02*
G01X625472Y667039D01*
G01X554959Y596526D02*
G01X610827Y540658D01*
G01X603920Y667039D02*
G01X554959Y618079D01*
G01X713332Y579180D02*
G01X769200Y523312D01*
G01X769200Y501759D02*
G01X720239Y452799D01*
G01X625472Y667039D02*
G03X603920Y667039I-10776J-10776D01*
G01X554959Y618079D02*
G03X554959Y596526I10776J-10776D01*
G01X769200Y523312D02*
G02X769200Y501759I-10776J-10776D01*
G01X720239Y452799D02*
G02X698687Y452799I-10776J10776D01*
G01X860283Y-64303D02*
G01X799759Y-13517D01*
G01X829200Y91955D02*
G01X768676Y142741D01*
G01X704576Y66351D02*
G01X765101Y15564D01*
G01X747205Y140862D02*
G01X702698Y87821D01*
G01X863858Y62873D02*
G01X924382Y12087D01*
G01X926261Y-9383D02*
G01X881754Y-62425D01*
G01X768676Y142741D02*
G03X747205Y140862I-9796J-11675D01*
G01X702698Y87821D02*
G03X704576Y66351I11675J-9796D01*
G01X924382Y12087D02*
G02X926261Y-9383I-9796J-11675D01*
G01X881754Y-62425D02*
G02X860283Y-64303I-11675J9796D01*
G01X-513500Y-200588D02*
G01X-569368Y-144720D01*
G01X-639881Y-215233D02*
G01X-584013Y-271101D01*
G01X-562461Y-271101D02*
G01X-513500Y-222141D01*
G01X-657228Y-56861D02*
G01X-601360Y-112729D01*
G01X-671873Y-183242D02*
G01X-727741Y-127374D01*
G01X-727741Y-105821D02*
G01X-678780Y-56861D01*
G01X-584013Y-271101D02*
G03X-562461Y-271101I10776J10776D01*
G01X-513500Y-222141D02*
G03X-513500Y-200588I-10776J10776D01*
G01X-727741Y-127374D02*
G02X-727741Y-105821I10776J10776D01*
G01X-678780Y-56861D02*
G02X-657228Y-56861I10776J-10776D01*
G01X-589700Y-276788D02*
G01X-645568Y-220920D01*
G01X-716081Y-291433D02*
G01X-660213Y-347301D01*
G01X-638661Y-347301D02*
G01X-589700Y-298341D01*
G01X-733428Y-133061D02*
G01X-677560Y-188929D01*
G01X-748073Y-259442D02*
G01X-803941Y-203574D01*
G01X-803941Y-182021D02*
G01X-754980Y-133061D01*
G01X-660213Y-347301D02*
G03X-638661Y-347301I10776J10776D01*
G01X-589700Y-298341D02*
G03X-589700Y-276788I-10776J10776D01*
G01X-803941Y-203574D02*
G02X-803941Y-182021I10776J10776D01*
G01X-754980Y-133061D02*
G02X-733428Y-133061I10776J-10776D01*
G01X561419Y-326302D02*
G01X561419Y-405312D01*
G01X561419Y-405312D02*
G01X576659Y-420552D01*
G01X576659Y-420552D02*
G01X645900Y-420552D01*
G01X645900Y-420552D02*
G01X661140Y-405312D01*
G01X661140Y-405312D02*
G01X661140Y-326302D01*
G01X561419Y-281060D02*
G01X561419Y-202051D01*
G01X561419Y-202051D02*
G01X576659Y-186811D01*
G01X576659Y-186811D02*
G01X645900Y-186811D01*
G01X645900Y-186811D02*
G01X661140Y-202051D01*
G01X661140Y-202051D02*
G01X661140Y-281060D01*
G01X509227Y325180D02*
G01X453359Y269312D01*
G01X453359Y269312D02*
G01X453359Y247759D01*
G01X453359Y247759D02*
G01X502320Y198799D01*
G01X502320Y198799D02*
G01X523872Y198799D01*
G01X523872Y198799D02*
G01X579740Y254667D01*
G01X541219Y357171D02*
G01X597087Y413039D01*
G01X597087Y413039D02*
G01X618639Y413039D01*
G01X618639Y413039D02*
G01X667600Y364079D01*
G01X667600Y364079D02*
G01X667600Y342526D01*
G01X667600Y342526D02*
G01X611732Y286658D01*
G01X1028444Y-238160D02*
G01X977658Y-298685D01*
G01X977658Y-298685D02*
G01X979536Y-320156D01*
G01X979536Y-320156D02*
G01X1032577Y-364663D01*
G01X1032577Y-364663D02*
G01X1054048Y-362784D01*
G01X1054048Y-362784D02*
G01X1104834Y-302260D01*
G01X1057525Y-203503D02*
G01X1108311Y-142978D01*
G01X1108311Y-142978D02*
G01X1129782Y-141100D01*
G01X1129782Y-141100D02*
G01X1182823Y-185607D01*
G01X1182823Y-185607D02*
G01X1184701Y-207077D01*
G01X1184701Y-207077D02*
G01X1133915Y-267602D01*
G01X548719Y54698D02*
G01X548719Y-24312D01*
G01X548719Y-24312D02*
G01X563959Y-39552D01*
G01X563959Y-39552D02*
G01X633200Y-39552D01*
G01X633200Y-39552D02*
G01X648440Y-24312D01*
G01X648440Y-24312D02*
G01X648440Y54698D01*
G01X548719Y99940D02*
G01X548719Y178949D01*
G01X548719Y178949D02*
G01X563959Y194189D01*
G01X563959Y194189D02*
G01X633200Y194189D01*
G01X633200Y194189D02*
G01X648440Y178949D01*
G01X648440Y178949D02*
G01X648440Y99940D01*
G54D11*
G01X1462179Y-630579D02*
G01X1220879Y-630579D01*
G01X1220879Y-630579D02*
G01X1220879Y-655979D01*
G01X1220879Y-655979D02*
G01X1474879Y-655979D01*
G01X1474879Y-655979D02*
G01X1474879Y-681379D01*
G01X1474879Y-681379D02*
G01X1220879Y-681379D01*
G01X1220879Y-681379D02*
G01X1220879Y-706779D01*
G01X1220879Y-706779D02*
G01X1474879Y-706779D01*
G01X1474879Y-706779D02*
G01X1474879Y-732179D01*
G01X1474879Y-732179D02*
G01X1220879Y-732179D01*
G54D10*
G01X49318Y-457007D02*
G01X1679Y-504646D01*
G01X1679Y-504646D02*
G01X-45959Y-457007D01*
G01X-456436Y48747D02*
G01X-504074Y1108D01*
G01X-504074Y1108D02*
G01X-456438Y-46529D01*
G01X459796Y-46529D02*
G01X507433Y1108D01*
G01X507433Y1108D02*
G01X459795Y48747D01*
G01X-45957Y459225D02*
G01X1679Y506862D01*
G01X1679Y506862D02*
G01X49316Y459225D01*
G01X761139Y-601115D02*
G01X761139Y-445413D01*
G01X761139Y-445413D02*
G01X595531Y-445413D01*
G01X738340Y-468321D02*
G01X738340Y-774041D01*
G01X738340Y-774041D02*
G01X382618Y-774041D01*
G01X382618Y-774041D02*
G01X382618Y-468321D01*
G01X382618Y-468321D02*
G01X738340Y-468321D01*
G01X864340Y407549D02*
G01X864340Y328540D01*
G01X764619Y283298D02*
G01X764619Y204288D01*
G01X864340Y204288D02*
G01X864340Y283298D01*
G01X779859Y189048D02*
G01X849100Y189048D01*
G01X764619Y328540D02*
G01X764619Y407549D01*
G01X779859Y422789D02*
G01X849100Y422789D01*
G01X764619Y204288D02*
G03X779859Y189048I15240J0D01*
G01X849100Y189048D02*
G03X864340Y204288I0J15240D01*
G01X764619Y407549D02*
G02X779859Y422789I15240J0D01*
G01X849100Y422789D02*
G02X864340Y407549I0J-15240D01*
G01X978640Y328540D02*
G01X978640Y374943D01*
G03X953240Y400343I-25400J0D01*
G01X904319Y400343D01*
G03X878919Y374943I0J-25400D01*
G01X878919Y328540D01*
G01X978640Y283298D02*
G01X978640Y236894D01*
G02X953240Y211494I-25400J0D01*
G01X904319Y211494D01*
G02X878919Y236894I0J25400D01*
G01X878919Y283298D01*
G01X341960Y530621D02*
G01X341960Y577025D01*
G03X316560Y602425I-25400J0D01*
G01X267640Y602425D01*
G03X242240Y577025I0J-25400D01*
G01X242240Y530621D01*
G01X341960Y485379D02*
G01X341960Y438976D01*
G02X316560Y413576I-25400J0D01*
G01X267640Y413576D01*
G02X242240Y438976I0J25400D01*
G01X242240Y485379D01*
G54D11*
G01X763679Y1267118D02*
G01X1017677Y1267118D01*
G01X763679Y1521118D02*
G01X763679Y1267118D01*
G01X1017693Y1521444D02*
G01X1017693Y1267444D01*
G01X763888Y1522419D02*
G01X1017888Y1522419D01*
G01X-1264320Y763119D02*
G01X-1264320Y1017116D01*
G01X-1518320Y763119D02*
G01X-1264320Y763119D01*
G01X-1518645Y1017133D02*
G01X-1264645Y1017133D01*
G01X-1519621Y763328D02*
G01X-1519621Y1017328D01*
G01X-760321Y-1264881D02*
G01X-1014318Y-1264881D01*
G01X-760321Y-1518881D02*
G01X-760321Y-1264881D01*
G01X-1014334Y-1519206D02*
G01X-1014334Y-1265206D01*
G01X-760530Y-1520181D02*
G01X-1014530Y-1520181D01*
G01X1271679Y1119D02*
G01X1271679Y255119D01*
G01X1271679Y255119D02*
G01X1525679Y255119D01*
G01X1525679Y1119D02*
G01X1271679Y1119D01*
G01X1525679Y255119D02*
G01X1525679Y1119D01*
G01X-374144Y853652D02*
G01X-430710Y910219D01*
G01X-334546Y813990D02*
G01X-277980Y757423D01*
G01X-273757Y954039D02*
G01X-330324Y1010606D01*
G01X-234161Y914375D02*
G01X-177595Y857808D01*
G01X-430705Y954030D02*
G01X-374133Y1010602D01*
G01X-177600Y813994D02*
G01X-234170Y757423D01*
G01X-177598Y857812D02*
G02X-177600Y813994I-21908J-21908D01*
G01X-234167Y757427D02*
G02X-277983Y757427I-21908J21908D01*
G01X-430707Y910215D02*
G02X-430705Y954030I21910J21906D01*
G01X-374138Y1010597D02*
G02X-330320Y1010602I21912J-21905D01*
G01X-853906Y376663D02*
G01X-910473Y433229D01*
G01X-814309Y337000D02*
G01X-757742Y280434D01*
G01X-753519Y477049D02*
G01X-810086Y533616D01*
G01X-713924Y437385D02*
G01X-657357Y380819D01*
G01X-910467Y477040D02*
G01X-853895Y533612D01*
G01X-657362Y337004D02*
G01X-713933Y280434D01*
G01X-657361Y380822D02*
G02X-657362Y337004I-21908J-21908D01*
G01X-713929Y280437D02*
G02X-757746Y280437I-21908J21908D01*
G01X-910469Y433226D02*
G02X-910467Y477040I21910J21906D01*
G01X-853901Y533607D02*
G02X-810083Y533612I21912J-21905D01*
G01X474862Y628513D02*
G01X418296Y571947D01*
G01X514524Y668111D02*
G01X571091Y724677D01*
G01X374476Y728900D02*
G01X317909Y672333D01*
G01X414140Y768496D02*
G01X470706Y825062D01*
G01X374485Y571952D02*
G01X317913Y628524D01*
G01X514521Y825057D02*
G01X571091Y768487D01*
G01X470703Y825059D02*
G02X514521Y825057I21908J-21908D01*
G01X571087Y768490D02*
G02X571087Y724674I-21908J-21908D01*
G01X418299Y571950D02*
G02X374485Y571952I-21906J21910D01*
G01X317918Y628519D02*
G02X317913Y672337I21905J21912D01*

G04 Rect Start*
G01X1220879Y-478179D02*
G01X1474879Y-478179D01*
G01X1474879Y-1163979D01*
G01X1220879Y-1163979D01*
G01X1220879Y-478179D01*
G04 Rect End*

G04 Circle Start*
G01X-531009Y538772D02*
G03X-505609Y538772I12700J0D01*
G03X-531009Y538772I-12700J0D01*
G54D12*
G01X463692Y102919D02*
G03X478678Y102919I7493J0D01*
G03X463692Y102919I-7493J0D01*
G04 Circle End*

M02*

