G04 Layer: InnerLayer1*
G04 EasyEDA Pro v2.2.39.2, 2025-05-28 23:54:08*
G04 Gerber Generator version 0.3*
G04 Scale: 100 percent, Rotated: No, Reflected: No*
G04 Dimensions in millimeters*
G04 Leading zeros omitted, absolute positions, 4 integers and 5 decimals*
G04 Generated by one-click*
%FSLAX45Y45*%
%MOMM*%
%ADD10C,1.8*%
%ADD11R,1.8X1.8*%
%ADD12R,1.7X1.7*%
%ADD13C,1.7*%
%ADD14C,0.5*%
%ADD15C,0.6107*%
%ADD16C,0.6096*%
G75*


G04 PlaneZone Start*
G36*
G01X1093879Y-1519135D02*
G01X1220460Y-1519109D01*
G02X1170583Y-1522627I-49878J351828D01*
G01X-1166721Y-1522627D01*
G02X-1522067Y-1167281I0J355346D01*
G01X-1522067Y1168410D01*
G02X-1166721Y1523756I355346J0D01*
G01X1170583Y1523756D01*
G02X1525929Y1168410I0J-355346D01*
G01X1525929Y-250552D01*
G01X1525679Y-250343D01*
G01X1159484Y-250418D01*
G01X1093625Y-316381D01*
G01X1093625Y-1518881D01*
G01X1093879Y-1519135D01*
G37*
%LPC*%
G36*
G01X-1395321Y-518227D02*
G03X-1395321Y-749535I0J-115654D01*
G03X-1395321Y-518227I0J115654D01*
G37*
G36*
G01X-1395321Y-772227D02*
G03X-1395321Y-1003535I0J-115654D01*
G03X-1395321Y-772227I0J115654D01*
G37*
G36*
G01X-1395321Y-10227D02*
G03X-1395321Y-241535I0J-115654D01*
G03X-1395321Y-10227I0J115654D01*
G37*
G36*
G01X-1395321Y-264227D02*
G03X-1395321Y-495535I0J-115654D01*
G03X-1395321Y-264227I0J115654D01*
G37*
G36*
G01X-1395321Y497773D02*
G03X-1395321Y266465I0J-115654D01*
G03X-1395321Y497773I0J115654D01*
G37*
G36*
G01X-1395321Y243773D02*
G03X-1395321Y12465I0J-115654D01*
G03X-1395321Y243773I0J115654D01*
G37*
G36*
G01X-1510974Y800119D02*
G03X-1485320Y774465I25654J0D01*
G01X-1305321Y774465D01*
G03X-1279667Y800119I0J25654D01*
G01X-1279667Y980119D01*
G03X-1305321Y1005773I-25654J0D01*
G01X-1485320Y1005773D01*
G03X-1510974Y980119I0J-25654D01*
G01X-1510974Y800119D01*
G37*
G36*
G01X-1395321Y751773D02*
G03X-1395321Y520465I0J-115654D01*
G03X-1395321Y751773I0J115654D01*
G37*
G36*
G01X-1388304Y1245448D02*
G03X-1096996Y1245448I145654J0D01*
G03X-1388304Y1245448I-145654J0D01*
G37*
G36*
G01X-1141321Y-518227D02*
G03X-1141321Y-749535I0J-115654D01*
G03X-1141321Y-518227I0J115654D01*
G37*
G36*
G01X-1141321Y-772227D02*
G03X-1141321Y-1003535I0J-115654D01*
G03X-1141321Y-772227I0J115654D01*
G37*
G36*
G01X-1141321Y-10227D02*
G03X-1141321Y-241535I0J-115654D01*
G03X-1141321Y-10227I0J115654D01*
G37*
G36*
G01X-1141321Y-264227D02*
G03X-1141321Y-495535I0J-115654D01*
G03X-1141321Y-264227I0J115654D01*
G37*
G36*
G01X-1141321Y497773D02*
G03X-1141321Y266465I0J-115654D01*
G03X-1141321Y497773I0J115654D01*
G37*
G36*
G01X-1141321Y243773D02*
G03X-1141321Y12465I0J-115654D01*
G03X-1141321Y243773I0J115654D01*
G37*
G36*
G01X-1141321Y1005773D02*
G03X-1141321Y774465I0J-115654D01*
G03X-1141321Y1005773I0J115654D01*
G37*
G36*
G01X-1141321Y751773D02*
G03X-1141321Y520465I0J-115654D01*
G03X-1141321Y751773I0J115654D01*
G37*
G36*
G01X-771667Y1398119D02*
G03X-1002974Y1398119I-115654J0D01*
G03X-771667Y1398119I115654J0D01*
G37*
G36*
G01X-771667Y1144119D02*
G03X-1002974Y1144119I-115654J0D01*
G03X-771667Y1144119I115654J0D01*
G37*
G36*
G01X-797321Y-1511535D02*
G03X-771667Y-1485881I0J25654D01*
G01X-771667Y-1305881D01*
G03X-797321Y-1280227I-25654J0D01*
G01X-977320Y-1280227D01*
G03X-1002974Y-1305881I0J-25654D01*
G01X-1002974Y-1485881D01*
G03X-977320Y-1511535I25654J0D01*
G01X-797321Y-1511535D01*
G37*
G36*
G01X-1002974Y-1141881D02*
G03X-771667Y-1141881I115654J0D01*
G03X-1002974Y-1141881I-115654J0D01*
G37*
G36*
G01X-985686Y195191D02*
G03X-950964Y125965I46551J-19972D01*
G03X-960657Y40424I21686J-45777D01*
G03X-879713Y69740I31379J39764D01*
G03X-801122Y83731I33829J37702D01*
G03X-833698Y156608I-44762J23711D01*
G03X-834758Y235453I-32329J38995D01*
G03X-911593Y217731I-31270J-39850D01*
G03X-985686Y195191I-27543J-42512D01*
G37*
G36*
G01X-714582Y832314D02*
G03X-620348Y841220I45418J22428D01*
G03X-696568Y897343I-48815J13523D01*
G03X-742547Y925566I-45418J-22428D01*
G03X-826448Y969889I-50239J6471D01*
G03X-792225Y881387I33662J-37851D01*
G03X-714582Y832314I50239J-6471D01*
G37*
G36*
G01X-517667Y1398119D02*
G03X-748974Y1398119I-115654J0D01*
G03X-517667Y1398119I115654J0D01*
G37*
G36*
G01X-517667Y1144119D02*
G03X-748974Y1144119I-115654J0D01*
G03X-517667Y1144119I115654J0D01*
G37*
G36*
G01X-748974Y-1395881D02*
G03X-517667Y-1395881I115654J0D01*
G03X-748974Y-1395881I-115654J0D01*
G37*
G36*
G01X-748974Y-1141881D02*
G03X-517667Y-1141881I115654J0D01*
G03X-748974Y-1141881I-115654J0D01*
G37*
G36*
G01X-617401Y297865D02*
G03X-516093Y297865I50654J0D01*
G03X-617401Y297865I-50654J0D01*
G37*
G36*
G01X-263667Y1398119D02*
G03X-494974Y1398119I-115654J0D01*
G03X-263667Y1398119I115654J0D01*
G37*
G36*
G01X-263667Y1144119D02*
G03X-494974Y1144119I-115654J0D01*
G03X-263667Y1144119I115654J0D01*
G37*
G36*
G01X-494974Y-1395881D02*
G03X-263667Y-1395881I115654J0D01*
G03X-494974Y-1395881I-115654J0D01*
G37*
G36*
G01X-494974Y-1141881D02*
G03X-263667Y-1141881I115654J0D01*
G03X-494974Y-1141881I-115654J0D01*
G37*
G36*
G01X-349113Y-341472D02*
G03X-390400Y-256464I-37060J34531D01*
G03X-397715Y-229579I-50650J657D01*
G03X-421664Y-140656I-32358J38972D01*
G03X-473408Y-216836I-8409J-49951D01*
G03X-487934Y-274983I32358J-38971D01*
G03X-436822Y-306284I46884J19176D01*
G03X-349113Y-341472I50650J-657D01*
G37*
G36*
G01X-410493Y446558D02*
G03X-309185Y446558I50654J0D01*
G03X-410493Y446558I-50654J0D01*
G37*
G36*
G01X-377417Y226387D02*
G03X-293662Y264179I33104J38340D01*
G03X-268484Y352549I-7926J50030D01*
G03X-352239Y314757I-33104J-38340D01*
G03X-377417Y226387I7926J-50030D01*
G37*
G36*
G01X-255600Y792172D02*
G03X-275249Y735247I28680J-41753D01*
G03X-340842Y682066I-15171J-48329D01*
G03X-266310Y642371I50421J4853D01*
G03X-204709Y628694I39390J31848D01*
G03X-177577Y685665I-22212J45524D01*
G03X-120129Y708001I14156J48636D01*
G03X-126782Y769278I-43292J26299D01*
G03X-136026Y862395I-23938J44641D01*
G03X-195416Y790084I-14695J-48476D01*
G03X-255600Y792172I-31504J-39665D01*
G37*
G36*
G01X-324329Y60236D02*
G03X-239729Y108962I35549J36085D01*
G03X-192274Y194282I11906J49235D01*
G03X-276874Y145556I-35549J-36085D01*
G03X-324329Y60236I-11906J-49235D01*
G37*
G36*
G01X-289843Y-154867D02*
G03X-188535Y-154867I50654J0D01*
G03X-289843Y-154867I-50654J0D01*
G37*
G36*
G01X-9667Y1144119D02*
G03X-240974Y1144119I-115654J0D01*
G03X-9667Y1144119I115654J0D01*
G37*
G36*
G01X-240974Y-1395881D02*
G03X-9667Y-1395881I115654J0D01*
G03X-240974Y-1395881I-115654J0D01*
G37*
G36*
G01X-9667Y1398119D02*
G03X-240974Y1398119I-115654J0D01*
G03X-9667Y1398119I115654J0D01*
G37*
G36*
G01X-240974Y-1141881D02*
G03X-9667Y-1141881I115654J0D01*
G03X-240974Y-1141881I-115654J0D01*
G37*
G36*
G01X-176728Y268482D02*
G03X-75420Y268482I50654J0D01*
G03X-176728Y268482I-50654J0D01*
G37*
G36*
G01X27571Y-601996D02*
G03X54720Y-513174I-5771J50324D01*
G03X8168Y-432805I-40781J30046D01*
G03X-18981Y-521627I5771J-50324D01*
G03X27571Y-601996I40781J-30046D01*
G37*
G36*
G01X244333Y1144119D02*
G03X13026Y1144119I-115654J0D01*
G03X244333Y1144119I115654J0D01*
G37*
G36*
G01X13026Y-1395881D02*
G03X244333Y-1395881I115654J0D01*
G03X13026Y-1395881I-115654J0D01*
G37*
G36*
G01X244333Y1398119D02*
G03X13026Y1398119I-115654J0D01*
G03X244333Y1398119I115654J0D01*
G37*
G36*
G01X13026Y-1141881D02*
G03X244333Y-1141881I115654J0D01*
G03X13026Y-1141881I-115654J0D01*
G37*
G36*
G01X78779Y270275D02*
G03X180087Y270275I50654J0D01*
G03X78779Y270275I-50654J0D01*
G37*
G36*
G01X104728Y523180D02*
G03X180828Y471310I49936J-8496D01*
G03X269800Y495094I39036J32280D01*
G03X193700Y546964I-49936J8496D01*
G03X104728Y523180I-39036J-32280D01*
G37*
G36*
G01X137495Y-248979D02*
G03X222167Y-213359I34053J37500D01*
G03X249483Y-125655I-6737J50204D01*
G03X164811Y-161276I-34053J-37500D01*
G03X137495Y-248979I6737J-50204D01*
G37*
G36*
G01X164396Y222747D02*
G03X192533Y135311I34410J-37172D01*
G03X241042Y87082I50598J2382D01*
G03X328635Y59426I50229J6545D01*
G03X293360Y144238I-37364J34201D01*
G03X249404Y187957I-50229J-6545D01*
G03X164396Y222747I-50598J-2382D01*
G37*
G36*
G01X152872Y400211D02*
G03X220920Y337015I47799J-16766D01*
G03X266596Y309977I44816J23609D01*
G03X319350Y242264I47600J-17321D01*
G03X407040Y206149I50629J-1584D01*
G03X364826Y291071I-37060J34531D01*
G03X313336Y343302I-50629J1584D01*
G03X245487Y407054I-47600J17321D01*
G03X152872Y400211I-44816J-23609D01*
G37*
G36*
G01X232511Y-438879D02*
G03X295588Y-370679I16703J47821D01*
G03X322592Y-323603I-23600J44820D01*
G03X353569Y-303418I-10257J49605D01*
G03X426865Y-247287I23965J44626D01*
G03X336300Y-229372I-49330J-11505D01*
G03X261731Y-276254I-23965J-44626D01*
G03X225614Y-346238I10257J-49605D01*
G03X232511Y-438879I23600J-44820D01*
G37*
G36*
G01X228325Y-532281D02*
G03X329633Y-532281I50654J0D01*
G03X228325Y-532281I-50654J0D01*
G37*
G36*
G01X498333Y1398119D02*
G03X267026Y1398119I-115654J0D01*
G03X498333Y1398119I115654J0D01*
G37*
G36*
G01X267026Y-1395881D02*
G03X498333Y-1395881I115654J0D01*
G03X267026Y-1395881I-115654J0D01*
G37*
G36*
G01X498333Y1144119D02*
G03X267026Y1144119I-115654J0D01*
G03X498333Y1144119I115654J0D01*
G37*
G36*
G01X267026Y-1141881D02*
G03X498333Y-1141881I115654J0D01*
G03X267026Y-1141881I-115654J0D01*
G37*
G36*
G01X319325Y551651D02*
G03X420633Y551651I50654J0D01*
G03X319325Y551651I-50654J0D01*
G37*
G36*
G01X789333Y-456174D02*
G01X789079Y-455920D01*
G01X357279Y-455920D01*
G01X357025Y-456174D01*
G01X357025Y-786281D01*
G01X357279Y-786535D01*
G01X789079Y-786535D01*
G01X789333Y-786281D01*
G01X789333Y-456174D01*
G37*
G36*
G01X438516Y-111024D02*
G03X539824Y-111024I50654J0D01*
G03X438516Y-111024I-50654J0D01*
G37*
G36*
G01X752333Y1398119D02*
G03X521026Y1398119I-115654J0D01*
G03X752333Y1398119I115654J0D01*
G37*
G36*
G01X752333Y1144119D02*
G03X521026Y1144119I-115654J0D01*
G03X752333Y1144119I115654J0D01*
G37*
G36*
G01X521026Y-1141881D02*
G03X752333Y-1141881I115654J0D01*
G03X521026Y-1141881I-115654J0D01*
G37*
G36*
G01X521026Y-1395881D02*
G03X752333Y-1395881I115654J0D01*
G03X521026Y-1395881I-115654J0D01*
G37*
G36*
G01X534240Y761849D02*
G03X622511Y727926I50654J0D01*
G03X710782Y761849I37617J33923D01*
G03X622511Y795772I-50654J0D01*
G03X534240Y761849I-37617J-33923D01*
G37*
G36*
G01X763825Y178919D02*
G03X865133Y178919I50654J0D01*
G03X763825Y178919I-50654J0D01*
G37*
G36*
G01X800680Y1513773D02*
G03X775026Y1488119I0J-25654D01*
G01X775026Y1308119D01*
G03X800680Y1282465I25654J0D01*
G01X980679Y1282465D01*
G03X1006333Y1308119I0J25654D01*
G01X1006333Y1488119D01*
G03X980679Y1513773I-25654J0D01*
G01X800680Y1513773D01*
G37*
G36*
G01X1006333Y1144119D02*
G03X775026Y1144119I-115654J0D01*
G03X1006333Y1144119I115654J0D01*
G37*
G36*
G01X775026Y-1141881D02*
G03X1006333Y-1141881I115654J0D01*
G03X775026Y-1141881I-115654J0D01*
G37*
G36*
G01X775026Y-1395881D02*
G03X1006333Y-1395881I115654J0D01*
G03X775026Y-1395881I-115654J0D01*
G37*
G36*
G01X1144679Y779465D02*
G03X1144679Y1000773I0J110654D01*
G03X1144679Y779465I0J-110654D01*
G37*
G36*
G01X1144679Y525465D02*
G03X1144679Y746773I0J110654D01*
G03X1144679Y525465I0J-110654D01*
G37*
G36*
G01X1144679Y17465D02*
G03X1144679Y238773I0J110654D01*
G03X1144679Y17465I0J-110654D01*
G37*
G36*
G01X1144679Y271465D02*
G03X1144679Y492773I0J110654D01*
G03X1144679Y271465I0J-110654D01*
G37*
G36*
G01X1398679Y779465D02*
G03X1398679Y1000773I0J110654D01*
G03X1398679Y779465I0J-110654D01*
G37*
G36*
G01X1398679Y525465D02*
G03X1398679Y746773I0J110654D01*
G03X1398679Y525465I0J-110654D01*
G37*
G36*
G01X1509333Y213119D02*
G03X1483679Y238773I-25654J0D01*
G01X1313680Y238773D01*
G03X1288026Y213119I0J-25654D01*
G01X1288026Y43119D01*
G03X1313680Y17465I25654J0D01*
G01X1483679Y17465D01*
G03X1509333Y43119I0J25654D01*
G01X1509333Y213119D01*
G37*
G36*
G01X1398679Y271465D02*
G03X1398679Y492773I0J110654D01*
G03X1398679Y271465I0J-110654D01*
G37*
%LPD*%
G36*
G01X-1305575Y877419D02*
G02X-1305575Y902819I0J12700D01*
G01X-1279667Y902819D01*
G02X-1279667Y877419I0J-12700D01*
G01X-1305575Y877419D01*
G37*
G36*
G01X-1305575Y623419D02*
G02X-1305575Y648819I0J12700D01*
G01X-1279667Y648819D01*
G02X-1279667Y623419I0J-12700D01*
G01X-1305575Y623419D01*
G37*
G36*
G01X-1305575Y369419D02*
G02X-1305575Y394819I0J12700D01*
G01X-1279667Y394819D01*
G02X-1279667Y369419I0J-12700D01*
G01X-1305575Y369419D01*
G37*
G36*
G01X1229425Y623419D02*
G02X1229425Y648819I0J12700D01*
G01X1255333Y648819D01*
G02X1255333Y623419I0J-12700D01*
G01X1229425Y623419D01*
G37*
G36*
G01X1288026Y623419D02*
G02X1288026Y648819I0J12700D01*
G01X1313934Y648819D01*
G02X1313934Y623419I0J-12700D01*
G01X1288026Y623419D01*
G37*
G36*
G01X1034026Y623419D02*
G02X1034026Y648819I0J12700D01*
G01X1059934Y648819D01*
G02X1059934Y623419I0J-12700D01*
G01X1034026Y623419D01*
G37*
G36*
G01X1483425Y623419D02*
G02X1483425Y648819I0J12700D01*
G01X1509333Y648819D01*
G02X1509333Y623419I0J-12700D01*
G01X1483425Y623419D01*
G37*
G36*
G01X-1408021Y800373D02*
G02X-1382621Y800373I12700J0D01*
G01X-1382621Y774465D01*
G02X-1408021Y774465I-12700J0D01*
G01X-1408021Y800373D01*
G37*
G36*
G01X-1408021Y546373D02*
G02X-1382621Y546373I12700J0D01*
G01X-1382621Y520465D01*
G02X-1408021Y520465I-12700J0D01*
G01X-1408021Y546373D01*
G37*
G36*
G01X-1408021Y292373D02*
G02X-1382621Y292373I12700J0D01*
G01X-1382621Y266465D01*
G02X-1408021Y266465I-12700J0D01*
G01X-1408021Y292373D01*
G37*
G36*
G01X1385979Y551373D02*
G02X1411379Y551373I12700J0D01*
G01X1411379Y525465D01*
G02X1385979Y525465I-12700J0D01*
G01X1385979Y551373D01*
G37*
G36*
G01X1411379Y720865D02*
G02X1385979Y720865I-12700J0D01*
G01X1385979Y746773D01*
G02X1411379Y746773I12700J0D01*
G01X1411379Y720865D01*
G37*
G36*
G01X1131979Y551373D02*
G02X1157379Y551373I12700J0D01*
G01X1157379Y525465D01*
G02X1131979Y525465I-12700J0D01*
G01X1131979Y551373D01*
G37*
G36*
G01X1157379Y720865D02*
G02X1131979Y720865I-12700J0D01*
G01X1131979Y746773D01*
G02X1157379Y746773I12700J0D01*
G01X1157379Y720865D01*
G37*
G36*
G01X-1382621Y979865D02*
G02X-1408021Y979865I-12700J0D01*
G01X-1408021Y1005773D01*
G02X-1382621Y1005773I12700J0D01*
G01X-1382621Y979865D01*
G37*
G36*
G01X-1382621Y725865D02*
G02X-1408021Y725865I-12700J0D01*
G01X-1408021Y751773D01*
G02X-1382621Y751773I12700J0D01*
G01X-1382621Y725865D01*
G37*
G36*
G01X-1382621Y471865D02*
G02X-1408021Y471865I-12700J0D01*
G01X-1408021Y497773D01*
G02X-1382621Y497773I12700J0D01*
G01X-1382621Y471865D01*
G37*
G04 PlaneZone End*

G04 Pad Start*
G54D10*
G01X-887321Y1144119D03*
G01X-887321Y1398119D03*
G01X-633321Y1144119D03*
G01X-633321Y1398119D03*
G01X-379321Y1144119D03*
G01X-379321Y1398119D03*
G01X-125321Y1144119D03*
G01X-125321Y1398119D03*
G01X128679Y1144119D03*
G01X128679Y1398119D03*
G01X382679Y1144119D03*
G01X382679Y1398119D03*
G01X636679Y1144119D03*
G01X636679Y1398119D03*
G01X890679Y1144119D03*
G54D11*
G01X890679Y1398119D03*
G54D10*
G01X-1141321Y-887881D03*
G01X-1395321Y-887881D03*
G01X-1141321Y-633881D03*
G01X-1395321Y-633881D03*
G01X-1141321Y-379881D03*
G01X-1395321Y-379881D03*
G01X-1141321Y-125881D03*
G01X-1395321Y-125881D03*
G01X-1141321Y128119D03*
G01X-1395321Y128119D03*
G01X-1141321Y382119D03*
G01X-1395321Y382119D03*
G01X-1141321Y636119D03*
G01X-1395321Y636119D03*
G01X-1141321Y890119D03*
G54D11*
G01X-1395321Y890119D03*
G54D10*
G01X890679Y-1141881D03*
G01X890679Y-1395881D03*
G01X636679Y-1141881D03*
G01X636679Y-1395881D03*
G01X382679Y-1141881D03*
G01X382679Y-1395881D03*
G01X128679Y-1141881D03*
G01X128679Y-1395881D03*
G01X-125321Y-1141881D03*
G01X-125321Y-1395881D03*
G01X-379321Y-1141881D03*
G01X-379321Y-1395881D03*
G01X-633321Y-1141881D03*
G01X-633321Y-1395881D03*
G01X-887321Y-1141881D03*
G54D11*
G01X-887321Y-1395881D03*
G54D12*
G01X1398679Y128119D03*
G54D13*
G01X1144679Y128119D03*
G01X1398679Y382119D03*
G01X1144679Y382119D03*
G01X1398679Y636119D03*
G01X1144679Y636119D03*
G01X1398679Y890119D03*
G01X1144679Y890119D03*
G04 Pad End*

G04 Via Start*
G54D14*
G01X660128Y761849D03*
G01X584894Y761849D03*
G01X489170Y-111024D03*
G01X789079Y-113181D03*
G01X789079Y-205135D03*
G01X789079Y-299269D03*
G01X789079Y-405281D03*
G01X789079Y-513390D03*
G01X789079Y-633881D03*
G01X789079Y-758668D03*
G01X750979Y-811681D03*
G01X662079Y-811681D03*
G01X560479Y-811681D03*
G01X454911Y-811681D03*
G01X357279Y-811681D03*
G01X344579Y-719556D03*
G01X344579Y-609727D03*
G01X344579Y-496817D03*
G01X458879Y-417981D03*
G01X694223Y-445413D03*
G01X-866027Y195603D03*
G01X-845884Y107441D03*
G01X-939135Y175219D03*
G01X-929278Y80188D03*
G01X-150721Y813919D03*
G01X-226921Y674219D03*
G01X-226921Y750419D03*
G01X-290421Y686919D03*
G01X-163421Y734300D03*
G01X278979Y-532281D03*
G01X-359839Y446558D03*
G01X471579Y572619D03*
G01X369979Y551651D03*
G01X154664Y514684D03*
G01X219864Y503590D03*
G01X200671Y383445D03*
G01X129433Y270275D03*
G01X265736Y360623D03*
G01X314196Y292655D03*
G01X198806Y185575D03*
G01X243130Y137693D03*
G01X-126074Y268482D03*
G01X-669164Y854742D03*
G01X-741986Y874915D03*
G01X-792786Y932038D03*
G01X-301588Y314209D03*
G01X-344313Y264727D03*
G01X369979Y240680D03*
G01X291271Y93627D03*
G01X814479Y178919D03*
G01X-566747Y297865D03*
G01X-288780Y96321D03*
G01X-227823Y158197D03*
G01X-441050Y-255807D03*
G01X-386172Y-306941D03*
G01X-430073Y-190607D03*
G01X-239189Y-154867D03*
G01X-564517Y-385498D03*
G01X-900021Y-379881D03*
G01X-535471Y-9365D03*
G01X-912721Y877419D03*
G01X-963521Y509119D03*
G01X-418664Y505382D03*
G01X-772253Y-624932D03*
G01X-925421Y-887881D03*
G01X945501Y735462D03*
G01X928779Y483719D03*
G01X901296Y615058D03*
G01X-265021Y991719D03*
G01X-112621Y661519D03*
G01X-188821Y585319D03*
G01X1055779Y-417981D03*
G01X1055779Y-532281D03*
G01X1055779Y-646581D03*
G01X1055779Y-748181D03*
G01X1055779Y-875181D03*
G01X1054070Y-1005470D03*
G01X1462179Y-214781D03*
G01X1325236Y-85565D03*
G01X1233579Y-163981D03*
G01X1119279Y-100481D03*
G01X1030379Y-36981D03*
G01X928779Y64619D03*
G01X966879Y-456081D03*
G01X966879Y-608481D03*
G01X877979Y-722781D03*
G01X890679Y-290981D03*
G01X890679Y-532281D03*
G01X1443513Y-83577D03*
G01X1220879Y-75081D03*
G01X1335179Y-214781D03*
G01X966879Y-773581D03*
G01X-1014321Y-1078381D03*
G01X-192438Y949516D03*
G01X789079Y572619D03*
G01X776379Y712319D03*
G01X21800Y-551672D03*
G01X13940Y-483129D03*
G01X377535Y-258792D03*
G01X312335Y-273998D03*
G01X215430Y-163155D03*
G01X171548Y-211480D03*
G01X271988Y-325858D03*
G01X249214Y-391058D03*
G01X-161641Y-813670D03*
G01X-409487Y-872390D03*
G01X-321665Y-749489D03*
G01X1060350Y-1379026D03*
G54D16*
G01X-69049Y-69592D03*
G01X1661Y-140302D03*
G01X72372Y71793D03*
G01X143065Y1101D03*
G01X-139760Y1119D03*
G01X1661Y142540D03*
G01X1661Y1119D03*
G01X-69049Y71758D03*
G01X72372Y-69592D03*
G04 Via End*

M02*

