G04 Layer: BottomSolderMaskLayer*
G04 EasyEDA Pro v2.2.39.2, 2025-05-28 23:54:08*
G04 Gerber Generator version 0.3*
G04 Scale: 100 percent, Rotated: No, Reflected: No*
G04 Dimensions in millimeters*
G04 Leading zeros omitted, absolute positions, 4 integers and 5 decimals*
G04 Generated by one-click*
%FSLAX45Y45*%
%MOMM*%
%AMRoundRect*1,1,$1,$2,$3*1,1,$1,$4,$5*1,1,$1,0-$2,0-$3*1,1,$1,0-$4,0-$5*20,1,$1,$2,$3,$4,$5,0*20,1,$1,$4,$5,0-$2,0-$3,0*20,1,$1,0-$2,0-$3,0-$4,0-$5,0*20,1,$1,0-$4,0-$5,$2,$3,0*4,1,4,$2,$3,$4,$5,0-$2,0-$3,0-$4,0-$5,$2,$3,0*%
%ADD10C,1.902*%
%ADD11RoundRect,0.09681X-0.90259X0.90259X0.90259X0.90259*%
%ADD12RoundRect,0.09681X-0.90259X-0.90259X-0.90259X0.90259*%
%ADD13RoundRect,0.09654X-0.85273X-0.85273X-0.85273X0.85273*%
%ADD14C,1.802*%
%ADD15C,0.3569*%
G75*


G04 Pad Start*
G54D10*
G01X-887321Y1144119D03*
G01X-887321Y1398119D03*
G01X-633321Y1144119D03*
G01X-633321Y1398119D03*
G01X-379321Y1144119D03*
G01X-379321Y1398119D03*
G01X-125321Y1144119D03*
G01X-125321Y1398119D03*
G01X128679Y1144119D03*
G01X128679Y1398119D03*
G01X382679Y1144119D03*
G01X382679Y1398119D03*
G01X636679Y1144119D03*
G01X636679Y1398119D03*
G01X890679Y1144119D03*
G54D11*
G01X890679Y1398119D03*
G54D10*
G01X-1141321Y-887881D03*
G01X-1395321Y-887881D03*
G01X-1141321Y-633881D03*
G01X-1395321Y-633881D03*
G01X-1141321Y-379881D03*
G01X-1395321Y-379881D03*
G01X-1141321Y-125881D03*
G01X-1395321Y-125881D03*
G01X-1141321Y128119D03*
G01X-1395321Y128119D03*
G01X-1141321Y382119D03*
G01X-1395321Y382119D03*
G01X-1141321Y636119D03*
G01X-1395321Y636119D03*
G01X-1141321Y890119D03*
G54D12*
G01X-1395321Y890119D03*
G54D10*
G01X890679Y-1141881D03*
G01X890679Y-1395881D03*
G01X636679Y-1141881D03*
G01X636679Y-1395881D03*
G01X382679Y-1141881D03*
G01X382679Y-1395881D03*
G01X128679Y-1141881D03*
G01X128679Y-1395881D03*
G01X-125321Y-1141881D03*
G01X-125321Y-1395881D03*
G01X-379321Y-1141881D03*
G01X-379321Y-1395881D03*
G01X-633321Y-1141881D03*
G01X-633321Y-1395881D03*
G01X-887321Y-1141881D03*
G54D11*
G01X-887321Y-1395881D03*
G54D13*
G01X1398679Y128119D03*
G54D14*
G01X1144679Y128119D03*
G01X1398679Y382119D03*
G01X1144679Y382119D03*
G01X1398679Y636119D03*
G01X1144679Y636119D03*
G01X1398679Y890119D03*
G01X1144679Y890119D03*
G04 Pad End*

M02*

