G04 Layer: TopLayer*
G04 EasyEDA Pro v2.2.39.2, 2025-05-28 23:54:08*
G04 Gerber Generator version 0.3*
G04 Scale: 100 percent, Rotated: No, Reflected: No*
G04 Dimensions in millimeters*
G04 Leading zeros omitted, absolute positions, 4 integers and 5 decimals*
G04 Generated by one-click*
%FSLAX45Y45*%
%MOMM*%
%AMRect*21,1,$1,$2,0,0,$3*%
%AMRoundRect*1,1,$1,$2,$3*1,1,$1,$4,$5*1,1,$1,0-$2,0-$3*1,1,$1,0-$4,0-$5*20,1,$1,$2,$3,$4,$5,0*20,1,$1,$4,$5,0-$2,0-$3,0*20,1,$1,0-$2,0-$3,0-$4,0-$5,0*20,1,$1,0-$4,0-$5,$2,$3,0*4,1,4,$2,$3,$4,$5,0-$2,0-$3,0-$4,0-$5,$2,$3,0*%
%ADD10C,0.2032*%
%ADD11C,0.254*%
%ADD12Rect,0.79009X0.54X45.0*%
%ADD13R,0.54X0.79009*%
%ADD14Rect,0.79009X0.54X135.0*%
%ADD15R,0.79009X0.54*%
%ADD16Rect,0.7963X0.54X140.0*%
%ADD17Rect,0.79009X0.54X140.0*%
%ADD18RoundRect,0.162X0.08842X-0.35571X-0.35571X0.08842*%
%ADD19RoundRect,0.27X-0.135X-0.26005X-0.135X0.26005*%
%ADD20RoundRect,0.27X-0.27934X-0.08842X0.08842X0.27934*%
%ADD21RoundRect,0.27X-0.27057X-0.11243X0.06374X0.28598*%
%ADD22Rect,1.0X0.6X45.0*%
%ADD23R,2.0X1.0*%
%ADD24Rect,0.665X0.2X45.0*%
%ADD25Rect,0.2X0.665X45.0*%
%ADD26Rect,3.99999X3.99999X45.0*%
%ADD27R,1.2X1.1*%
%ADD28RoundRect,0.162X-0.189X-0.20183X-0.189X0.20183*%
%ADD29C,1.8*%
%ADD30R,1.8X1.8*%
%ADD31R,1.7X1.7*%
%ADD32C,1.7*%
%ADD33Rect,0.8X0.9X135.0*%
%ADD34Rect,0.8X0.9X45.0*%
%ADD35C,0.5*%
%ADD36C,0.6096*%
%ADD37C,0.508*%
%ADD38C,0.35052*%
G75*


G04 Copper Start*
G36*
G01X-576374Y428034D02*
G01X-811121Y193287D01*
G01X-885652Y267819D01*
G01X-655568Y497903D01*
G01X-646243Y497903D01*
G01X-576374Y428034D01*
G37*
G36*
G01X-496161Y602831D02*
G01X-496161Y604345D01*
G01X-433390Y667116D01*
G01X-426902Y675989D01*
G01X-423411Y686411D01*
G01X-423245Y697401D01*
G01X-426420Y707923D01*
G01X-426420Y750156D01*
G01X-423561Y753015D01*
G01X-414211Y754195D01*
G01X-405493Y757774D01*
G01X-398011Y763503D01*
G01X-359827Y801688D01*
G01X-354097Y809170D01*
G01X-350519Y817888D01*
G01X-349338Y827238D01*
G01X-295548Y881028D01*
G01X-227276Y812757D01*
G01X-464140Y575893D01*
G01X-466217Y572887D01*
G01X-496161Y602831D01*
G37*
G36*
G01X-966061Y49379D02*
G01X-966061Y186261D01*
G01X-887871Y264451D01*
G01X-809709Y186288D01*
G01X-809709Y105799D01*
G01X-866129Y49379D01*
G01X-966061Y49379D01*
G37*
G36*
G01X-157583Y702466D02*
G01X-165478Y691592D01*
G01X-170792Y679250D01*
G01X-173266Y666042D01*
G01X-193029Y646279D01*
G01X-342709Y646279D01*
G01X-370649Y674219D01*
G01X-286751Y758117D01*
G01X-284549Y761413D01*
G01X-283775Y765301D01*
G01X-283775Y880258D01*
G01X-167928Y880258D01*
G01X-122781Y835110D01*
G01X-122781Y721478D01*
G01X-135700Y717783D01*
G01X-147493Y711341D01*
G01X-157583Y702466D01*
G37*
G36*
G01X-1511907Y-840587D02*
G01X-1511907Y-681176D01*
G01X-1502074Y-700460D01*
G01X-1489082Y-717773D01*
G01X-1473314Y-732604D01*
G01X-1455237Y-744512D01*
G01X-1435387Y-753145D01*
G01X-1414351Y-758247D01*
G01X-1392751Y-759669D01*
G01X-1371227Y-757367D01*
G01X-1350417Y-751409D01*
G01X-1330936Y-741972D01*
G01X-1313361Y-729336D01*
G01X-1298211Y-713874D01*
G01X-1285937Y-696045D01*
G01X-1276900Y-676375D01*
G01X-1271369Y-655447D01*
G01X-1269507Y-633881D01*
G01X-1271369Y-612315D01*
G01X-1276900Y-591387D01*
G01X-1285937Y-571717D01*
G01X-1298211Y-553888D01*
G01X-1313361Y-538426D01*
G01X-1330936Y-525790D01*
G01X-1350417Y-516353D01*
G01X-1371227Y-510396D01*
G01X-1392751Y-508094D01*
G01X-1414351Y-509515D01*
G01X-1435387Y-514618D01*
G01X-1455237Y-523251D01*
G01X-1473314Y-535159D01*
G01X-1489082Y-549989D01*
G01X-1502074Y-567302D01*
G01X-1511907Y-586587D01*
G01X-1511907Y-427176D01*
G01X-1502074Y-446460D01*
G01X-1489082Y-463773D01*
G01X-1473314Y-478604D01*
G01X-1455237Y-490512D01*
G01X-1435387Y-499145D01*
G01X-1414351Y-504247D01*
G01X-1392751Y-505669D01*
G01X-1371227Y-503367D01*
G01X-1350417Y-497409D01*
G01X-1330936Y-487972D01*
G01X-1313361Y-475336D01*
G01X-1298211Y-459874D01*
G01X-1285937Y-442045D01*
G01X-1276900Y-422375D01*
G01X-1271369Y-401447D01*
G01X-1269507Y-379881D01*
G01X-1271369Y-358315D01*
G01X-1276900Y-337387D01*
G01X-1285937Y-317717D01*
G01X-1298211Y-299888D01*
G01X-1313361Y-284426D01*
G01X-1330936Y-271790D01*
G01X-1350417Y-262353D01*
G01X-1371227Y-256396D01*
G01X-1392751Y-254094D01*
G01X-1414351Y-255515D01*
G01X-1435387Y-260618D01*
G01X-1455237Y-269251D01*
G01X-1473314Y-281159D01*
G01X-1489082Y-295989D01*
G01X-1502074Y-313302D01*
G01X-1511907Y-332587D01*
G01X-1511907Y-173176D01*
G01X-1502074Y-192460D01*
G01X-1489082Y-209773D01*
G01X-1473314Y-224604D01*
G01X-1455237Y-236512D01*
G01X-1435387Y-245145D01*
G01X-1414351Y-250247D01*
G01X-1392751Y-251669D01*
G01X-1371227Y-249367D01*
G01X-1350417Y-243409D01*
G01X-1330936Y-233972D01*
G01X-1313361Y-221336D01*
G01X-1298211Y-205874D01*
G01X-1285937Y-188045D01*
G01X-1276900Y-168375D01*
G01X-1271369Y-147447D01*
G01X-1269507Y-125881D01*
G01X-1271369Y-104315D01*
G01X-1276900Y-83387D01*
G01X-1285937Y-63717D01*
G01X-1298211Y-45888D01*
G01X-1313361Y-30426D01*
G01X-1330936Y-17790D01*
G01X-1350417Y-8353D01*
G01X-1371227Y-2396D01*
G01X-1392751Y-94D01*
G01X-1414351Y-1515D01*
G01X-1435387Y-6618D01*
G01X-1455237Y-15251D01*
G01X-1473314Y-27159D01*
G01X-1489082Y-41989D01*
G01X-1502074Y-59302D01*
G01X-1511907Y-78587D01*
G01X-1511907Y80824D01*
G01X-1502074Y61540D01*
G01X-1489082Y44227D01*
G01X-1473314Y29396D01*
G01X-1455237Y17488D01*
G01X-1435387Y8855D01*
G01X-1414351Y3753D01*
G01X-1392751Y2331D01*
G01X-1371227Y4633D01*
G01X-1350417Y10591D01*
G01X-1330936Y20028D01*
G01X-1313361Y32664D01*
G01X-1298211Y48126D01*
G01X-1285937Y65955D01*
G01X-1276900Y85625D01*
G01X-1271369Y106553D01*
G01X-1269507Y128119D01*
G01X-1271369Y149685D01*
G01X-1276900Y170613D01*
G01X-1285937Y190283D01*
G01X-1298211Y208112D01*
G01X-1313361Y223574D01*
G01X-1330936Y236210D01*
G01X-1350417Y245647D01*
G01X-1371227Y251604D01*
G01X-1392751Y253906D01*
G01X-1414351Y252485D01*
G01X-1435387Y247382D01*
G01X-1455237Y238749D01*
G01X-1473314Y226841D01*
G01X-1489082Y212011D01*
G01X-1502074Y194698D01*
G01X-1511907Y175413D01*
G01X-1511907Y334824D01*
G01X-1502074Y315540D01*
G01X-1489082Y298227D01*
G01X-1473314Y283396D01*
G01X-1455237Y271488D01*
G01X-1435387Y262855D01*
G01X-1414351Y257753D01*
G01X-1392751Y256331D01*
G01X-1371227Y258633D01*
G01X-1350417Y264591D01*
G01X-1330936Y274028D01*
G01X-1313361Y286664D01*
G01X-1298211Y302126D01*
G01X-1285937Y319955D01*
G01X-1276900Y339625D01*
G01X-1271369Y360553D01*
G01X-1269507Y382119D01*
G01X-1267134Y382119D01*
G01X-1265223Y360272D01*
G01X-1259547Y339088D01*
G01X-1250279Y319212D01*
G01X-1237700Y301247D01*
G01X-1222192Y285740D01*
G01X-1204227Y273161D01*
G01X-1184351Y263893D01*
G01X-1163168Y258216D01*
G01X-1141321Y256305D01*
G01X-1119473Y258216D01*
G01X-1098290Y263893D01*
G01X-1078414Y273161D01*
G01X-1060449Y285740D01*
G01X-1044942Y301247D01*
G01X-1032363Y319212D01*
G01X-1023094Y339088D01*
G01X-1017418Y360272D01*
G01X-1015507Y382119D01*
G01X-1017418Y403966D01*
G01X-1023094Y425150D01*
G01X-1032363Y445026D01*
G01X-1044942Y462990D01*
G01X-1060449Y478498D01*
G01X-1078414Y491077D01*
G01X-1098290Y500345D01*
G01X-1119473Y506021D01*
G01X-1141321Y507933D01*
G01X-1141321Y507933D01*
G01X-1163168Y506021D01*
G01X-1184351Y500345D01*
G01X-1204227Y491077D01*
G01X-1222192Y478498D01*
G01X-1237700Y462990D01*
G01X-1250279Y445026D01*
G01X-1259547Y425150D01*
G01X-1265223Y403966D01*
G01X-1267134Y382119D01*
G01X-1269507Y382119D01*
G01X-1271369Y403685D01*
G01X-1276900Y424613D01*
G01X-1285937Y444283D01*
G01X-1298211Y462112D01*
G01X-1313361Y477574D01*
G01X-1330936Y490210D01*
G01X-1350417Y499647D01*
G01X-1371227Y505604D01*
G01X-1392751Y507906D01*
G01X-1414351Y506485D01*
G01X-1435387Y501382D01*
G01X-1455237Y492749D01*
G01X-1473314Y480841D01*
G01X-1489082Y466011D01*
G01X-1502074Y448698D01*
G01X-1511907Y429413D01*
G01X-1511907Y588824D01*
G01X-1502074Y569540D01*
G01X-1489082Y552227D01*
G01X-1473314Y537396D01*
G01X-1455237Y525488D01*
G01X-1435387Y516855D01*
G01X-1414351Y511753D01*
G01X-1392751Y510331D01*
G01X-1371227Y512633D01*
G01X-1350417Y518591D01*
G01X-1330936Y528028D01*
G01X-1313361Y540664D01*
G01X-1298211Y556126D01*
G01X-1285937Y573955D01*
G01X-1276900Y593625D01*
G01X-1271369Y614553D01*
G01X-1269507Y636119D01*
G01X-1269507Y636119D01*
G01X-1267134Y636119D01*
G01X-1265223Y614272D01*
G01X-1259547Y593088D01*
G01X-1250279Y573212D01*
G01X-1237700Y555247D01*
G01X-1222192Y539740D01*
G01X-1204227Y527161D01*
G01X-1184351Y517893D01*
G01X-1163168Y512216D01*
G01X-1141321Y510305D01*
G01X-1119473Y512216D01*
G01X-1098290Y517893D01*
G01X-1078414Y527161D01*
G01X-1060449Y539740D01*
G01X-1044942Y555247D01*
G01X-1032363Y573212D01*
G01X-1023094Y593088D01*
G01X-1017418Y614272D01*
G01X-1015507Y636119D01*
G01X-1017418Y657966D01*
G01X-1023094Y679150D01*
G01X-1032363Y699026D01*
G01X-1044942Y716990D01*
G01X-1060449Y732498D01*
G01X-1078414Y745077D01*
G01X-1098290Y754345D01*
G01X-1119473Y760021D01*
G01X-1141321Y761933D01*
G01X-1141321Y761933D01*
G01X-1163168Y760021D01*
G01X-1184351Y754345D01*
G01X-1204227Y745077D01*
G01X-1222192Y732498D01*
G01X-1237700Y716990D01*
G01X-1250279Y699026D01*
G01X-1259547Y679150D01*
G01X-1265223Y657966D01*
G01X-1267134Y636119D01*
G01X-1269507Y636119D01*
G01X-1271369Y657685D01*
G01X-1276900Y678613D01*
G01X-1285937Y698283D01*
G01X-1298211Y716112D01*
G01X-1313361Y731574D01*
G01X-1330936Y744210D01*
G01X-1350417Y753647D01*
G01X-1371227Y759604D01*
G01X-1392751Y761906D01*
G01X-1414351Y760485D01*
G01X-1435387Y755382D01*
G01X-1455237Y746749D01*
G01X-1473314Y734841D01*
G01X-1489082Y720011D01*
G01X-1502074Y702698D01*
G01X-1511907Y683413D01*
G01X-1511907Y776123D01*
G01X-1504275Y769732D01*
G01X-1495178Y765689D01*
G01X-1485320Y764305D01*
G01X-1305321Y764305D01*
G01X-1294254Y766058D01*
G01X-1284270Y771145D01*
G01X-1276347Y779068D01*
G01X-1271260Y789052D01*
G01X-1269507Y800119D01*
G01X-1269507Y890119D01*
G01X-1267134Y890119D01*
G01X-1265223Y868272D01*
G01X-1259547Y847088D01*
G01X-1250279Y827212D01*
G01X-1237700Y809247D01*
G01X-1222192Y793740D01*
G01X-1204227Y781161D01*
G01X-1184351Y771893D01*
G01X-1163168Y766216D01*
G01X-1141321Y764305D01*
G01X-1119473Y766216D01*
G01X-1098290Y771893D01*
G01X-1078414Y781161D01*
G01X-1060449Y793740D01*
G01X-1044942Y809247D01*
G01X-1032363Y827212D01*
G01X-1023094Y847088D01*
G01X-1017418Y868272D01*
G01X-1015507Y890119D01*
G01X-1017418Y911966D01*
G01X-1023094Y933150D01*
G01X-1032363Y953026D01*
G01X-1044942Y970990D01*
G01X-1060449Y986498D01*
G01X-1078414Y999077D01*
G01X-1098290Y1008345D01*
G01X-1119473Y1014021D01*
G01X-1141321Y1015933D01*
G01X-1141321Y1015933D01*
G01X-1163168Y1014021D01*
G01X-1184351Y1008345D01*
G01X-1204227Y999077D01*
G01X-1222192Y986498D01*
G01X-1237700Y970990D01*
G01X-1250279Y953026D01*
G01X-1259547Y933150D01*
G01X-1265223Y911966D01*
G01X-1267134Y890119D01*
G01X-1269507Y890119D01*
G01X-1269507Y980119D01*
G01X-1271260Y991186D01*
G01X-1276347Y1001170D01*
G01X-1284270Y1009093D01*
G01X-1294254Y1014180D01*
G01X-1305321Y1015933D01*
G01X-1485320Y1015933D01*
G01X-1495178Y1014549D01*
G01X-1504275Y1010506D01*
G01X-1511907Y1004115D01*
G01X-1511907Y1168410D01*
G01X-1510016Y1204492D01*
G01X-1504364Y1240178D01*
G01X-1502952Y1245448D01*
G01X-1398464Y1245448D01*
G01X-1396546Y1221074D01*
G01X-1390838Y1197299D01*
G01X-1381481Y1174710D01*
G01X-1368706Y1153863D01*
G01X-1352827Y1135271D01*
G01X-1334235Y1119392D01*
G01X-1313388Y1106617D01*
G01X-1290799Y1097260D01*
G01X-1267025Y1091553D01*
G01X-1242650Y1089634D01*
G01X-1218275Y1091553D01*
G01X-1194501Y1097260D01*
G01X-1171912Y1106617D01*
G01X-1151065Y1119392D01*
G01X-1132473Y1135271D01*
G01X-1117372Y1152953D01*
G01X-1012824Y1152953D01*
G01X-1012487Y1131371D01*
G01X-1008466Y1110165D01*
G01X-1000880Y1089958D01*
G01X-989951Y1071345D01*
G01X-976002Y1054874D01*
G01X-959443Y1041029D01*
G01X-940762Y1030219D01*
G01X-920507Y1022761D01*
G01X-899276Y1018874D01*
G01X-877693Y1018674D01*
G01X-863395Y1004376D01*
G01X-854202Y993474D01*
G01X-846983Y981175D01*
G01X-841946Y967834D01*
G01X-849375Y954305D01*
G01X-853159Y939341D01*
G01X-853053Y923907D01*
G01X-849066Y908997D01*
G01X-841453Y895571D01*
G01X-830705Y884493D01*
G01X-817515Y876478D01*
G01X-802732Y872042D01*
G01X-800300Y857658D01*
G01X-794513Y844268D01*
G01X-785703Y832640D01*
G01X-774377Y823445D01*
G01X-761188Y817212D01*
G01X-746894Y814300D01*
G01X-732317Y814875D01*
G01X-718297Y818905D01*
G01X-708265Y808165D01*
G01X-695949Y800145D01*
G01X-682070Y795314D01*
G01X-667436Y793953D01*
G01X-652904Y796142D01*
G01X-639321Y801754D01*
G01X-627481Y810461D01*
G01X-618075Y821753D01*
G01X-611653Y834973D01*
G01X-608590Y849346D01*
G01X-608528Y849894D01*
G01X-436684Y1021738D01*
G01X-434210Y1021986D01*
G01X-430803Y1022102D01*
G01X-420838Y1021773D01*
G01X-397289Y1019595D01*
G01X-376039Y1018348D01*
G01X-439085Y955302D01*
G01X-445113Y947289D01*
G01X-448683Y937919D01*
G01X-449515Y927926D01*
G01X-447545Y918094D01*
G01X-457694Y914575D01*
G01X-466343Y908204D01*
G01X-504527Y870020D01*
G01X-511242Y860700D01*
G01X-514661Y849733D01*
G01X-539407Y849733D01*
G01X-552826Y848244D01*
G01X-565593Y843849D01*
G01X-577086Y836762D01*
G01X-585997Y833182D01*
G01X-593637Y827364D01*
G01X-664347Y756653D01*
G01X-664347Y756653D01*
G01X-670934Y747588D01*
G01X-674396Y736931D01*
G01X-674396Y725726D01*
G01X-670934Y715070D01*
G01X-664347Y706004D01*
G01X-621921Y663578D01*
G01X-614707Y658005D01*
G01X-606320Y654433D01*
G01X-602748Y646046D01*
G01X-597175Y638832D01*
G01X-554749Y596406D01*
G01X-548101Y591171D01*
G01X-540410Y587643D01*
G01X-536881Y579949D01*
G01X-531645Y573298D01*
G01X-482280Y523933D01*
G01X-473076Y517277D01*
G01X-462251Y513837D01*
G01X-450893Y513960D01*
G01X-440145Y517634D01*
G01X-431088Y524489D01*
G01X-424632Y533835D01*
G01X-421429Y544733D01*
G01X-366217Y599944D01*
G01X-362736Y603988D01*
G01X-355038Y601238D01*
G01X-346917Y600305D01*
G01X-188821Y600305D01*
G01X-179551Y601525D01*
G01X-170914Y605103D01*
G01X-163496Y610795D01*
G01X-87296Y686995D01*
G01X-81605Y694412D01*
G01X-78027Y703050D01*
G01X-76807Y712319D01*
G01X-76807Y839319D01*
G01X-78027Y848588D01*
G01X-81605Y857226D01*
G01X-87296Y864643D01*
G01X-138395Y915742D01*
G01X-145813Y921434D01*
G01X-154450Y925011D01*
G01X-163720Y926232D01*
G01X-234291Y926232D01*
G01X-242022Y929258D01*
G01X-250241Y930422D01*
G01X-258508Y929663D01*
G01X-258010Y941455D01*
G01X-261372Y952768D01*
G01X-268228Y962374D01*
G01X-324796Y1018942D01*
G01X-329741Y1023068D01*
G01X-335344Y1026241D01*
G01X-315707Y1035572D01*
G01X-297969Y1048145D01*
G01X-282660Y1063584D01*
G01X-270239Y1081427D01*
G01X-261074Y1101143D01*
G01X-255441Y1122142D01*
G01X-253507Y1143798D01*
G01X-255330Y1165463D01*
G01X-260856Y1186490D01*
G01X-269920Y1206253D01*
G01X-282250Y1224160D01*
G01X-297480Y1239676D01*
G01X-315153Y1252339D01*
G01X-334743Y1261771D01*
G01X-355663Y1267689D01*
G01X-377291Y1269916D01*
G01X-398978Y1268387D01*
G01X-420079Y1263148D01*
G01X-439963Y1254353D01*
G01X-458035Y1242267D01*
G01X-473758Y1227250D01*
G01X-486659Y1209750D01*
G01X-496356Y1190291D01*
G01X-502557Y1169452D01*
G01X-505079Y1147857D01*
G01X-503845Y1126151D01*
G01X-501666Y1102601D01*
G01X-501337Y1092637D01*
G01X-501453Y1089230D01*
G01X-501701Y1086755D01*
G01X-609157Y979299D01*
G01X-606856Y984696D01*
G01X-604073Y990410D01*
G01X-601284Y995437D01*
G01X-598704Y999540D01*
G01X-592370Y1008014D01*
G01X-585392Y1015720D01*
G01X-576941Y1023941D01*
G01X-566900Y1033220D01*
G01X-566654Y1033450D01*
G01X-555431Y1044019D01*
G01X-554516Y1044912D01*
G01X-545619Y1053910D01*
G01X-530919Y1071023D01*
G01X-519510Y1090487D01*
G01X-511762Y1111675D01*
G01X-507922Y1133907D01*
G01X-508114Y1156467D01*
G01X-512332Y1178629D01*
G01X-520441Y1199682D01*
G01X-532179Y1218949D01*
G01X-547169Y1235809D01*
G01X-564930Y1249721D01*
G01X-584890Y1260238D01*
G01X-606407Y1267020D01*
G01X-628789Y1269851D01*
G01X-651317Y1268639D01*
G01X-673266Y1263423D01*
G01X-693931Y1254371D01*
G01X-712647Y1241773D01*
G01X-728813Y1226036D01*
G01X-741907Y1207664D01*
G01X-751510Y1187250D01*
G01X-757313Y1165448D01*
G01X-759129Y1142961D01*
G01X-756900Y1120511D01*
G01X-750696Y1098819D01*
G01X-740719Y1078585D01*
G01X-727288Y1060458D01*
G01X-711061Y1041575D01*
G01X-703370Y1032058D01*
G01X-700703Y1028344D01*
G01X-698508Y1024894D01*
G01X-696934Y1021971D01*
G01X-695921Y1019609D01*
G01X-695355Y1017774D01*
G01X-695094Y1016327D01*
G01X-695031Y1015007D01*
G01X-695165Y1013464D01*
G01X-695632Y1011359D01*
G01X-696979Y1007569D01*
G01X-707273Y986559D01*
G01X-719729Y966754D01*
G01X-734208Y948375D01*
G01X-739357Y961084D01*
G01X-747224Y972316D01*
G01X-747494Y972648D01*
G01X-748617Y974960D01*
G01X-749830Y978515D01*
G01X-751119Y983606D01*
G01X-757414Y1005074D01*
G01X-766380Y1025569D01*
G01X-777873Y1044763D01*
G01X-791707Y1062344D01*
G01X-779137Y1079890D01*
G01X-769750Y1099326D01*
G01X-763824Y1120081D01*
G01X-761533Y1141543D01*
G01X-762944Y1163081D01*
G01X-768015Y1184061D01*
G01X-776598Y1203865D01*
G01X-788439Y1221911D01*
G01X-803191Y1237667D01*
G01X-820418Y1250670D01*
G01X-839615Y1260537D01*
G01X-860216Y1266978D01*
G01X-881614Y1269803D01*
G01X-903180Y1268929D01*
G01X-924280Y1264382D01*
G01X-944292Y1256295D01*
G01X-962627Y1244906D01*
G01X-978745Y1230551D01*
G01X-992173Y1213653D01*
G01X-1002515Y1194708D01*
G01X-1009467Y1174274D01*
G01X-1012824Y1152953D01*
G01X-1117372Y1152953D01*
G01X-1116594Y1153863D01*
G01X-1103819Y1174710D01*
G01X-1094462Y1197299D01*
G01X-1088754Y1221074D01*
G01X-1086836Y1245448D01*
G01X-1088754Y1269823D01*
G01X-1094462Y1293598D01*
G01X-1103819Y1316186D01*
G01X-1116594Y1337034D01*
G01X-1132473Y1355626D01*
G01X-1151065Y1371505D01*
G01X-1171912Y1384280D01*
G01X-1194501Y1393636D01*
G01X-1218275Y1399344D01*
G01X-1242650Y1401262D01*
G01X-1267025Y1399344D01*
G01X-1290799Y1393636D01*
G01X-1313388Y1384280D01*
G01X-1334235Y1371505D01*
G01X-1352827Y1355626D01*
G01X-1368706Y1337034D01*
G01X-1381481Y1316186D01*
G01X-1390838Y1293598D01*
G01X-1396546Y1269823D01*
G01X-1398464Y1245448D01*
G01X-1398464Y1245448D01*
G01X-1502952Y1245448D01*
G01X-1495012Y1275079D01*
G01X-1482064Y1308810D01*
G01X-1465661Y1341003D01*
G01X-1445982Y1371305D01*
G01X-1423244Y1399385D01*
G01X-1397695Y1424933D01*
G01X-1369616Y1447672D01*
G01X-1339314Y1467350D01*
G01X-1307121Y1483753D01*
G01X-1273389Y1496702D01*
G01X-1238489Y1506053D01*
G01X-1202803Y1511705D01*
G01X-1166721Y1513596D01*
G01X-937262Y1513596D01*
G01X-956167Y1503425D01*
G01X-973067Y1490187D01*
G01X-987472Y1474269D01*
G01X-998960Y1456134D01*
G01X-1007198Y1436310D01*
G01X-1011945Y1415374D01*
G01X-1013065Y1393936D01*
G01X-1010523Y1372619D01*
G01X-1004394Y1352045D01*
G01X-994857Y1332812D01*
G01X-982189Y1315481D01*
G01X-966759Y1300555D01*
G01X-949016Y1288470D01*
G01X-929477Y1279578D01*
G01X-908710Y1274137D01*
G01X-887321Y1272305D01*
G01X-865931Y1274137D01*
G01X-845165Y1279578D01*
G01X-825625Y1288470D01*
G01X-807882Y1300555D01*
G01X-792452Y1315481D01*
G01X-779784Y1332812D01*
G01X-770247Y1352045D01*
G01X-764118Y1372619D01*
G01X-761576Y1393936D01*
G01X-762696Y1415374D01*
G01X-767443Y1436310D01*
G01X-775681Y1456134D01*
G01X-787170Y1474269D01*
G01X-801574Y1490187D01*
G01X-818474Y1503425D01*
G01X-837379Y1513596D01*
G01X-683262Y1513596D01*
G01X-702167Y1503425D01*
G01X-719067Y1490187D01*
G01X-733472Y1474269D01*
G01X-744960Y1456134D01*
G01X-753198Y1436310D01*
G01X-757945Y1415374D01*
G01X-759065Y1393936D01*
G01X-756523Y1372619D01*
G01X-750394Y1352045D01*
G01X-740857Y1332812D01*
G01X-728189Y1315481D01*
G01X-712759Y1300555D01*
G01X-695016Y1288470D01*
G01X-675477Y1279578D01*
G01X-654710Y1274137D01*
G01X-633321Y1272305D01*
G01X-611931Y1274137D01*
G01X-591165Y1279578D01*
G01X-571625Y1288470D01*
G01X-553882Y1300555D01*
G01X-538452Y1315481D01*
G01X-525784Y1332812D01*
G01X-516247Y1352045D01*
G01X-510118Y1372619D01*
G01X-507576Y1393936D01*
G01X-508696Y1415374D01*
G01X-513443Y1436310D01*
G01X-521681Y1456134D01*
G01X-533170Y1474269D01*
G01X-547574Y1490187D01*
G01X-564474Y1503425D01*
G01X-583379Y1513596D01*
G01X-429262Y1513596D01*
G01X-448167Y1503425D01*
G01X-465067Y1490187D01*
G01X-479472Y1474269D01*
G01X-490960Y1456134D01*
G01X-499198Y1436310D01*
G01X-503945Y1415374D01*
G01X-505065Y1393936D01*
G01X-502523Y1372619D01*
G01X-496394Y1352045D01*
G01X-486857Y1332812D01*
G01X-474189Y1315481D01*
G01X-458759Y1300555D01*
G01X-441016Y1288470D01*
G01X-421477Y1279578D01*
G01X-400710Y1274137D01*
G01X-379321Y1272305D01*
G01X-357931Y1274137D01*
G01X-337165Y1279578D01*
G01X-317625Y1288470D01*
G01X-299882Y1300555D01*
G01X-284452Y1315481D01*
G01X-271784Y1332812D01*
G01X-262247Y1352045D01*
G01X-256118Y1372619D01*
G01X-253576Y1393936D01*
G01X-254696Y1415374D01*
G01X-259443Y1436310D01*
G01X-267681Y1456134D01*
G01X-279170Y1474269D01*
G01X-293574Y1490187D01*
G01X-310474Y1503425D01*
G01X-329379Y1513596D01*
G01X-175262Y1513596D01*
G01X-194167Y1503425D01*
G01X-211067Y1490187D01*
G01X-225472Y1474269D01*
G01X-236960Y1456134D01*
G01X-245198Y1436310D01*
G01X-249945Y1415374D01*
G01X-251065Y1393936D01*
G01X-248523Y1372619D01*
G01X-242394Y1352045D01*
G01X-232857Y1332812D01*
G01X-220189Y1315481D01*
G01X-204759Y1300555D01*
G01X-187016Y1288470D01*
G01X-167477Y1279578D01*
G01X-146710Y1274137D01*
G01X-125321Y1272305D01*
G01X-103931Y1274137D01*
G01X-83165Y1279578D01*
G01X-63625Y1288470D01*
G01X-45882Y1300555D01*
G01X-30452Y1315481D01*
G01X-17784Y1332812D01*
G01X-8247Y1352045D01*
G01X-2118Y1372619D01*
G01X424Y1393936D01*
G01X-696Y1415374D01*
G01X-5443Y1436310D01*
G01X-13681Y1456134D01*
G01X-25170Y1474269D01*
G01X-39574Y1490187D01*
G01X-56474Y1503425D01*
G01X-75379Y1513596D01*
G01X78738Y1513596D01*
G01X59833Y1503425D01*
G01X42933Y1490187D01*
G01X28528Y1474269D01*
G01X17040Y1456134D01*
G01X8802Y1436310D01*
G01X4055Y1415374D01*
G01X2935Y1393936D01*
G01X5477Y1372619D01*
G01X11606Y1352045D01*
G01X21143Y1332812D01*
G01X33811Y1315481D01*
G01X49241Y1300555D01*
G01X66984Y1288470D01*
G01X86523Y1279578D01*
G01X107290Y1274137D01*
G01X128679Y1272305D01*
G01X150069Y1274137D01*
G01X170835Y1279578D01*
G01X190375Y1288470D01*
G01X208118Y1300555D01*
G01X223548Y1315481D01*
G01X236216Y1332812D01*
G01X245753Y1352045D01*
G01X251882Y1372619D01*
G01X254424Y1393936D01*
G01X253304Y1415374D01*
G01X248557Y1436310D01*
G01X240319Y1456134D01*
G01X228830Y1474269D01*
G01X214426Y1490187D01*
G01X197526Y1503425D01*
G01X178621Y1513596D01*
G01X332738Y1513596D01*
G01X313833Y1503425D01*
G01X296933Y1490187D01*
G01X282528Y1474269D01*
G01X271040Y1456134D01*
G01X262802Y1436310D01*
G01X258055Y1415374D01*
G01X256935Y1393936D01*
G01X259477Y1372619D01*
G01X265606Y1352045D01*
G01X275143Y1332812D01*
G01X287811Y1315481D01*
G01X303241Y1300555D01*
G01X320984Y1288470D01*
G01X340523Y1279578D01*
G01X361290Y1274137D01*
G01X382679Y1272305D01*
G01X404069Y1274137D01*
G01X424835Y1279578D01*
G01X444375Y1288470D01*
G01X462118Y1300555D01*
G01X477548Y1315481D01*
G01X490216Y1332812D01*
G01X499753Y1352045D01*
G01X505882Y1372619D01*
G01X508424Y1393936D01*
G01X507304Y1415374D01*
G01X502557Y1436310D01*
G01X494319Y1456134D01*
G01X482830Y1474269D01*
G01X468426Y1490187D01*
G01X451526Y1503425D01*
G01X432621Y1513596D01*
G01X586738Y1513596D01*
G01X567833Y1503425D01*
G01X550933Y1490187D01*
G01X536528Y1474269D01*
G01X525040Y1456134D01*
G01X516802Y1436310D01*
G01X512055Y1415374D01*
G01X510935Y1393936D01*
G01X513477Y1372619D01*
G01X519606Y1352045D01*
G01X529143Y1332812D01*
G01X541811Y1315481D01*
G01X557241Y1300555D01*
G01X574984Y1288470D01*
G01X594523Y1279578D01*
G01X615290Y1274137D01*
G01X636679Y1272305D01*
G01X658069Y1274137D01*
G01X678835Y1279578D01*
G01X698375Y1288470D01*
G01X716118Y1300555D01*
G01X731548Y1315481D01*
G01X744216Y1332812D01*
G01X753753Y1352045D01*
G01X759882Y1372619D01*
G01X762424Y1393936D01*
G01X761304Y1415374D01*
G01X756557Y1436310D01*
G01X748319Y1456134D01*
G01X736830Y1474269D01*
G01X722426Y1490187D01*
G01X705526Y1503425D01*
G01X686621Y1513596D01*
G01X775509Y1513596D01*
G01X769736Y1506151D01*
G01X766105Y1497458D01*
G01X764866Y1488119D01*
G01X764866Y1308119D01*
G01X766618Y1297052D01*
G01X771705Y1287068D01*
G01X779629Y1279145D01*
G01X789612Y1274058D01*
G01X800680Y1272305D01*
G01X980679Y1272305D01*
G01X991746Y1274058D01*
G01X1001730Y1279145D01*
G01X1009653Y1287068D01*
G01X1014740Y1297052D01*
G01X1016493Y1308119D01*
G01X1016493Y1488119D01*
G01X1015254Y1497458D01*
G01X1011622Y1506151D01*
G01X1005850Y1513596D01*
G01X1170583Y1513596D01*
G01X1206665Y1511705D01*
G01X1242352Y1506053D01*
G01X1277252Y1496702D01*
G01X1310983Y1483753D01*
G01X1343176Y1467350D01*
G01X1373479Y1447672D01*
G01X1401558Y1424933D01*
G01X1427107Y1399385D01*
G01X1449845Y1371305D01*
G01X1469523Y1341003D01*
G01X1485926Y1308810D01*
G01X1498875Y1275079D01*
G01X1508226Y1240178D01*
G01X1513878Y1204492D01*
G01X1515769Y1168410D01*
G01X1515769Y919883D01*
G01X1508509Y940452D01*
G01X1497669Y959380D01*
G01X1483602Y976050D01*
G01X1466766Y989919D01*
G01X1447712Y1000535D01*
G01X1427059Y1007552D01*
G01X1405481Y1010741D01*
G01X1383681Y1009998D01*
G01X1362370Y1005347D01*
G01X1342243Y996941D01*
G01X1323955Y985052D01*
G01X1308104Y970069D01*
G01X1295204Y952479D01*
G01X1285678Y932857D01*
G01X1279835Y911842D01*
G01X1277866Y890119D01*
G01X1279835Y868396D01*
G01X1285678Y847380D01*
G01X1295204Y827758D01*
G01X1308104Y810169D01*
G01X1323955Y795186D01*
G01X1342243Y783297D01*
G01X1362370Y774890D01*
G01X1383681Y770240D01*
G01X1405481Y769497D01*
G01X1427059Y772686D01*
G01X1447712Y779702D01*
G01X1466766Y790318D01*
G01X1483602Y804188D01*
G01X1497669Y820858D01*
G01X1508509Y839786D01*
G01X1515769Y860354D01*
G01X1515769Y665883D01*
G01X1508509Y686452D01*
G01X1497669Y705380D01*
G01X1483602Y722050D01*
G01X1466766Y735919D01*
G01X1447712Y746535D01*
G01X1427059Y753552D01*
G01X1405481Y756741D01*
G01X1383681Y755998D01*
G01X1362370Y751347D01*
G01X1342243Y742941D01*
G01X1323955Y731052D01*
G01X1308104Y716069D01*
G01X1295204Y698479D01*
G01X1285678Y678857D01*
G01X1279835Y657842D01*
G01X1277866Y636119D01*
G01X1279835Y614396D01*
G01X1285678Y593380D01*
G01X1295204Y573758D01*
G01X1308104Y556169D01*
G01X1323955Y541186D01*
G01X1342243Y529297D01*
G01X1362370Y520890D01*
G01X1383681Y516240D01*
G01X1405481Y515497D01*
G01X1427059Y518686D01*
G01X1447712Y525702D01*
G01X1466766Y536318D01*
G01X1483602Y550188D01*
G01X1497669Y566858D01*
G01X1508509Y585786D01*
G01X1515769Y606354D01*
G01X1515769Y411883D01*
G01X1508509Y432452D01*
G01X1497669Y451380D01*
G01X1483602Y468050D01*
G01X1466766Y481919D01*
G01X1447712Y492535D01*
G01X1427059Y499552D01*
G01X1405481Y502741D01*
G01X1383681Y501998D01*
G01X1362370Y497347D01*
G01X1342243Y488941D01*
G01X1323955Y477052D01*
G01X1308104Y462069D01*
G01X1295204Y444479D01*
G01X1285678Y424857D01*
G01X1279835Y403842D01*
G01X1277866Y382119D01*
G01X1279835Y360396D01*
G01X1285678Y339380D01*
G01X1295204Y319758D01*
G01X1308104Y302169D01*
G01X1323955Y287186D01*
G01X1342243Y275297D01*
G01X1362370Y266890D01*
G01X1383681Y262240D01*
G01X1405481Y261497D01*
G01X1427059Y264686D01*
G01X1447712Y271702D01*
G01X1466766Y282318D01*
G01X1483602Y296188D01*
G01X1497669Y312858D01*
G01X1508509Y331786D01*
G01X1515769Y352354D01*
G01X1515769Y229021D01*
G01X1510181Y237208D01*
G01X1502562Y243550D01*
G01X1493497Y247561D01*
G01X1483679Y248933D01*
G01X1313680Y248933D01*
G01X1302612Y247180D01*
G01X1292629Y242093D01*
G01X1284705Y234170D01*
G01X1279618Y224186D01*
G01X1277866Y213119D01*
G01X1277866Y43119D01*
G01X1279618Y32052D01*
G01X1284705Y22068D01*
G01X1292629Y14145D01*
G01X1302612Y9058D01*
G01X1313680Y7305D01*
G01X1483679Y7305D01*
G01X1493497Y8677D01*
G01X1502562Y12688D01*
G01X1510181Y19030D01*
G01X1515769Y27217D01*
G01X1515769Y-240183D01*
G01X1227207Y-240183D01*
G01X1211778Y-224754D01*
G01X1201721Y-213892D01*
G01X1192529Y-202290D01*
G01X1191778Y-190979D01*
G01X1188463Y-180139D01*
G01X1182761Y-170342D01*
G01X1174972Y-162106D01*
G01X1154289Y-144750D01*
G01X1143992Y-138099D01*
G01X1132372Y-134193D01*
G01X1120147Y-133273D01*
G01X1108074Y-135398D01*
G01X1094987Y-129527D01*
G01X1082902Y-121801D01*
G01X1019879Y-72348D01*
G01X959185Y-20064D01*
G01X950242Y-10594D01*
G01X942922Y179D01*
G01X937411Y11982D01*
G01X933110Y20127D01*
G01X926874Y26907D01*
G01X866349Y77693D01*
G01X859930Y81992D01*
G01X852738Y84814D01*
G01X848710Y91406D01*
G01X843362Y96982D01*
G01X818062Y118211D01*
G01X833227Y121067D01*
G01X847185Y127648D01*
G01X859037Y137531D01*
G01X868020Y150079D01*
G01X873555Y164484D01*
G01X875287Y179818D01*
G01X873103Y195094D01*
G01X876230Y203243D01*
G01X877294Y211906D01*
G01X877294Y213016D01*
G01X886650Y205187D01*
G01X897798Y200235D01*
G01X909879Y198540D01*
G01X947680Y198540D01*
G01X960113Y200337D01*
G01X971530Y205581D01*
G01X980994Y213843D01*
G01X992487Y209472D01*
G01X1003082Y203233D01*
G01X1012479Y195302D01*
G01X1026711Y181071D01*
G01X1027102Y175664D01*
G01X1026878Y166977D01*
G01X1024988Y144852D01*
G01X1024960Y144503D01*
G01X1024933Y144144D01*
G01X1023987Y122712D01*
G01X1026846Y101451D01*
G01X1033420Y81030D01*
G01X1043503Y62094D01*
G01X1056775Y45241D01*
G01X1072819Y31000D01*
G01X1091129Y19821D01*
G01X1111128Y12057D01*
G01X1132184Y7953D01*
G01X1153635Y7637D01*
G01X1174802Y11121D01*
G01X1195021Y18293D01*
G01X1213652Y28928D01*
G01X1230108Y42691D01*
G01X1243870Y59147D01*
G01X1254505Y77778D01*
G01X1261678Y97996D01*
G01X1265161Y119164D01*
G01X1264845Y140614D01*
G01X1260741Y161670D01*
G01X1252977Y181669D01*
G01X1241799Y199979D01*
G01X1227558Y216023D01*
G01X1210704Y229296D01*
G01X1191768Y239378D01*
G01X1171348Y245953D01*
G01X1150087Y248812D01*
G01X1128655Y247865D01*
G01X1128296Y247838D01*
G01X1127946Y247810D01*
G01X1105822Y245921D01*
G01X1097134Y245696D01*
G01X1091728Y246088D01*
G01X1077496Y260319D01*
G01X1060096Y275440D01*
G01X1040758Y287986D01*
G01X1056145Y287986D01*
G01X1058419Y287746D01*
G01X1061567Y286915D01*
G01X1066818Y284980D01*
G01X1073325Y282152D01*
G01X1088411Y275015D01*
G01X1088977Y274753D01*
G01X1092278Y273261D01*
G01X1112708Y265612D01*
G01X1134181Y261762D01*
G01X1155996Y261836D01*
G01X1177443Y265832D01*
G01X1197821Y273620D01*
G01X1216466Y284945D01*
G01X1232770Y299439D01*
G01X1246203Y316628D01*
G01X1256325Y335953D01*
G01X1262807Y356783D01*
G01X1265437Y378439D01*
G01X1264130Y400215D01*
G01X1258929Y421401D01*
G01X1250002Y441307D01*
G01X1237641Y459282D01*
G01X1222249Y474742D01*
G01X1204328Y487181D01*
G01X1184462Y496195D01*
G01X1163299Y501489D01*
G01X1141529Y502892D01*
G01X1119861Y500356D01*
G01X1099003Y493965D01*
G01X1079634Y483928D01*
G01X1062386Y470571D01*
G01X1047821Y454330D01*
G01X1036414Y435734D01*
G01X1033207Y429986D01*
G01X1029736Y425112D01*
G01X1025660Y420519D01*
G01X1021297Y416588D01*
G01X1017032Y413600D01*
G01X1012580Y411337D01*
G01X1011676Y411009D01*
G01X1010401Y410671D01*
G01X1009477Y410521D01*
G01X950386Y413195D01*
G01X947680Y413297D01*
G01X909879Y413297D01*
G01X897798Y411603D01*
G01X886650Y406650D01*
G01X877294Y398822D01*
G01X877294Y399932D01*
G01X875541Y410999D01*
G01X870454Y420983D01*
G01X862531Y428906D01*
G01X852547Y433993D01*
G01X841480Y435746D01*
G01X787479Y435746D01*
G01X776412Y433993D01*
G01X766428Y428906D01*
G01X758505Y420983D01*
G01X753418Y410999D01*
G01X751665Y399932D01*
G01X751665Y320923D01*
G01X752499Y313242D01*
G01X754960Y305919D01*
G01X752499Y298596D01*
G01X751665Y290915D01*
G01X751665Y211906D01*
G01X752729Y203243D01*
G01X755856Y195094D01*
G01X753803Y183010D01*
G01X754215Y170759D01*
G01X757076Y158840D01*
G01X717277Y171954D01*
G01X698230Y177214D01*
G01X678729Y180395D01*
G01X658998Y181459D01*
G01X655100Y181938D01*
G01X647284Y192364D01*
G01X637011Y200380D01*
G01X624996Y205424D01*
G01X612080Y207146D01*
G01X585079Y207146D01*
G01X572461Y205504D01*
G01X560682Y200688D01*
G01X550528Y193018D01*
G01X542675Y183005D01*
G01X532900Y181459D01*
G01X522932Y181104D01*
G01X546879Y203530D01*
G01X547965Y204571D01*
G01X584741Y241347D01*
G01X591120Y249193D01*
G01X595766Y258176D01*
G01X598481Y267918D01*
G01X608222Y270633D01*
G01X617205Y275278D01*
G01X625051Y281658D01*
G01X661827Y318434D01*
G01X669664Y328647D01*
G01X674590Y340541D01*
G01X676271Y353304D01*
G01X674590Y366068D01*
G01X669664Y377961D01*
G01X661827Y388174D01*
G01X642735Y407266D01*
G01X632673Y415016D01*
G01X620965Y419938D01*
G01X608388Y421707D01*
G01X594012Y435535D01*
G01X583768Y448183D01*
G01X574791Y461759D01*
G01X598143Y486356D01*
G01X611479Y497642D01*
G01X625862Y507558D01*
G01X628272Y504893D01*
G01X684140Y449025D01*
G01X693205Y442439D01*
G01X703862Y438977D01*
G01X715067Y438977D01*
G01X725724Y442439D01*
G01X734789Y449025D01*
G01X772973Y487209D01*
G01X779559Y496274D01*
G01X783022Y506931D01*
G01X783022Y518136D01*
G01X779559Y528793D01*
G01X772973Y537858D01*
G01X717105Y593726D01*
G01X711085Y598568D01*
G01X704166Y602006D01*
G01X700728Y608924D01*
G01X695887Y614944D01*
G01X674712Y636119D01*
G01X1023866Y636119D01*
G01X1025701Y615140D01*
G01X1031152Y594798D01*
G01X1040052Y575712D01*
G01X1052131Y558461D01*
G01X1067022Y543570D01*
G01X1084273Y531491D01*
G01X1103359Y522591D01*
G01X1123700Y517140D01*
G01X1144679Y515305D01*
G01X1144679Y515305D01*
G01X1165659Y517140D01*
G01X1186000Y522591D01*
G01X1205086Y531491D01*
G01X1222337Y543570D01*
G01X1237228Y558461D01*
G01X1249307Y575712D01*
G01X1258207Y594798D01*
G01X1263658Y615140D01*
G01X1265493Y636119D01*
G01X1263658Y657098D01*
G01X1258207Y677440D01*
G01X1249307Y696526D01*
G01X1237228Y713777D01*
G01X1222337Y728668D01*
G01X1205086Y740747D01*
G01X1186000Y749647D01*
G01X1165659Y755097D01*
G01X1144679Y756933D01*
G01X1123700Y755097D01*
G01X1103359Y749647D01*
G01X1084273Y740747D01*
G01X1067022Y728668D01*
G01X1052131Y713777D01*
G01X1040052Y696526D01*
G01X1031152Y677440D01*
G01X1025701Y657098D01*
G01X1023866Y636119D01*
G01X674712Y636119D01*
G01X640019Y670812D01*
G01X639363Y671451D01*
G01X609579Y700152D01*
G01X609162Y700635D01*
G01X660128Y700635D01*
G01X674777Y702414D01*
G01X688576Y707647D01*
G01X700720Y716030D01*
G01X710506Y727075D01*
G01X717364Y740142D01*
G01X720896Y754470D01*
G01X720896Y769227D01*
G01X717364Y783556D01*
G01X710506Y796622D01*
G01X700720Y807668D01*
G01X688576Y816051D01*
G01X674777Y821284D01*
G01X660128Y823063D01*
G01X584894Y823063D01*
G01X561204Y824321D01*
G01X537780Y828080D01*
G01X514886Y834298D01*
G01X505823Y840456D01*
G01X495322Y843586D01*
G01X484366Y843394D01*
G01X473981Y839899D01*
G01X465139Y833427D01*
G01X408571Y776859D01*
G01X401715Y767253D01*
G01X398353Y755940D01*
G01X398851Y744149D01*
G01X387060Y744647D01*
G01X375747Y741285D01*
G01X366141Y734429D01*
G01X309573Y677861D01*
G01X302986Y668796D01*
G01X299524Y658139D01*
G01X299524Y646934D01*
G01X302986Y636277D01*
G01X309573Y627212D01*
G01X322179Y614605D01*
G01X316231Y615066D01*
G01X311000Y615379D01*
G01X273200Y615379D01*
G01X261834Y613882D01*
G01X251243Y609495D01*
G01X242148Y602516D01*
G01X235169Y593421D01*
G01X230782Y582830D01*
G01X229286Y571464D01*
G01X229286Y563670D01*
G01X217933Y564374D01*
G01X206647Y562951D01*
G01X195824Y559451D01*
G01X187802Y565676D01*
G01X178856Y570478D01*
G01X422099Y813721D01*
G01X440843Y830159D01*
G01X461572Y844010D01*
G01X483932Y855037D01*
G01X507540Y863051D01*
G01X531992Y867914D01*
G01X556869Y869545D01*
G01X590456Y871431D01*
G01X623620Y877066D01*
G01X655944Y886378D01*
G01X664974Y890119D01*
G01X1023866Y890119D01*
G01X1025701Y869140D01*
G01X1031152Y848798D01*
G01X1040052Y829712D01*
G01X1052131Y812461D01*
G01X1067022Y797570D01*
G01X1084273Y785491D01*
G01X1103359Y776591D01*
G01X1123700Y771140D01*
G01X1144679Y769305D01*
G01X1144679Y769305D01*
G01X1165659Y771140D01*
G01X1186000Y776591D01*
G01X1205086Y785491D01*
G01X1222337Y797570D01*
G01X1237228Y812461D01*
G01X1249307Y829712D01*
G01X1258207Y848798D01*
G01X1263658Y869140D01*
G01X1265493Y890119D01*
G01X1263658Y911098D01*
G01X1258207Y931440D01*
G01X1249307Y950526D01*
G01X1237228Y967777D01*
G01X1222337Y982668D01*
G01X1205086Y994747D01*
G01X1186000Y1003647D01*
G01X1165659Y1009097D01*
G01X1144679Y1010933D01*
G01X1123700Y1009097D01*
G01X1103359Y1003647D01*
G01X1084273Y994747D01*
G01X1067022Y982668D01*
G01X1052131Y967777D01*
G01X1040052Y950526D01*
G01X1031152Y931440D01*
G01X1025701Y911098D01*
G01X1023866Y890119D01*
G01X664974Y890119D01*
G01X687023Y899252D01*
G01X716465Y915524D01*
G01X743900Y934990D01*
G01X768983Y957405D01*
G01X833316Y1021738D01*
G01X835790Y1021986D01*
G01X839197Y1022102D01*
G01X849162Y1021773D01*
G01X872711Y1019595D01*
G01X895111Y1018383D01*
G01X917370Y1021169D01*
G01X938780Y1027863D01*
G01X958661Y1038253D01*
G01X976381Y1052008D01*
G01X991377Y1068692D01*
G01X1003171Y1087774D01*
G01X1011389Y1108647D01*
G01X1015770Y1130647D01*
G01X1016174Y1153076D01*
G01X1012589Y1175220D01*
G01X1005128Y1196375D01*
G01X994028Y1215870D01*
G01X979643Y1233083D01*
G01X962430Y1247467D01*
G01X942936Y1258567D01*
G01X921781Y1266028D01*
G01X899637Y1269613D01*
G01X877208Y1269209D01*
G01X855208Y1264829D01*
G01X834335Y1256611D01*
G01X815253Y1244816D01*
G01X798569Y1229821D01*
G01X784814Y1212101D01*
G01X774424Y1192220D01*
G01X767729Y1170809D01*
G01X764944Y1148550D01*
G01X766155Y1126151D01*
G01X768334Y1102601D01*
G01X768663Y1092637D01*
G01X768546Y1089230D01*
G01X768299Y1086755D01*
G01X703966Y1022422D01*
G01X683507Y1004481D01*
G01X660882Y989363D01*
G01X636477Y977328D01*
G01X610710Y968581D01*
G01X584022Y963273D01*
G01X556869Y961493D01*
G01X528663Y960081D01*
G01X500739Y955861D01*
G01X571035Y1026157D01*
G01X574195Y1029027D01*
G01X575658Y1029939D01*
G01X577374Y1029621D01*
G01X585713Y1027359D01*
G01X596447Y1024208D01*
G01X598556Y1023658D01*
G01X611043Y1020804D01*
G01X613934Y1020267D01*
G01X620832Y1019277D01*
G01X623285Y1019011D01*
G01X623567Y1018990D01*
G01X646009Y1018651D01*
G01X668155Y1022306D01*
G01X689299Y1029837D01*
G01X708768Y1041006D01*
G01X725943Y1055456D01*
G01X740277Y1072728D01*
G01X751314Y1092273D01*
G01X758702Y1113467D01*
G01X762207Y1135637D01*
G01X761717Y1158077D01*
G01X757247Y1180073D01*
G01X748939Y1200924D01*
G01X737059Y1219967D01*
G01X721984Y1236597D01*
G01X704195Y1250283D01*
G01X684256Y1260590D01*
G01X662803Y1267191D01*
G01X640519Y1269874D01*
G01X618112Y1268555D01*
G01X596297Y1263276D01*
G01X575767Y1254204D01*
G01X557175Y1241629D01*
G01X541114Y1225950D01*
G01X528094Y1207667D01*
G01X518530Y1187361D01*
G01X512727Y1165679D01*
G01X510868Y1143311D01*
G01X513014Y1120968D01*
G01X513622Y1113075D01*
G01X513863Y1103665D01*
G01X513730Y1100678D01*
G01X513486Y1098642D01*
G01X482890Y1068046D01*
G01X494387Y1086235D01*
G01X502617Y1106117D01*
G01X507338Y1127111D01*
G01X508413Y1148602D01*
G01X505811Y1169961D01*
G01X499606Y1190565D01*
G01X489981Y1209811D01*
G01X477218Y1227135D01*
G01X461689Y1242030D01*
G01X443849Y1254062D01*
G01X424220Y1262877D01*
G01X403376Y1268219D01*
G01X381926Y1269930D01*
G01X360498Y1267962D01*
G01X339719Y1262371D01*
G01X320197Y1253321D01*
G01X302503Y1241077D01*
G01X287153Y1225996D01*
G01X274598Y1208521D01*
G01X265205Y1189161D01*
G01X259248Y1168484D01*
G01X256901Y1147095D01*
G01X258233Y1125618D01*
G01X263206Y1104683D01*
G01X271673Y1084901D01*
G01X283388Y1066851D01*
G01X298016Y1047258D01*
G01X304959Y1037486D01*
G01X310123Y1028883D01*
G01X311503Y1026012D01*
G01X312583Y1023202D01*
G01X313244Y1020830D01*
G01X313584Y1018769D01*
G01X313675Y1016802D01*
G01X313513Y1014652D01*
G01X312998Y1012038D01*
G01X311679Y1007894D01*
G01X298919Y978176D01*
G01X283699Y949641D01*
G01X266128Y922490D01*
G01X246330Y896917D01*
G01X224447Y873104D01*
G01X156942Y805599D01*
G01X166751Y845362D01*
G01X172673Y885887D01*
G01X174653Y926795D01*
G01X174653Y1017020D01*
G01X176228Y1018945D01*
G01X178555Y1021437D01*
G01X185834Y1028250D01*
G01X204026Y1043362D01*
G01X220722Y1058344D01*
G01X234491Y1076053D01*
G01X244897Y1095926D01*
G01X251608Y1117331D01*
G01X254412Y1139587D01*
G01X253218Y1161988D01*
G01X248065Y1183821D01*
G01X239117Y1204391D01*
G01X226658Y1223045D01*
G01X211084Y1239191D01*
G01X192890Y1252314D01*
G01X172655Y1261997D01*
G01X151023Y1267933D01*
G01X128679Y1269933D01*
G01X106336Y1267933D01*
G01X84703Y1261997D01*
G01X64469Y1252314D01*
G01X46275Y1239191D01*
G01X30701Y1223045D01*
G01X18242Y1204391D01*
G01X9294Y1183821D01*
G01X4141Y1161988D01*
G01X2947Y1139587D01*
G01X5751Y1117331D01*
G01X12462Y1095926D01*
G01X22868Y1076053D01*
G01X36637Y1058344D01*
G01X53333Y1043362D01*
G01X71525Y1028250D01*
G01X78804Y1021437D01*
G01X81131Y1018945D01*
G01X82705Y1017020D01*
G01X82705Y926795D01*
G01X80974Y892950D01*
G01X75796Y859458D01*
G01X67227Y826669D01*
G01X55355Y794927D01*
G01X40305Y764562D01*
G01X22235Y735892D01*
G01X22253Y738622D01*
G01X22253Y898835D01*
G01X20779Y932837D01*
G01X16368Y966584D01*
G01X9052Y999822D01*
G01X-1113Y1032303D01*
G01X-3452Y1039309D01*
G01X-5072Y1045233D01*
G01X-6211Y1050625D01*
G01X-6954Y1055631D01*
G01X-7369Y1060419D01*
G01X-7495Y1064767D01*
G01X-7011Y1075360D01*
G01X-5672Y1086929D01*
G01X-3725Y1100450D01*
G01X-3673Y1100823D01*
G01X-1632Y1116134D01*
G01X-1474Y1117533D01*
G01X-338Y1129680D01*
G01X230Y1152248D01*
G01X-3244Y1174555D01*
G01X-10648Y1195881D01*
G01X-21745Y1215541D01*
G01X-36176Y1232902D01*
G01X-53478Y1247404D01*
G01X-73093Y1258580D01*
G01X-94389Y1266071D01*
G01X-116681Y1269636D01*
G01X-139252Y1269159D01*
G01X-161374Y1264656D01*
G01X-182335Y1256273D01*
G01X-201460Y1244278D01*
G01X-218134Y1229059D01*
G01X-231820Y1211104D01*
G01X-242076Y1190993D01*
G01X-248574Y1169373D01*
G01X-251103Y1146940D01*
G01X-249582Y1124416D01*
G01X-244060Y1102526D01*
G01X-234716Y1081975D01*
G01X-221849Y1063425D01*
G01X-205874Y1047474D01*
G01X-187305Y1034634D01*
G01X-166741Y1025319D01*
G01X-144843Y1019829D01*
G01X-120395Y1015563D01*
G01X-108929Y1013209D01*
G01X-99574Y1010474D01*
G01X-96838Y1009375D01*
G01X-94378Y1008134D01*
G01X-92558Y1006973D01*
G01X-91202Y1005872D01*
G01X-90090Y1004714D01*
G01X-89020Y1003267D01*
G01X-87875Y1001225D01*
G01X-86305Y997429D01*
G01X-77115Y965250D01*
G01X-71556Y932249D01*
G01X-69695Y898835D01*
G01X-69695Y738622D01*
G01X-71043Y721491D01*
G01X-75054Y704782D01*
G01X-81630Y688906D01*
G01X-90609Y674255D01*
G01X-101769Y661188D01*
G01X-175530Y587427D01*
G01X-191732Y568457D01*
G01X-204767Y547186D01*
G01X-214313Y524138D01*
G01X-220137Y499880D01*
G01X-222095Y475009D01*
G01X-222095Y397940D01*
G01X-221448Y386771D01*
G01X-219517Y375751D01*
G01X-234949Y391184D01*
G01X-232653Y401226D01*
G01X-233310Y411505D01*
G01X-236866Y421173D01*
G01X-243027Y429428D01*
G01X-281211Y467612D01*
G01X-288871Y473443D01*
G01X-297807Y477022D01*
G01X-307373Y478092D01*
G01X-316218Y489503D01*
G01X-327489Y498525D01*
G01X-340560Y504656D01*
G01X-354703Y507556D01*
G01X-369132Y507062D01*
G01X-383044Y503203D01*
G01X-395665Y496193D01*
G01X-406293Y486422D01*
G01X-414338Y474433D01*
G01X-419351Y460894D01*
G01X-421053Y446558D01*
G01X-421053Y429302D01*
G01X-419550Y415820D01*
G01X-415114Y402999D01*
G01X-407964Y391471D01*
G01X-408946Y390526D01*
G01X-464814Y334658D01*
G01X-471400Y325593D01*
G01X-474863Y314936D01*
G01X-474863Y303731D01*
G01X-471400Y293074D01*
G01X-464814Y284009D01*
G01X-456506Y275701D01*
G01X-471174Y277844D01*
G01X-484820Y283633D01*
G01X-496555Y292690D01*
G01X-506081Y302216D01*
G01X-506111Y302515D01*
G01X-509183Y317479D01*
G01X-515887Y331206D01*
G01X-525800Y342828D01*
G01X-538297Y351614D01*
G01X-552589Y357008D01*
G01X-567774Y358670D01*
G01X-582895Y356496D01*
G01X-536681Y402709D01*
G01X-530095Y411774D01*
G01X-526633Y422431D01*
G01X-526633Y433636D01*
G01X-530095Y444293D01*
G01X-536681Y453358D01*
G01X-616711Y533388D01*
G01X-624128Y539079D01*
G01X-632766Y542657D01*
G01X-642035Y543877D01*
G01X-659776Y543877D01*
G01X-669046Y542657D01*
G01X-677683Y539079D01*
G01X-685100Y533388D01*
G01X-741666Y476822D01*
G01X-747990Y485384D01*
G01X-748728Y486122D01*
G01X-684424Y550427D01*
G01X-677837Y559492D01*
G01X-674375Y570149D01*
G01X-674375Y581354D01*
G01X-677837Y592010D01*
G01X-684424Y601075D01*
G01X-726850Y643502D01*
G01X-735915Y650088D01*
G01X-746572Y653551D01*
G01X-757777Y653551D01*
G01X-768433Y650088D01*
G01X-777499Y643502D01*
G01X-848209Y572791D01*
G01X-853747Y565638D01*
G01X-857315Y557326D01*
G01X-858687Y548385D01*
G01X-857775Y539385D01*
G01X-918847Y478313D01*
G01X-925284Y469537D01*
G01X-928788Y459234D01*
G01X-929035Y448353D01*
G01X-926004Y437901D01*
G01X-933971Y436162D01*
G01X-941338Y432666D01*
G01X-947724Y427593D01*
G01X-985908Y389409D01*
G01X-992494Y380344D01*
G01X-995957Y369687D01*
G01X-995957Y358482D01*
G01X-992494Y347826D01*
G01X-985908Y338761D01*
G01X-932243Y285096D01*
G01X-1001545Y215794D01*
G01X-1007236Y208377D01*
G01X-1010814Y199739D01*
G01X-1012035Y190470D01*
G01X-1012035Y39219D01*
G01X-1010282Y28152D01*
G01X-1005195Y18168D01*
G01X-997271Y10245D01*
G01X-987288Y5158D01*
G01X-976221Y3405D01*
G01X-861921Y3405D01*
G01X-852651Y4625D01*
G01X-844014Y8203D01*
G01X-836596Y13895D01*
G01X-774225Y76266D01*
G01X-768533Y83684D01*
G01X-764955Y92321D01*
G01X-763735Y101591D01*
G01X-763735Y175656D01*
G01X-625378Y314013D01*
G01X-627552Y298895D01*
G01X-625891Y283713D01*
G01X-620500Y269423D01*
G01X-611718Y256927D01*
G01X-600100Y247013D01*
G01X-586378Y240307D01*
G01X-571418Y237231D01*
G01X-571097Y237198D01*
G01X-563627Y229728D01*
G01X-587543Y222053D01*
G01X-610518Y211903D01*
G01X-632296Y199388D01*
G01X-652634Y184649D01*
G01X-671307Y167850D01*
G01X-801809Y37347D01*
G01X-819858Y21518D01*
G01X-839819Y8181D01*
G01X-861350Y-2437D01*
G01X-884083Y-10154D01*
G01X-907628Y-14837D01*
G01X-931584Y-16407D01*
G01X-931957Y-16407D01*
G01X-955669Y-14557D01*
G01X-978807Y-9051D01*
G01X-1000811Y-23D01*
G01X-1021149Y12309D01*
G01X-1039327Y27647D01*
G01X-1041072Y29616D01*
G01X-1041635Y30445D01*
G01X-1041924Y31021D01*
G01X-1042115Y31578D01*
G01X-1042277Y32368D01*
G01X-1042381Y33597D01*
G01X-1042342Y35383D01*
G01X-1042070Y37761D01*
G01X-1041494Y40709D01*
G01X-1040680Y43780D01*
G01X-1037628Y52506D01*
G01X-1033525Y61996D01*
G01X-1028471Y72493D01*
G01X-1020630Y92583D01*
G01X-1016334Y113716D01*
G01X-1015710Y135273D01*
G01X-1018777Y156620D01*
G01X-1025445Y177129D01*
G01X-1035517Y196198D01*
G01X-1048698Y213267D01*
G01X-1064601Y227834D01*
G01X-1082757Y239472D01*
G01X-1102634Y247837D01*
G01X-1123648Y252685D01*
G01X-1145181Y253873D01*
G01X-1166601Y251367D01*
G01X-1187278Y245239D01*
G01X-1206604Y235670D01*
G01X-1224013Y222941D01*
G01X-1238991Y207425D01*
G01X-1251100Y189580D01*
G01X-1259984Y169929D01*
G01X-1265381Y149049D01*
G01X-1267133Y127555D01*
G01X-1265189Y106077D01*
G01X-1259604Y85247D01*
G01X-1250545Y65676D01*
G01X-1238276Y47940D01*
G01X-1223159Y32560D01*
G01X-1205637Y19987D01*
G01X-1186226Y10592D01*
G01X-1165495Y4649D01*
G01X-1144053Y2335D01*
G01X-1141651Y-68D01*
G01X-1162868Y-1926D01*
G01X-1183467Y-7337D01*
G01X-1202859Y-16145D01*
G01X-1220487Y-28097D01*
G01X-1235847Y-42852D01*
G01X-1248497Y-59986D01*
G01X-1258077Y-79008D01*
G01X-1264310Y-99374D01*
G01X-1267019Y-120499D01*
G01X-1266126Y-141778D01*
G01X-1261656Y-162602D01*
G01X-1253738Y-182374D01*
G01X-1242598Y-200526D01*
G01X-1228556Y-216540D01*
G01X-1212014Y-229956D01*
G01X-1193447Y-240389D01*
G01X-1173385Y-247540D01*
G01X-1152405Y-251206D01*
G01X-1131107Y-251280D01*
G01X-1110101Y-247760D01*
G01X-1089990Y-240748D01*
G01X-1071351Y-230444D01*
G01X-1054716Y-217143D01*
G01X-1040563Y-201228D01*
G01X-1025452Y-183035D01*
G01X-1018638Y-175756D01*
G01X-1016147Y-173430D01*
G01X-1014222Y-171855D01*
G01X-962244Y-171855D01*
G01X-925385Y-169906D01*
G01X-888937Y-164081D01*
G01X-1035966Y-311110D01*
G01X-1049605Y-293757D01*
G01X-1066066Y-279055D01*
G01X-1084843Y-267456D01*
G01X-1105358Y-259317D01*
G01X-1126979Y-254887D01*
G01X-1149042Y-254305D01*
G01X-1170868Y-257586D01*
G01X-1191784Y-264631D01*
G01X-1211147Y-275223D01*
G01X-1228361Y-289035D01*
G01X-1242897Y-305643D01*
G01X-1254307Y-324536D01*
G01X-1262240Y-345131D01*
G01X-1266452Y-366796D01*
G01X-1266813Y-388864D01*
G01X-1263313Y-410655D01*
G01X-1256058Y-431500D01*
G01X-1245272Y-450756D01*
G01X-1231288Y-467830D01*
G01X-1214534Y-482199D01*
G01X-1195528Y-493418D01*
G01X-1174854Y-501144D01*
G01X-1153148Y-505138D01*
G01X-1131077Y-505277D01*
G01X-1109322Y-501558D01*
G01X-1088552Y-494094D01*
G01X-1069405Y-483115D01*
G01X-1052472Y-468960D01*
G01X-1044684Y-461551D01*
G01X-1042992Y-459829D01*
G01X-1034344Y-450413D01*
G01X-1032646Y-448423D01*
G01X-1026102Y-440160D01*
G01X-1024908Y-438562D01*
G01X-1019457Y-430832D01*
G01X-1019200Y-430463D01*
G01X-1014180Y-423150D01*
G01X-1008887Y-415980D01*
G01X-1002060Y-407804D01*
G01X-991987Y-397164D01*
G01X-809187Y-214365D01*
G01X-801987Y-223848D01*
G01X-757574Y-268261D01*
G01X-751995Y-272980D01*
G01X-745711Y-276708D01*
G01X-759747Y-292903D01*
G01X-774536Y-308413D01*
G01X-966290Y-500167D01*
G01X-982400Y-514915D01*
G01X-999748Y-528185D01*
G01X-1018199Y-539875D01*
G01X-1020832Y-541185D01*
G01X-1022761Y-541899D01*
G01X-1024938Y-542460D01*
G01X-1027418Y-542850D01*
G01X-1030224Y-543039D01*
G01X-1033351Y-542994D01*
G01X-1036773Y-542688D01*
G01X-1039936Y-542186D01*
G01X-1048411Y-540034D01*
G01X-1056688Y-536961D01*
G01X-1064932Y-532989D01*
G01X-1073426Y-527959D01*
G01X-1092386Y-517974D01*
G01X-1112766Y-511351D01*
G01X-1133974Y-508282D01*
G01X-1155395Y-508857D01*
G01X-1176408Y-513059D01*
G01X-1196403Y-520766D01*
G01X-1214800Y-531754D01*
G01X-1231066Y-545706D01*
G01X-1244728Y-562215D01*
G01X-1255390Y-580803D01*
G01X-1262743Y-600931D01*
G01X-1266573Y-622015D01*
G01X-1266771Y-643443D01*
G01X-1263328Y-664593D01*
G01X-1256347Y-684853D01*
G01X-1246028Y-703634D01*
G01X-1232672Y-720392D01*
G01X-1216666Y-734639D01*
G01X-1198474Y-745964D01*
G01X-1178624Y-754038D01*
G01X-1157691Y-758625D01*
G01X-1136284Y-759594D01*
G01X-1115023Y-756916D01*
G01X-1094525Y-750669D01*
G01X-1108378Y-764522D01*
G01X-1109947Y-764737D01*
G01X-1112404Y-764885D01*
G01X-1115029Y-764845D01*
G01X-1136444Y-762162D01*
G01X-1158002Y-763178D01*
G01X-1179069Y-767864D01*
G01X-1199026Y-776081D01*
G01X-1217284Y-787588D01*
G01X-1233307Y-802047D01*
G01X-1246624Y-819031D01*
G01X-1256841Y-838041D01*
G01X-1263660Y-858518D01*
G01X-1266878Y-879858D01*
G01X-1266402Y-901435D01*
G01X-1262245Y-922613D01*
G01X-1254530Y-942769D01*
G01X-1243484Y-961310D01*
G01X-1261450Y-952394D01*
G01X-1277534Y-940410D01*
G01X-1277452Y-938744D01*
G01X-1276283Y-929923D01*
G01X-1275711Y-926903D01*
G01X-1270822Y-906025D01*
G01X-1269549Y-884620D01*
G01X-1271930Y-863309D01*
G01X-1277895Y-842712D01*
G01X-1287270Y-823427D01*
G01X-1299785Y-806015D01*
G01X-1315075Y-790980D01*
G01X-1332696Y-778761D01*
G01X-1352136Y-769711D01*
G01X-1372830Y-764094D01*
G01X-1394178Y-762072D01*
G01X-1415559Y-763706D01*
G01X-1436352Y-768946D01*
G01X-1455953Y-777641D01*
G01X-1473793Y-789539D01*
G01X-1489353Y-804293D01*
G01X-1502182Y-821475D01*
G01X-1511907Y-840587D01*
G37*
G36*
G01X-1511907Y-1167281D02*
G01X-1511907Y-935176D01*
G01X-1502440Y-953871D01*
G01X-1490001Y-970735D01*
G01X-1474935Y-985301D01*
G01X-1457661Y-997164D01*
G01X-1438657Y-1005996D01*
G01X-1418451Y-1011550D01*
G01X-1397604Y-1013674D01*
G01X-1376693Y-1012308D01*
G01X-1356299Y-1007491D01*
G01X-1353279Y-1006918D01*
G01X-1344458Y-1005750D01*
G01X-1342426Y-1005650D01*
G01X-1322714Y-1021955D01*
G01X-1301114Y-1035661D01*
G01X-1277967Y-1046552D01*
G01X-1253638Y-1054456D01*
G01X-1228510Y-1059249D01*
G01X-1202979Y-1060855D01*
G01X-983570Y-1060855D01*
G01X-995850Y-1078237D01*
G01X-1005024Y-1097440D01*
G01X-1010831Y-1117915D01*
G01X-1013103Y-1139075D01*
G01X-1011776Y-1160316D01*
G01X-1006889Y-1181029D01*
G01X-998580Y-1200622D01*
G01X-987087Y-1218534D01*
G01X-972740Y-1234253D01*
G01X-955949Y-1247329D01*
G01X-937194Y-1257388D01*
G01X-917012Y-1264141D01*
G01X-895980Y-1267397D01*
G01X-874701Y-1267060D01*
G01X-879729Y-1270067D01*
G01X-977320Y-1270067D01*
G01X-988388Y-1271820D01*
G01X-998371Y-1276907D01*
G01X-1006295Y-1284830D01*
G01X-1011382Y-1294814D01*
G01X-1013134Y-1305881D01*
G01X-1013134Y-1485881D01*
G01X-1011751Y-1495739D01*
G01X-1007708Y-1504835D01*
G01X-1001317Y-1512467D01*
G01X-1166721Y-1512467D01*
G01X-1202803Y-1510576D01*
G01X-1238489Y-1504924D01*
G01X-1273389Y-1495573D01*
G01X-1307121Y-1482624D01*
G01X-1339314Y-1466221D01*
G01X-1369616Y-1446542D01*
G01X-1397695Y-1423804D01*
G01X-1423244Y-1398256D01*
G01X-1445982Y-1370176D01*
G01X-1465661Y-1339874D01*
G01X-1482064Y-1307681D01*
G01X-1495012Y-1273949D01*
G01X-1504364Y-1239049D01*
G01X-1510016Y-1203363D01*
G01X-1511907Y-1167281D01*
G37*
G36*
G01X-659902Y-446080D02*
G01X-655655Y-442327D01*
G01X-495737Y-282409D01*
G01X-487135Y-295487D01*
G01X-475479Y-305937D01*
G01X-461541Y-313065D01*
G01X-446246Y-316399D01*
G01X-442090Y-330848D01*
G01X-434515Y-343836D01*
G01X-423986Y-354569D01*
G01X-411145Y-362391D01*
G01X-396778Y-366823D01*
G01X-381762Y-367595D01*
G01X-381786Y-370688D01*
G01X-383727Y-400303D01*
G01X-389517Y-429411D01*
G01X-399057Y-457514D01*
G01X-412184Y-484132D01*
G01X-428672Y-508809D01*
G01X-448240Y-531122D01*
G01X-832271Y-915153D01*
G01X-850320Y-930982D01*
G01X-870281Y-944319D01*
G01X-891812Y-954937D01*
G01X-914545Y-962654D01*
G01X-938090Y-967337D01*
G01X-962045Y-968907D01*
G01X-1045071Y-968907D01*
G01X-1033682Y-953020D01*
G01X-1024891Y-935560D01*
G01X-1018911Y-916949D01*
G01X-1015885Y-897636D01*
G01X-1015888Y-878088D01*
G01X-1018919Y-858776D01*
G01X-1019647Y-854988D01*
G01X-1020256Y-852359D01*
G01X-1023643Y-839889D01*
G01X-1023849Y-839162D01*
G01X-1026977Y-828534D01*
G01X-1028989Y-820245D01*
G01X-1029277Y-818321D01*
G01X-1029353Y-816976D01*
G01X-1029306Y-816402D01*
G01X-1029031Y-815876D01*
G01X-1028097Y-814555D01*
G01X-1025536Y-811713D01*
G01X-659902Y-446080D01*
G37*
G36*
G01X-505418Y56745D02*
G01X-488668Y56745D01*
G01X-485256Y55331D01*
G01X-455631Y25707D01*
G01X-452808Y23110D01*
G01X-432007Y2309D01*
G01X-430739Y1102D01*
G01X-431989Y-89D01*
G01X-444215Y-12316D01*
G01X-451206Y-16449D01*
G01X-457409Y-21691D01*
G01X-564127Y-128409D01*
G01X-566671Y-130342D01*
G01X-573488Y-126647D01*
G01X-580849Y-124210D01*
G01X-585233Y-112904D01*
G01X-592541Y-103228D01*
G01X-636954Y-58815D01*
G01X-646437Y-51615D01*
G01X-561171Y33651D01*
G01X-549223Y43457D01*
G01X-535591Y50743D01*
G01X-520800Y55230D01*
G01X-505418Y56745D01*
G37*
G36*
G01X-343092Y-700770D02*
G01X-319746Y-675443D01*
G01X-298536Y-648303D01*
G01X-279601Y-619529D01*
G01X-279601Y-1065167D01*
G01X-294892Y-1048602D01*
G01X-312894Y-1035032D01*
G01X-333029Y-1024893D01*
G01X-354649Y-1018510D01*
G01X-377062Y-1016088D01*
G01X-399548Y-1017704D01*
G01X-421384Y-1023307D01*
G01X-441869Y-1032717D01*
G01X-460347Y-1045632D01*
G01X-460347Y-894044D01*
G01X-458776Y-870089D01*
G01X-454093Y-846543D01*
G01X-446376Y-823811D01*
G01X-435758Y-802280D01*
G01X-422421Y-782319D01*
G01X-406592Y-764270D01*
G01X-343092Y-700770D01*
G37*
G36*
G01X-23645Y-307066D02*
G01X-14580Y-313652D01*
G01X-3923Y-317114D01*
G01X7282Y-317114D01*
G01X17939Y-313652D01*
G01X27004Y-307066D01*
G01X111714Y-222355D01*
G01X115266Y-234515D01*
G01X121259Y-245676D01*
G01X129435Y-255353D01*
G01X116003Y-268785D01*
G01X109937Y-276866D01*
G01X101857Y-282931D01*
G01X87715Y-297073D01*
G01X81656Y-305142D01*
G01X73587Y-311201D01*
G01X59445Y-325343D01*
G01X53380Y-333424D01*
G01X45299Y-339489D01*
G01X31157Y-353631D01*
G01X26867Y-358815D01*
G01X14379Y-359307D01*
G01X4658Y-360347D01*
G01X-4624Y-363418D01*
G01X-13046Y-368383D01*
G01X-13653Y-367777D01*
G01X-21733Y-361711D01*
G01X-27798Y-353631D01*
G01X-41940Y-339489D01*
G01X-50021Y-333424D01*
G01X-56086Y-325343D01*
G01X-70228Y-311201D01*
G01X-78297Y-305142D01*
G01X-84356Y-297073D01*
G01X-98498Y-282931D01*
G01X-106579Y-276866D01*
G01X-112644Y-268785D01*
G01X-126786Y-254643D01*
G01X-134866Y-248578D01*
G01X-140932Y-240498D01*
G01X-155074Y-226356D01*
G01X-163154Y-220290D01*
G01X-169219Y-212210D01*
G01X-183361Y-198068D01*
G01X-191154Y-192163D01*
G01X-183809Y-179994D01*
G01X-179489Y-166454D01*
G01X-178430Y-152280D01*
G01X-23645Y-307066D01*
G37*
G36*
G01X-187653Y-753374D02*
G01X-168431Y-780233D01*
G01X-146389Y-804830D01*
G01X-98049Y-853170D01*
G01X-82220Y-871219D01*
G01X-68883Y-891180D01*
G01X-58265Y-912711D01*
G01X-50548Y-935443D01*
G01X-45865Y-958989D01*
G01X-44295Y-982944D01*
G01X-44295Y-1045632D01*
G01X-62182Y-1033057D01*
G01X-81977Y-1023769D01*
G01X-103080Y-1018049D01*
G01X-124856Y-1016068D01*
G01X-146645Y-1017888D01*
G01X-167790Y-1023452D01*
G01X-187653Y-1032593D01*
G01X-187653Y-753374D01*
G37*
G36*
G01X-183361Y200305D02*
G01X-169219Y214448D01*
G01X-164053Y220985D01*
G01X-152257Y213593D01*
G01X-139089Y209077D01*
G01X-125239Y207674D01*
G01X-167445Y165468D01*
G01X-170341Y178052D01*
G01X-175829Y189742D01*
G01X-183662Y200008D01*
G01X-183361Y200305D01*
G37*
G36*
G01X1083465Y-1512467D02*
G01X937974Y-1512467D01*
G01X956676Y-1502996D01*
G01X973545Y-1490551D01*
G01X988114Y-1475478D01*
G01X999977Y-1458196D01*
G01X1008807Y-1439183D01*
G01X1014357Y-1418968D01*
G01X1016473Y-1398113D01*
G01X1016914Y-1385562D01*
G01X1016935Y-1384559D01*
G01X1017042Y-1369349D01*
G01X1017121Y-1355770D01*
G01X1017561Y-1344002D01*
G01X1018642Y-1333593D01*
G01X1020719Y-1323268D01*
G01X1022016Y-1318766D01*
G01X1023829Y-1313600D01*
G01X1026112Y-1308109D01*
G01X1029152Y-1301783D01*
G01X1040827Y-1275985D01*
G01X1050017Y-1249200D01*
G01X1056640Y-1221669D01*
G01X1060637Y-1193636D01*
G01X1061974Y-1165350D01*
G01X1061974Y-1133910D01*
G01X1060088Y-1100324D01*
G01X1054453Y-1067160D01*
G01X1045140Y-1034835D01*
G01X1032267Y-1003757D01*
G01X1015995Y-974315D01*
G01X996529Y-946880D01*
G01X974114Y-921797D01*
G01X951553Y-902012D01*
G01X926603Y-885341D01*
G01X899691Y-872069D01*
G01X871277Y-862424D01*
G01X841846Y-856570D01*
G01X811904Y-854607D01*
G01X397606Y-854607D01*
G01X367823Y-852935D01*
G01X338414Y-847938D01*
G01X309750Y-839680D01*
G01X282190Y-828264D01*
G01X256082Y-813835D01*
G01X231753Y-796573D01*
G01X209511Y-776695D01*
G01X41888Y-609073D01*
G01X52153Y-604370D01*
G01X61372Y-597850D01*
G01X61623Y-597646D01*
G01X62819Y-597646D01*
G01X73185Y-596889D01*
G01X106770Y-630475D01*
G01X115835Y-637061D01*
G01X126492Y-640523D01*
G01X137697Y-640523D01*
G01X148353Y-637061D01*
G01X157419Y-630475D01*
G01X213287Y-574607D01*
G01X217791Y-569104D01*
G01X225981Y-575566D01*
G01X235257Y-583179D01*
G01X245840Y-588835D01*
G01X257324Y-592319D01*
G01X269266Y-593495D01*
G01X278979Y-593495D01*
G01X293999Y-591624D01*
G01X308100Y-586125D01*
G01X320421Y-577334D01*
G01X330208Y-565788D01*
G01X336864Y-552194D01*
G01X339980Y-537383D01*
G01X339368Y-522260D01*
G01X335063Y-507749D01*
G01X327329Y-494739D01*
G01X316640Y-484023D01*
G01X303648Y-476258D01*
G01X300259Y-465650D01*
G01X296739Y-455512D01*
G01X290373Y-446872D01*
G01X284260Y-440759D01*
G01X294680Y-431447D01*
G01X302698Y-420003D01*
G01X335370Y-452675D01*
G01X340742Y-457091D01*
G01X346865Y-460387D01*
G01X346865Y-786281D01*
G01X348261Y-791488D01*
G01X352072Y-795300D01*
G01X357279Y-796695D01*
G01X789079Y-796695D01*
G01X794286Y-795300D01*
G01X798098Y-791488D01*
G01X799493Y-786281D01*
G01X799493Y-456174D01*
G01X798098Y-450967D01*
G01X794286Y-447155D01*
G01X789079Y-445760D01*
G01X657253Y-445760D01*
G01X657253Y-428174D01*
G01X657492Y-421096D01*
G01X658217Y-420441D01*
G01X666001Y-427485D01*
G01X675494Y-431969D01*
G01X685879Y-433508D01*
G01X739880Y-433508D01*
G01X750947Y-431755D01*
G01X760931Y-426668D01*
G01X768854Y-418745D01*
G01X773941Y-408761D01*
G01X775694Y-397694D01*
G01X775694Y-318685D01*
G01X774860Y-311004D01*
G01X772399Y-303681D01*
G01X774860Y-296358D01*
G01X775694Y-288677D01*
G01X775694Y-209668D01*
G01X773875Y-198400D01*
G01X768603Y-188276D01*
G01X760413Y-180325D01*
G01X750137Y-175354D01*
G01X759476Y-172181D01*
G01X767594Y-166581D01*
G01X773877Y-158978D01*
G01X777848Y-149950D01*
G01X779206Y-140181D01*
G01X779206Y-86181D01*
G01X777454Y-75114D01*
G01X772367Y-65130D01*
G01X764443Y-57207D01*
G01X754460Y-52120D01*
G01X743392Y-50367D01*
G01X664383Y-50367D01*
G01X656703Y-51200D01*
G01X649379Y-53661D01*
G01X642056Y-51200D01*
G01X634376Y-50367D01*
G01X626453Y-50367D01*
G01X637888Y-45216D01*
G01X647653Y-37347D01*
G01X655118Y-27269D01*
G01X659799Y-15634D01*
G01X661394Y-3194D01*
G01X661394Y48815D01*
G01X659534Y62231D01*
G01X654094Y74635D01*
G01X658998Y74779D01*
G01X674357Y73226D01*
G01X682492Y70423D01*
G01X689629Y65616D01*
G01X695286Y59132D01*
G01X702085Y51531D01*
G01X762610Y745D01*
G01X769029Y-3554D01*
G01X776221Y-6376D01*
G01X780249Y-12969D01*
G01X785597Y-18544D01*
G01X846121Y-69330D01*
G01X851555Y-73093D01*
G01X869956Y-84852D01*
G01X886946Y-98569D01*
G01X952120Y-154746D01*
G01X1019828Y-207843D01*
G01X1034719Y-220048D01*
G01X1023825Y-225930D01*
G01X1014739Y-234340D01*
G01X981308Y-274181D01*
G01X974391Y-285039D01*
G01X970520Y-297317D01*
G01X969959Y-310178D01*
G01X972745Y-322746D01*
G01X978689Y-334165D01*
G01X987387Y-343657D01*
G01X1008070Y-361012D01*
G01X1018927Y-367929D01*
G01X1031205Y-371800D01*
G01X1044066Y-372362D01*
G01X1056635Y-369575D01*
G01X1068054Y-363631D01*
G01X1077545Y-354934D01*
G01X1083465Y-347878D01*
G01X1083465Y-1512467D01*
G37*
G36*
G01X468895Y531751D02*
G01X468240Y531112D01*
G01X412372Y475244D01*
G01X407531Y469224D01*
G01X404093Y462306D01*
G01X397174Y458868D01*
G01X391154Y454026D01*
G01X352459Y415331D01*
G01X353910Y435197D01*
G01X354914Y444536D01*
G01X354914Y484901D01*
G01X354593Y490201D01*
G01X369979Y490437D01*
G01X384011Y492067D01*
G01X397295Y496870D01*
G01X409124Y504589D01*
G01X418870Y514815D01*
G01X426011Y527002D01*
G01X430170Y540502D01*
G01X431123Y554595D01*
G01X428820Y568532D01*
G01X480429Y620141D01*
G01X485997Y627345D01*
G01X489567Y635720D01*
G01X490911Y644725D01*
G01X510260Y625909D01*
G01X533214Y601734D01*
G01X522552Y586190D01*
G01X510298Y571868D01*
G01X468895Y531751D01*
G37*
G36*
G01X441887Y-396807D02*
G01X446728Y-390787D01*
G01X450166Y-383868D01*
G01X457085Y-380430D01*
G01X463105Y-375588D01*
G01X483326Y-355367D01*
G01X494781Y-376496D01*
G01X503722Y-398805D01*
G01X510030Y-421996D01*
G01X513622Y-445760D01*
G01X392933Y-445760D01*
G01X441887Y-396807D01*
G37*
G36*
G01X424119Y309325D02*
G01X479987Y365193D01*
G01X482154Y367565D01*
G01X502453Y352647D01*
G01X511685Y340778D01*
G01X503281Y336246D01*
G01X495908Y330180D01*
G01X459132Y293404D01*
G01X458091Y292319D01*
G01X427638Y260013D01*
G01X422875Y270687D01*
G01X416157Y280252D01*
G01X415953Y280502D01*
G01X415953Y303214D01*
G01X424119Y309325D01*
G37*
G36*
G01X435366Y2309D02*
G01X447592Y14535D01*
G01X454583Y18669D01*
G01X460786Y23911D01*
G01X489275Y52400D01*
G01X499993Y57577D01*
G01X509297Y65002D01*
G01X516210Y70307D01*
G01X524261Y73641D01*
G01X532900Y74779D01*
G01X542905Y74373D01*
G01X537584Y62083D01*
G01X535765Y48815D01*
G01X535765Y-3194D01*
G01X537360Y-15634D01*
G01X542041Y-27269D01*
G01X549506Y-37347D01*
G01X559271Y-45216D01*
G01X570706Y-50367D01*
G01X555366Y-50367D01*
G01X552680Y-50468D01*
G01X512761Y-51967D01*
G01X500501Y-50867D01*
G01X488632Y-47602D01*
G01X477535Y-42276D01*
G01X435348Y-89D01*
G01X434098Y1102D01*
G01X435366Y2309D01*
G37*
G54D10*
G01X-576374Y428034D02*
G01X-811121Y193287D01*
G01X-885652Y267819D01*
G01X-655568Y497903D01*
G01X-646243Y497903D01*
G01X-576374Y428034D01*
G01X-496161Y602831D02*
G01X-496161Y604345D01*
G01X-433390Y667116D01*
G03X-426420Y707923I-25324J25324D01*
G01X-426420Y750156D01*
G01X-423561Y753015D01*
G03X-398011Y763503I226J35813D01*
G01X-359827Y801688D01*
G03X-349338Y827238I-25324J25324D01*
G01X-295548Y881028D01*
G01X-227276Y812757D01*
G01X-464140Y575893D01*
G03X-466217Y572887I7184J-7184D01*
G01X-496161Y602831D01*
G01X-966061Y49379D02*
G01X-966061Y186261D01*
G01X-887871Y264451D01*
G01X-809709Y186288D01*
G01X-809709Y105799D01*
G01X-866129Y49379D01*
G01X-966061Y49379D01*
G01X-157583Y702466D02*
G03X-173266Y666042I44963J-40947D01*
G01X-193029Y646279D01*
G01X-342709Y646279D01*
G01X-370649Y674219D01*
G01X-286751Y758117D01*
G03X-283775Y765301I-7184J7184D01*
G01X-283775Y880258D01*
G01X-167928Y880258D01*
G01X-122781Y835110D01*
G01X-122781Y721478D01*
G03X-157583Y702466I10160J-59959D01*
G01X-1511907Y-840587D02*
G01X-1511907Y-681176D01*
G03X-1269507Y-633881I116586J47294D01*
G03X-1511907Y-586587I-125814J0D01*
G01X-1511907Y-427176D01*
G03X-1269507Y-379881I116586J47294D01*
G03X-1511907Y-332587I-125814J0D01*
G01X-1511907Y-173176D01*
G03X-1269507Y-125881I116586J47294D01*
G03X-1511907Y-78587I-125814J0D01*
G01X-1511907Y80824D01*
G03X-1269507Y128119I116586J47294D01*
G03X-1511907Y175413I-125814J0D01*
G01X-1511907Y334824D01*
G03X-1269507Y382119I116586J47294D01*
G03X-1511907Y429413I-125814J0D01*
G01X-1511907Y588824D01*
G03X-1269507Y636119I116586J47294D01*
G03X-1511907Y683413I-125814J0D01*
G01X-1511907Y776123D01*
G03X-1485320Y764305I26586J23996D01*
G01X-1305321Y764305D01*
G03X-1269507Y800119I0J35814D01*
G01X-1269507Y980119D01*
G03X-1305321Y1015933I-35814J0D01*
G01X-1485320Y1015933D01*
G03X-1511907Y1004115I0J-35814D01*
G01X-1511907Y1168410D01*
G02X-1166721Y1513596I345186J0D01*
G01X-937262Y1513596D01*
G03X-887321Y1272305I49941J-115477D01*
G03X-837379Y1513596I0J125814D01*
G01X-683262Y1513596D01*
G03X-633321Y1272305I49941J-115477D01*
G03X-583379Y1513596I0J125814D01*
G01X-429262Y1513596D01*
G03X-379321Y1272305I49941J-115477D01*
G03X-329379Y1513596I0J125814D01*
G01X-175262Y1513596D01*
G03X-125321Y1272305I49941J-115477D01*
G03X-75379Y1513596I0J125814D01*
G01X78738Y1513596D01*
G03X128679Y1272305I49941J-115477D01*
G03X178621Y1513596I0J125814D01*
G01X332738Y1513596D01*
G03X382679Y1272305I49941J-115477D01*
G03X432621Y1513596I0J125814D01*
G01X586738Y1513596D01*
G03X636679Y1272305I49941J-115477D01*
G03X686621Y1513596I0J125814D01*
G01X775509Y1513596D01*
G03X764866Y1488119I25170J-25477D01*
G01X764866Y1308119D01*
G03X800680Y1272305I35814J0D01*
G01X980679Y1272305D01*
G03X1016493Y1308119I0J35814D01*
G01X1016493Y1488119D01*
G03X1005850Y1513596I-35814J0D01*
G01X1170583Y1513596D01*
G02X1515769Y1168410I0J-345186D01*
G01X1515769Y919883D01*
G03X1277866Y890119I-117090J-29765D01*
G03X1515769Y860354I120814J0D01*
G01X1515769Y665883D01*
G03X1277866Y636119I-117090J-29765D01*
G03X1515769Y606354I120814J0D01*
G01X1515769Y411883D01*
G03X1277866Y382119I-117090J-29765D01*
G03X1515769Y352354I120814J0D01*
G01X1515769Y229021D01*
G03X1483679Y248933I-32090J-15902D01*
G01X1313680Y248933D01*
G03X1277866Y213119I0J-35814D01*
G01X1277866Y43119D01*
G03X1313680Y7305I35814J0D01*
G01X1483679Y7305D01*
G03X1515769Y27217I0J35814D01*
G01X1515769Y-240183D01*
G01X1227207Y-240183D01*
G01X1211778Y-224754D01*
G02X1192529Y-202290I136080J136080D01*
G03X1174972Y-162106I-49255J2407D01*
G01X1154289Y-144750D01*
G03X1108074Y-135398I-31698J-37777D01*
G02X1082902Y-121801I33279J91704D01*
G02X959185Y-20064I1048632J1401280D01*
G02X937411Y11982I54589J60512D01*
G03X926874Y26907I-33558J-12510D01*
G01X866349Y77693D01*
G03X852738Y84814I-23021J-27435D01*
G03X843362Y96982I-32397J-15267D01*
G01X818062Y118211D01*
G03X873103Y195094I-3583J60708D01*
G03X877294Y211906I-31623J16811D01*
G01X877294Y213016D01*
G03X909879Y198540I32586J29438D01*
G01X947680Y198540D01*
G03X980994Y213843I0J43914D01*
G02X1012479Y195302I-20085J-70111D01*
G01X1026711Y181071D01*
G01X1027102Y175664D01*
G01X1026878Y166977D01*
G01X1024988Y144852D01*
G01X1024960Y144503D01*
G01X1024933Y144144D01*
G03X1230108Y42691I119746J-16025D01*
G03X1128655Y247865I-85428J85428D01*
G01X1128296Y247838D01*
G01X1127946Y247810D01*
G01X1105822Y245921D01*
G01X1097134Y245696D01*
G01X1091728Y246088D01*
G01X1077496Y260319D01*
G03X1040758Y287986I-116587J-116587D01*
G01X1056145Y287986D01*
G01X1058419Y287746D01*
G01X1061567Y286915D01*
G01X1066818Y284980D01*
G01X1073325Y282152D01*
G01X1088411Y275015D01*
G01X1088977Y274753D01*
G01X1092278Y273261D01*
G03X1258929Y421401I52401J108858D01*
G03X1036414Y435734I-114249J-39283D01*
G01X1033207Y429986D01*
G01X1029736Y425112D01*
G01X1025660Y420519D01*
G01X1021297Y416588D01*
G01X1017032Y413600D01*
G01X1012580Y411337D01*
G01X1011676Y411009D01*
G01X1010401Y410671D01*
G01X1009477Y410521D01*
G02X950386Y413195I14402J972569D01*
G03X947680Y413297I-2706J-35712D01*
G01X909879Y413297D01*
G03X877294Y398822I0J-43914D01*
G01X877294Y399932D01*
G03X841480Y435746I-35814J0D01*
G01X787479Y435746D01*
G03X751665Y399932I0J-35814D01*
G01X751665Y320923D01*
G03X754960Y305919I35814J0D01*
G03X751665Y290915I32520J-15004D01*
G01X751665Y211906D01*
G03X755856Y195094I35814J0D01*
G03X757076Y158840I58623J-16176D01*
G02X717277Y171954I1281174J3955175D01*
G03X658998Y181459I-58279J-173917D01*
G02X655100Y181938I0J16098D01*
G03X612080Y207146I-43021J-24106D01*
G01X585079Y207146D01*
G03X542675Y183005I0J-49314D01*
G02X532900Y181459I-9774J30112D01*
G03X522932Y181104I0J-140061D01*
G02X546879Y203530I1228155J-1287418D01*
G01X547965Y204571D01*
G01X584741Y241347D01*
G03X598481Y267918I-34870J34870D01*
G03X625051Y281658I-8300J48611D01*
G01X661827Y318434D01*
G03X661827Y388174I-34870J34870D01*
G01X642735Y407266D01*
G03X608388Y421707I-34870J-34870D01*
G01X594012Y435535D01*
G02X574791Y461759I125764J112333D01*
G02X598143Y486356I931860J-861294D01*
G02X625862Y507558I120915J-129363D01*
G03X628272Y504893I27735J22659D01*
G01X684140Y449025D01*
G03X734789Y449025I25324J25324D01*
G01X772973Y487209D01*
G03X772973Y537858I-25324J25324D01*
G01X717105Y593726D01*
G03X704166Y602006I-25324J-25324D01*
G03X695887Y614944I-33604J-12386D01*
G01X640019Y670812D01*
G01X639363Y671451D01*
G02X609579Y700152I2030138J2136607D01*
G01X609162Y700635D01*
G01X660128Y700635D01*
G03X660128Y823063I0J61214D01*
G01X584894Y823063D01*
G02X514886Y834298I0J223729D01*
G03X465139Y833427I-24422J-26195D01*
G01X408571Y776859D01*
G03X398851Y744149I25324J-25324D01*
G03X366141Y734429I-7386J-35044D01*
G01X309573Y677861D01*
G03X309573Y627212I25324J-25324D01*
G01X322179Y614605D01*
G02X316231Y615066I47800J655725D01*
G03X311000Y615379I-5231J-43601D01*
G01X273200Y615379D01*
G03X229286Y571464I0J-43914D01*
G01X229286Y563670D01*
G03X195824Y559451I-9422J-60080D01*
G03X178856Y570478I-41161J-44768D01*
G01X422099Y813721D01*
G02X556869Y869545I134770J-134771D01*
G03X768983Y957405I-0J299974D01*
G01X833316Y1021738D01*
G01X835790Y1021986D01*
G01X839197Y1022102D01*
G01X849162Y1021773D01*
G01X872711Y1019595D01*
G03X979643Y1233083I17968J124524D01*
G03X766155Y1126151I-88964J-88964D01*
G01X768334Y1102601D01*
G01X768663Y1092637D01*
G01X768546Y1089230D01*
G01X768299Y1086755D01*
G01X703966Y1022422D01*
G02X556869Y961493I-147097J147097D01*
G03X500739Y955861I-0J-282542D01*
G01X571035Y1026157D01*
G01X574195Y1029027D01*
G01X575658Y1029939D01*
G01X577374Y1029621D01*
G01X585713Y1027359D01*
G01X596447Y1024208D01*
G01X598556Y1023658D01*
G01X611043Y1020804D01*
G03X613934Y1020267I7979J34914D01*
G01X620832Y1019277D01*
G01X623285Y1019011D01*
G01X623567Y1018990D01*
G03X721984Y1236597I13113J125129D01*
G03X513014Y1120968I-85305J-92478D01*
G01X513622Y1113075D01*
G01X513863Y1103665D01*
G01X513730Y1100678D01*
G01X513486Y1098642D01*
G01X482890Y1068046D01*
G03X381926Y1269930I-100210J76072D01*
G03X283388Y1066851I754J-125812D01*
G01X298016Y1047258D01*
G01X304959Y1037486D01*
G01X310123Y1028883D01*
G01X311503Y1026012D01*
G01X312583Y1023202D01*
G01X313244Y1020830D01*
G01X313584Y1018769D01*
G01X313675Y1016802D01*
G01X313513Y1014652D01*
G01X312998Y1012038D01*
G01X311679Y1007894D01*
G02X224447Y873104I-358247J136226D01*
G01X156942Y805599D01*
G03X174653Y926795I-405807J121196D01*
G01X174653Y1017020D01*
G01X176228Y1018945D01*
G01X178555Y1021437D01*
G01X185834Y1028250D01*
G01X204026Y1043362D01*
G03X128679Y1269933I-75346J100757D01*
G03X53333Y1043362I0J-125814D01*
G01X71525Y1028250D01*
G01X78804Y1021437D01*
G01X81131Y1018945D01*
G01X82705Y1017020D01*
G01X82705Y926795D01*
G02X22235Y735892I-331570J0D01*
G03X22253Y738622I-201437J2729D01*
G01X22253Y898835D01*
G03X-1113Y1032303I-392858J-0D01*
G01X-3452Y1039309D01*
G01X-5072Y1045233D01*
G01X-6211Y1050625D01*
G01X-6954Y1055631D01*
G01X-7369Y1060419D01*
G01X-7495Y1064767D01*
G01X-7011Y1075360D01*
G01X-5672Y1086929D01*
G01X-3725Y1100450D01*
G01X-3673Y1100823D01*
G01X-1632Y1116134D01*
G01X-1474Y1117533D01*
G01X-338Y1129680D01*
G03X-201460Y1244278I-124983J14439D01*
G03X-144843Y1019829I76140J-100159D01*
G01X-120395Y1015563D01*
G01X-108929Y1013209D01*
G01X-99574Y1010474D01*
G01X-96838Y1009375D01*
G01X-94378Y1008134D01*
G01X-92558Y1006973D01*
G01X-91202Y1005872D01*
G01X-90090Y1004714D01*
G01X-89020Y1003267D01*
G01X-87875Y1001225D01*
G01X-86305Y997429D01*
G02X-69695Y898835I-284299J-98594D01*
G01X-69695Y738622D01*
G02X-101769Y661188I-109508J0D01*
G01X-175530Y587427D01*
G03X-222095Y475009I112418J-112417D01*
G01X-222095Y397940D01*
G03X-219517Y375751I96774J0D01*
G01X-234949Y391184D01*
G03X-243027Y429428I-33402J12920D01*
G01X-281211Y467612D01*
G03X-307373Y478092I-25324J-25324D01*
G03X-421053Y446558I-52466J-31535D01*
G01X-421053Y429302D01*
G03X-407964Y391471I61214J0D01*
G01X-408946Y390526D01*
G01X-464814Y334658D01*
G03X-464814Y284009I25324J-25324D01*
G01X-456506Y275701D01*
G02X-496555Y292690I986J58023D01*
G01X-506081Y302216D01*
G01X-506111Y302515D01*
G03X-582895Y356496I-60636J-4650D01*
G01X-536681Y402709D01*
G03X-536681Y453358I-25324J25324D01*
G01X-616711Y533388D01*
G03X-642035Y543877I-25324J-25324D01*
G01X-659776Y543877D01*
G03X-685100Y533388I0J-35814D01*
G01X-741666Y476822D01*
G03X-747990Y485384I-31649J-16763D01*
G01X-748728Y486122D01*
G01X-684424Y550427D01*
G03X-684424Y601075I-25324J25324D01*
G01X-726850Y643502D01*
G03X-777499Y643502I-25324J-25324D01*
G01X-848209Y572791D01*
G03X-857775Y539385I25324J-25324D01*
G01X-918847Y478313D01*
G03X-926004Y437901I25324J-25324D01*
G03X-947724Y427593I3604J-35632D01*
G01X-985908Y389409D01*
G03X-985908Y338761I25324J-25324D01*
G01X-932243Y285096D01*
G01X-1001545Y215794D01*
G03X-1012035Y190470I25324J-25324D01*
G01X-1012035Y39219D01*
G03X-976221Y3405I35814J0D01*
G01X-861921Y3405D01*
G03X-836596Y13895I0J35814D01*
G01X-774225Y76266D01*
G03X-763735Y101591I-25324J25324D01*
G01X-763735Y175656D01*
G01X-625378Y314013D01*
G03X-571418Y237231I58631J-16148D01*
G01X-571097Y237198D01*
G01X-563627Y229728D01*
G03X-671307Y167850I60694J-230253D01*
G01X-801809Y37347D01*
G02X-931584Y-16407I-129774J129774D01*
G01X-931957Y-16407D01*
G02X-1039327Y27647I0J152868D01*
G01X-1041072Y29616D01*
G01X-1041635Y30445D01*
G01X-1041924Y31021D01*
G01X-1042115Y31578D01*
G01X-1042277Y32368D01*
G01X-1042381Y33597D01*
G01X-1042342Y35383D01*
G01X-1042070Y37761D01*
G01X-1041494Y40709D01*
G01X-1040680Y43780D01*
G01X-1037628Y52506D01*
G01X-1033525Y61996D01*
G01X-1028471Y72493D01*
G03X-1206604Y235670I-112849J55626D01*
G03X-1144053Y2335I65284J-107551D01*
G01X-1141651Y-68D01*
G03X-1253738Y-182374I330J-125813D01*
G03X-1040563Y-201228I112418J56493D01*
G01X-1025452Y-183035D01*
G01X-1018638Y-175756D01*
G01X-1016147Y-173430D01*
G01X-1014222Y-171855D01*
G01X-962244Y-171855D01*
G03X-888937Y-164081I0J349498D01*
G01X-1035966Y-311110D01*
G03X-1266452Y-366796I-105355J-68772D01*
G03X-1052472Y-468960I125132J-13085D01*
G01X-1044684Y-461551D01*
G01X-1042992Y-459829D01*
G01X-1034344Y-450413D01*
G03X-1032646Y-448423I-26377J24226D01*
G01X-1026102Y-440160D01*
G01X-1024908Y-438562D01*
G01X-1019457Y-430832D01*
G01X-1019200Y-430463D01*
G01X-1014180Y-423150D01*
G01X-1008887Y-415980D01*
G01X-1002060Y-407804D01*
G01X-991987Y-397164D01*
G01X-809187Y-214365D01*
G03X-801987Y-223848I38252J21569D01*
G01X-757574Y-268261D01*
G03X-745711Y-276708I31052J31052D01*
G02X-774536Y-308413I-347513J286984D01*
G01X-966290Y-500167D01*
G02X-1018199Y-539875I-175031J175031D01*
G01X-1020832Y-541185D01*
G01X-1022761Y-541899D01*
G01X-1024938Y-542460D01*
G01X-1027418Y-542850D01*
G01X-1030224Y-543039D01*
G01X-1033351Y-542994D01*
G01X-1036773Y-542688D01*
G01X-1039936Y-542186D01*
G01X-1048411Y-540034D01*
G01X-1056688Y-536961D01*
G01X-1064932Y-532989D01*
G01X-1073426Y-527959D01*
G03X-1266573Y-622015I-67895J-105922D01*
G03X-1094525Y-750669I125253J-11867D01*
G01X-1108378Y-764522D01*
G01X-1109947Y-764737D01*
G01X-1112404Y-764885D01*
G01X-1115029Y-764845D01*
G03X-1246624Y-819031I-26291J-123036D01*
G03X-1243484Y-961310I105303J-68850D01*
G02X-1277534Y-940410I40505J104178D01*
G01X-1277452Y-938744D01*
G01X-1276283Y-929923D01*
G01X-1275711Y-926903D01*
G03X-1352136Y-769711I-119609J39022D01*
G03X-1511907Y-840587I-43185J-118170D01*
G01X-1398464Y1245448D02*
G03X-1086836Y1245448I155814J0D01*
G03X-1398464Y1245448I-155814J0D01*
G01X-1141321Y507933D02*
G03X-1141321Y256305I0J-125814D01*
G03X-1141321Y507933I0J125814D01*
G01X-1141321Y1015933D02*
G03X-1141321Y764305I0J-125814D01*
G03X-1141321Y1015933I0J125814D01*
G01X-1141321Y761933D02*
G03X-1141321Y510305I0J-125814D01*
G03X-1141321Y761933I0J125814D01*
G01X-664347Y756653D02*
G03X-664347Y706004I25324J-25324D01*
G01X-621921Y663578D01*
G03X-606320Y654433I25324J25324D01*
G03X-597175Y638832I34469J9723D01*
G01X-554749Y596406D01*
G03X-540410Y587643I25324J25324D01*
G03X-531645Y573298I34089J10980D01*
G01X-482280Y523933D01*
G03X-421429Y544733I25324J25324D01*
G01X-366217Y599944D01*
G03X-362736Y603988I-25324J25324D01*
G03X-346917Y600305I15818J32131D01*
G01X-188821Y600305D01*
G03X-163496Y610795I0J35814D01*
G01X-87296Y686995D01*
G03X-76807Y712319I-25324J25324D01*
G01X-76807Y839319D01*
G03X-87296Y864643I-35814J0D01*
G01X-138395Y915742D01*
G03X-163720Y926232I-25324J-25324D01*
G01X-234291Y926232D01*
G03X-258508Y929663I-16831J-31613D01*
G03X-268228Y962374I-35044J7386D01*
G01X-324796Y1018942D01*
G03X-335344Y1026241I-25324J-25324D01*
G03X-315153Y1252339I-43977J117878D01*
G03X-503845Y1126151I-64167J-108220D01*
G01X-501666Y1102601D01*
G01X-501337Y1092637D01*
G01X-501453Y1089230D01*
G01X-501701Y1086755D01*
G01X-609157Y979299D01*
G01X-606856Y984696D01*
G01X-604073Y990410D01*
G01X-601284Y995437D01*
G01X-598704Y999540D01*
G01X-592370Y1008014D01*
G01X-585392Y1015720D01*
G01X-576941Y1023941D01*
G01X-566900Y1033220D01*
G01X-566654Y1033450D01*
G01X-555431Y1044019D01*
G01X-554516Y1044912D01*
G01X-545619Y1053910D01*
G03X-628789Y1269851I-87701J90209D01*
G03X-727288Y1060458I-4532J-125732D01*
G01X-711061Y1041575D01*
G01X-703370Y1032058D01*
G01X-700703Y1028344D01*
G01X-698508Y1024894D01*
G01X-696934Y1021971D01*
G01X-695921Y1019609D01*
G01X-695355Y1017774D01*
G01X-695094Y1016327D01*
G01X-695031Y1015007D01*
G01X-695165Y1013464D01*
G01X-695632Y1011359D01*
G01X-696979Y1007569D01*
G02X-734208Y948375I-203451J86652D01*
G03X-747224Y972316I-58578J-16338D01*
G01X-747494Y972648D01*
G01X-748617Y974960D01*
G01X-749830Y978515D01*
G01X-751119Y983606D01*
G03X-791707Y1062344I-171749J-38703D01*
G03X-944292Y1256295I-95614J81775D01*
G03X-877693Y1018674I56971J-112176D01*
G01X-863395Y1004376D01*
G02X-841946Y967834I-59473J-59473D01*
G03X-802732Y872042I49160J-35798D01*
G03X-774377Y823445I60746J2873D01*
G03X-718297Y818905I32391J51470D01*
G03X-652904Y796142I49133J35837D01*
G03X-608590Y849346I-16260J58600D01*
G01X-608528Y849894D01*
G01X-436684Y1021738D01*
G01X-434210Y1021986D01*
G01X-430803Y1022102D01*
G01X-420838Y1021773D01*
G01X-397289Y1019595D01*
G03X-376039Y1018348I17968J124524D01*
G01X-439085Y955302D01*
G03X-447545Y918094I25324J-25324D01*
G03X-466343Y908204I6526J-35214D01*
G01X-504527Y870020D01*
G03X-514661Y849733I25324J-25324D01*
G01X-539407Y849733D01*
G03X-577086Y836762I0J-61214D01*
G03X-593637Y827364I8774J-34723D01*
G01X-664347Y756653D01*
G01X1144679Y769305D02*
G03X1144679Y1010933I0J120814D01*
G03X1144679Y769305I0J-120814D01*
G01X1144679Y515305D02*
G03X1144679Y756933I0J120814D01*
G03X1144679Y515305I0J-120814D01*
G01X-1511907Y-1167281D02*
G01X-1511907Y-935176D01*
G03X-1356299Y-1007491I116586J47294D01*
G01X-1353279Y-1006918D01*
G01X-1344458Y-1005750D01*
G01X-1342426Y-1005650D01*
G03X-1202979Y-1060855I139447J148518D01*
G01X-983570Y-1060855D01*
G03X-998580Y-1200622I96249J-81026D01*
G03X-874701Y-1267060I111259J58741D01*
G02X-879729Y-1270067I-16617J22082D01*
G01X-977320Y-1270067D01*
G03X-1013134Y-1305881I0J-35814D01*
G01X-1013134Y-1485881D01*
G03X-1001317Y-1512467I35814J0D01*
G01X-1166721Y-1512467D01*
G02X-1511907Y-1167281I0J345186D01*
G01X-659902Y-446080D02*
G03X-655655Y-442327I-28262J36261D01*
G01X-495737Y-282409D01*
G03X-446246Y-316399I54687J26601D01*
G03X-381762Y-367595I60074J9458D01*
G03X-381786Y-370688I197085J-3092D01*
G02X-448240Y-531122I-226889J0D01*
G01X-832271Y-915153D01*
G02X-962045Y-968907I-129774J129774D01*
G01X-1045071Y-968907D01*
G03X-1018919Y-858776I-96249J81026D01*
G01X-1019647Y-854988D01*
G03X-1020256Y-852359I-35171J-6758D01*
G01X-1023643Y-839889D01*
G01X-1023849Y-839162D01*
G01X-1026977Y-828534D01*
G01X-1028989Y-820245D01*
G01X-1029277Y-818321D01*
G01X-1029353Y-816976D01*
G01X-1029306Y-816402D01*
G01X-1029031Y-815876D01*
G01X-1028097Y-814555D01*
G01X-1025536Y-811713D01*
G01X-659902Y-446080D01*
G01X-505418Y56745D02*
G01X-488668Y56745D01*
G02X-485256Y55331I0J-4826D01*
G01X-455631Y25707D01*
G03X-452808Y23110I32509J32509D01*
G01X-432007Y2309D01*
G01X-430739Y1102D01*
G01X-431989Y-89D01*
G01X-444215Y-12316D01*
G03X-457409Y-21691I21111J-43680D01*
G01X-564127Y-128409D01*
G02X-566671Y-130342I-8352J8352D01*
G03X-580849Y-124210I-24249J-36612D01*
G03X-592541Y-103228I-42744J-10070D01*
G01X-636954Y-58815D01*
G03X-646437Y-51615I-31052J-31052D01*
G01X-561171Y33651D01*
G02X-505418Y56745I55753J-55753D01*
G01X-343092Y-700770D02*
G03X-279601Y-619529I-299473J299473D01*
G01X-279601Y-1065167D01*
G03X-460347Y-1045632I-99720J-76714D01*
G01X-460347Y-894044D01*
G02X-406592Y-764270I183529J0D01*
G01X-343092Y-700770D01*
G01X-23645Y-307066D02*
G03X27004Y-307066I25324J25324D01*
G01X111714Y-222355D01*
G03X129435Y-255353I59834J10876D01*
G01X116003Y-268785D01*
G03X109937Y-276866I25324J-25324D01*
G03X101857Y-282931I17244J-31389D01*
G01X87715Y-297073D01*
G03X81656Y-305142I25324J-25324D01*
G03X73587Y-311201I17255J-31383D01*
G01X59445Y-325343D01*
G03X53380Y-333424I25324J-25324D01*
G03X45299Y-339489I17244J-31389D01*
G01X31157Y-353631D01*
G03X26867Y-358815I25324J-25324D01*
G02X14379Y-359307I-12488J158136D01*
G03X-13046Y-368383I0J-45974D01*
G01X-13653Y-367777D01*
G03X-21733Y-361711I-25324J-25324D01*
G03X-27798Y-353631I-31389J-17244D01*
G01X-41940Y-339489D01*
G03X-50021Y-333424I-25324J-25324D01*
G03X-56086Y-325343I-31389J-17244D01*
G01X-70228Y-311201D01*
G03X-78297Y-305142I-25324J-25324D01*
G03X-84356Y-297073I-31383J-17255D01*
G01X-98498Y-282931D01*
G03X-106579Y-276866I-25324J-25324D01*
G03X-112644Y-268785I-31389J-17244D01*
G01X-126786Y-254643D01*
G03X-134866Y-248578I-25324J-25324D01*
G03X-140932Y-240498I-31389J-17244D01*
G01X-155074Y-226356D01*
G03X-163154Y-220290I-25324J-25324D01*
G03X-169219Y-212210I-31389J-17244D01*
G01X-183361Y-198068D01*
G03X-191154Y-192163I-25324J-25324D01*
G03X-178430Y-152280I-48035J37295D01*
G01X-23645Y-307066D01*
G01X-187653Y-753374D02*
G03X-146389Y-804830I254695J161975D01*
G01X-98049Y-853170D01*
G02X-44295Y-982944I-129774J-129774D01*
G01X-44295Y-1045632D01*
G03X-187653Y-1032593I-81026J-96249D01*
G01X-187653Y-753374D01*
G01X-183361Y200305D02*
G01X-169219Y214448D01*
G03X-164053Y220985I-25324J25324D01*
G03X-125239Y207674I37979J47497D01*
G01X-167445Y165468D01*
G03X-183662Y200008I-60378J-7270D01*
G01X-183361Y200305D01*
G01X1083465Y-1512467D02*
G01X937974Y-1512467D01*
G03X1016473Y-1398113I-47295J116586D01*
G01X1016914Y-1385562D01*
G01X1016935Y-1384559D01*
G01X1017042Y-1369349D01*
G01X1017121Y-1355770D01*
G01X1017561Y-1344002D01*
G01X1018642Y-1333593D01*
G01X1020719Y-1323268D01*
G01X1022016Y-1318766D01*
G01X1023829Y-1313600D01*
G01X1026112Y-1308109D01*
G01X1029152Y-1301783D01*
G03X1061974Y-1165350I-267152J136433D01*
G01X1061974Y-1133910D01*
G03X974114Y-921797I-299974J0D01*
G03X811904Y-854607I-162210J-162210D01*
G01X397606Y-854607D01*
G02X209511Y-776695I0J266007D01*
G01X41888Y-609073D01*
G03X61372Y-597850I-20088J57400D01*
G01X61623Y-597646D01*
G01X62819Y-597646D01*
G03X73185Y-596889I-0J71374D01*
G01X106770Y-630475D01*
G03X157419Y-630475I25324J25324D01*
G01X213287Y-574607D01*
G03X217791Y-569104I-25324J25324D01*
G02X225981Y-575566I-23295J-37947D01*
G03X269266Y-593495I43285J43285D01*
G01X278979Y-593495D01*
G03X303648Y-476258I0J61214D01*
G02X300259Y-465650I40388J18746D01*
G03X290373Y-446872I-35211J-6546D01*
G01X284260Y-440759D01*
G03X302698Y-420003I-35046J49700D01*
G01X335370Y-452675D01*
G03X346865Y-460387I25324J25324D01*
G01X346865Y-786281D01*
G03X357279Y-796695I10414J0D01*
G01X789079Y-796695D01*
G03X799493Y-786281I0J10414D01*
G01X799493Y-456174D01*
G03X789079Y-445760I-10414J0D01*
G01X657253Y-445760D01*
G01X657253Y-428174D01*
G02X657492Y-421096I104928J0D01*
G01X658217Y-420441D01*
G03X685879Y-433508I27663J22747D01*
G01X739880Y-433508D01*
G03X775694Y-397694I0J35814D01*
G01X775694Y-318685D01*
G03X772399Y-303681I-35814J0D01*
G03X775694Y-288677I-32520J15004D01*
G01X775694Y-209668D01*
G03X750137Y-175354I-35814J0D01*
G03X779206Y-140181I-6745J35173D01*
G01X779206Y-86181D01*
G03X743392Y-50367I-35814J0D01*
G01X664383Y-50367D01*
G03X649379Y-53661I0J-35814D01*
G03X634376Y-50367I-15004J-32520D01*
G01X626453Y-50367D01*
G03X661394Y-3194I-14374J47173D01*
G01X661394Y48815D01*
G03X654094Y74635I-49314J0D01*
G02X658998Y74779I4904J-83487D01*
G02X674357Y73226I0J-76742D01*
G02X695286Y59132I-6622J-32420D01*
G03X702085Y51531I29820J19834D01*
G01X762610Y745D01*
G03X776221Y-6376I23021J27435D01*
G03X785597Y-18544I32397J15267D01*
G01X846121Y-69330D01*
G03X851555Y-73093I23021J27435D01*
G02X886946Y-98569I-96980J-172041D01*
G03X1019828Y-207843I1244589J1378048D01*
G02X1034719Y-220048I-128938J-172503D01*
G03X1014739Y-234340I17797J-45991D01*
G01X981308Y-274181D01*
G03X987387Y-343657I37777J-31698D01*
G01X1008070Y-361012D01*
G03X1077545Y-354934I31698J37777D01*
G01X1083465Y-347878D01*
G01X1083465Y-1512467D01*
G01X468895Y531751D02*
G01X468240Y531112D01*
G01X412372Y475244D01*
G03X404093Y462306I25324J-25324D01*
G03X391154Y454026I12386J-33604D01*
G01X352459Y415331D01*
G02X353910Y435197I154181J-1275D01*
G03X354914Y444536I-42910J9339D01*
G01X354914Y484901D01*
G03X354593Y490201I-43914J0D01*
G02X369979Y490437I15386J-500332D01*
G03X428820Y568532I0J61214D01*
G01X480429Y620141D01*
G03X490911Y644725I-25324J25324D01*
G02X510260Y625909I-1831891J-1903108D01*
G02X533214Y601734I-908652J-885744D01*
G02X510298Y571868I-151145J92248D01*
G02X468895Y531751I-2071541J2096490D01*
G01X441887Y-396807D02*
G03X450166Y-383868I-25324J25324D01*
G03X463105Y-375588I-12386J33604D01*
G01X483326Y-355367D01*
G02X513622Y-445760I-176846J-109545D01*
G01X392933Y-445760D01*
G01X441887Y-396807D01*
G01X424119Y309325D02*
G01X479987Y365193D01*
G03X482154Y367565I-25324J25324D01*
G02X502453Y352647I-99944J-157262D01*
G02X511685Y340778I-142344J-120243D01*
G03X495908Y330180I19093J-45468D01*
G01X459132Y293404D01*
G01X458091Y292319D01*
G02X427638Y260013I-1309844J1204208D01*
G03X416157Y280252I-57659J-19333D01*
G01X415953Y280502D01*
G01X415953Y303214D01*
G03X424119Y309325I-17159J31436D01*
G01X435366Y2309D02*
G01X447592Y14535D01*
G03X460786Y23911I-21111J43680D01*
G01X489275Y52400D01*
G03X509297Y65002I-17696J50319D01*
G02X532900Y74779I23604J-23604D01*
G02X542905Y74373I0J-123386D01*
G03X535765Y48815I42175J-25558D01*
G01X535765Y-3194D01*
G03X570706Y-50367I49314J0D01*
G01X555366Y-50367D01*
G03X552680Y-50468I0J-35814D01*
G02X512761Y-51967I-39919J530674D01*
G02X477535Y-42276I0J68868D01*
G01X435348Y-89D01*
G01X434098Y1102D01*
G01X435366Y2309D01*
G54D11*
G01X-754276Y-220550D02*
G01X-772596Y-238870D01*
G01X-640251Y-106525D02*
G01X-621932Y-88206D01*
G01X-941312Y382997D02*
G01X-959632Y401317D01*
G01X-932470Y336330D02*
G01X-950790Y318011D01*
G01X-861523Y484629D02*
G01X-879843Y502948D01*
G01X-731141Y596785D02*
G01X-712821Y615104D01*
G01X-787350Y582643D02*
G01X-805670Y600962D01*
G01X-745283Y540576D02*
G01X-726963Y522256D01*
G01X-459931Y863608D02*
G01X-478251Y881928D01*
G01X-381761Y961618D02*
G01X-400081Y979938D01*
G01X-322016Y965154D02*
G01X-303696Y983474D01*
G01X-550458Y643123D02*
G01X-568778Y624803D01*
G01X-411376Y337088D02*
G01X-429696Y355408D01*
G01X-139562Y-140141D02*
G01X-157882Y-158460D01*
G01X-139562Y142342D02*
G01X-157882Y160662D01*
G01X113182Y-585879D02*
G01X94862Y-604198D01*
G01X159849Y-577037D02*
G01X178168Y-595357D01*
G01X341782Y-408079D02*
G01X323462Y-426398D01*
G01X388449Y-399237D02*
G01X406768Y-417557D01*
G01X363361Y680641D02*
G01X345041Y698961D01*
G01X426641Y617361D02*
G01X444961Y599041D01*
G01X388724Y400588D02*
G01X370404Y418908D01*
G01X426549Y362763D02*
G01X444868Y344443D01*
G01X743138Y-113181D02*
G01X769046Y-113181D01*
G01X703888Y-86435D02*
G01X703888Y-60527D01*
G01X625326Y22810D02*
G01X651234Y22810D01*
G01X571833Y22810D02*
G01X545925Y22810D01*
G01X814479Y399678D02*
G01X814479Y425586D01*
G01X787733Y360427D02*
G01X761825Y360427D01*
G01X728377Y493621D02*
G01X746697Y475302D01*
G01X681710Y502463D02*
G01X663391Y484143D01*
G01X719535Y540288D02*
G01X737855Y558608D01*
G01X1020912Y-324705D02*
G01X1004259Y-344551D01*
G01X1025653Y-277445D02*
G01X1005807Y-260792D01*
G01X739626Y-249173D02*
G01X765534Y-249173D01*
G01X-1395321Y979865D02*
G01X-1395321Y1005773D01*
G01X-1395321Y800373D02*
G01X-1395321Y774465D01*
G01X-1305575Y890119D02*
G01X-1279667Y890119D01*
G01X-1395321Y725865D02*
G01X-1395321Y751773D01*
G01X-1395321Y546373D02*
G01X-1395321Y520465D01*
G01X-1305575Y636119D02*
G01X-1279667Y636119D01*
G01X-1395321Y471865D02*
G01X-1395321Y497773D01*
G01X-1395321Y292373D02*
G01X-1395321Y266465D01*
G01X-1305575Y382119D02*
G01X-1279667Y382119D01*
G01X1144679Y551373D02*
G01X1144679Y525465D01*
G01X1144679Y720865D02*
G01X1144679Y746773D01*
G01X1059934Y636119D02*
G01X1034026Y636119D01*
G01X1229425Y636119D02*
G01X1255333Y636119D01*
G01X1398679Y551373D02*
G01X1398679Y525465D01*
G01X1398679Y720865D02*
G01X1398679Y746773D01*
G01X1313934Y636119D02*
G01X1288026Y636119D01*
G04 Copper End*

G04 TearDrop Start*
G36*
G01X655399Y-368350D02*
G01X655399Y-348030D01*
G03X685879Y-332790I0J38100D01*
G01X685879Y-383590D01*
G03X655399Y-368350I-30480J-22860D01*
G37*
G36*
G01X-392457Y685480D02*
G01X-428378Y721401D01*
G03X-402117Y767609I-70810J70810D01*
G01X-346248Y711741D01*
G03X-392457Y685480I24602J-97071D01*
G37*
G36*
G01X-300077Y849701D02*
G01X-264156Y813780D01*
G03X-308064Y749925I150533J-150534D01*
G01X-363932Y805793D01*
G03X-300077Y849701I-86679J194442D01*
G37*
G36*
G01X-781073Y368706D02*
G01X-745152Y332785D01*
G03X-789445Y269314I156182J-156182D01*
G01X-845313Y325182D01*
G03X-781073Y368706I-81079J188843D01*
G37*
G36*
G01X512761Y-138581D02*
G01X512761Y-87781D01*
G03X555366Y-86181I0J567983D01*
G01X555366Y-140181D01*
G03X512761Y-138581I-42605J-566383D01*
G37*
G36*
G01X287227Y-514321D02*
G01X251305Y-550242D01*
G03X209181Y-528064I-56809J-56809D01*
G01X265049Y-472196D01*
G03X287227Y-514321I78987J14685D01*
G37*
G36*
G01X575213Y403306D02*
G01X539293Y367385D01*
G03X475881Y411736I-157082J-157082D01*
G01X531749Y467604D01*
G03X575213Y403306I188027J80264D01*
G37*
G36*
G01X548135Y558981D02*
G01X584055Y523060D01*
G03X531749Y467604I922596J-922594D01*
G01X493565Y505788D01*
G03X548135Y558981I-2054822J2162590D01*
G37*
G36*
G01X524203Y662760D02*
G01X560124Y698681D01*
G03X614694Y645488I2109392J2109396D01*
G01X576510Y607304D01*
G03X524203Y662760I-974903J-867138D01*
G37*
G36*
G01X568523Y507528D02*
G01X532602Y543449D01*
G03X576510Y607304I-150533J150533D01*
G01X632378Y551436D01*
G03X568523Y507528I86679J-194442D01*
G37*
G36*
G01X681524Y108316D02*
G01X705897Y137996D01*
G03X759817Y120333I1332272J3975808D01*
G01X725106Y78966D01*
G03X681524Y108316I-57372J-38159D01*
G37*
G36*
G01X935195Y-46656D02*
G01X910950Y-71991D01*
G03X869142Y-41895I-156375J-173144D01*
G01X903853Y-528D01*
G03X935195Y-46656I109922J40976D01*
G37*
G36*
G01X-637090Y-293458D02*
G01X-673011Y-257537D01*
G03X-623376Y-199410I-344015J344014D01*
G01X-578963Y-243823D01*
G03X-637090Y-293458I285880J-393642D01*
G37*
G36*
G01X-538803Y-153733D02*
G01X-520842Y-171694D01*
G03X-540779Y-205639I55314J-55315D01*
G01X-579214Y-167204D01*
G03X-538803Y-153733I6735J47146D01*
G37*
G36*
G01X-713290Y-369658D02*
G01X-749211Y-333737D01*
G03X-699576Y-275610I-344015J344014D01*
G01X-655163Y-320023D01*
G03X-713290Y-369658I285880J-393642D01*
G37*
G36*
G01X-603264Y-187790D02*
G01X-567343Y-223711D01*
G03X-616979Y-281839I344006J-344007D01*
G01X-661392Y-237426D01*
G03X-603264Y-187790I-285887J393650D01*
G37*
G36*
G01X621439Y-428174D02*
G01X601119Y-428174D01*
G03X597779Y-397694I-140743J0D01*
G01X624780Y-397694D01*
G03X621439Y-428174I137402J-30480D01*
G37*
G36*
G01X668760Y-348030D02*
G01X668760Y-368350D01*
G03X638280Y-383590I0J-38100D01*
G01X638280Y-332790D01*
G03X668760Y-348030I30480J22860D01*
G37*
G36*
G01X553338Y-254886D02*
G01X554658Y-234415D01*
G03X584279Y-223312I6097J28800D01*
G01X584279Y-274112D01*
G03X553338Y-254886I-41006J-31482D01*
G37*
G36*
G01X467627Y177146D02*
G01X431706Y213067D01*
G03X484456Y268080I-1283444J1283442D01*
G01X522640Y229896D01*
G03X467627Y177146I1228429J-1336194D01*
G37*
G36*
G01X517191Y389486D02*
G01X543566Y434953D01*
G03X598319Y381942I1667596J1667597D01*
G01X561543Y326074D01*
G03X517191Y389486I-201433J-93670D01*
G37*
G36*
G01X1041269Y-179157D02*
G01X1061444Y-150474D01*
G03X1112249Y-173849I79909J106781D01*
G01X1078818Y-213690D01*
G03X1041269Y-179157I-187927J-166654D01*
G37*
G36*
G01X1186454Y-250078D02*
G01X1164873Y-278069D01*
G03X1120185Y-248401I-95777J-95777D01*
G01X1153615Y-208560D01*
G03X1186454Y-250078I194241J119886D01*
G37*
G36*
G01X532900Y110593D02*
G01X532900Y145645D01*
G03X571579Y157832I0J67473D01*
G01X571579Y105823D01*
G03X532900Y110593I-38679J-154431D01*
G37*
G36*
G01X658998Y145645D02*
G01X658998Y110593D01*
G03X625580Y105823I0J-119445D01*
G01X625580Y157832D01*
G03X658998Y145645I33418J39725D01*
G37*
G36*
G01X-686593Y401864D02*
G01X-686593Y452664D01*
G03X-617830Y483833I-7043J106975D01*
G01X-646114Y370696D01*
G03X-686593Y401864I-140158J-140158D01*
G37*
G36*
G01X-557367Y806479D02*
G01X-521446Y770558D01*
G03X-525886Y759613I10723J-10723D01*
G01X-568313Y802039D01*
G03X-557367Y806479I222J15163D01*
G37*
G36*
G01X-428378Y666779D02*
G01X-392457Y630858D01*
G03X-391542Y625268I4347J-2158D01*
G01X-433968Y667695D01*
G03X-428378Y666779I3432J3432D01*
G37*
G36*
G01X1337474Y-480049D02*
G01X1357794Y-480049D01*
G03X1373034Y-504379I27042J0D01*
G01X1322234Y-504379D01*
G03X1337474Y-480049I-11802J24331D01*
G37*
G36*
G01X-33996Y461711D02*
G01X-19627Y447342D01*
G03X-30403Y415013I26941J-26941D01*
G01X-66324Y450935D01*
G03X-33996Y461711I5388J37717D01*
G37*
G36*
G01X-367639Y200242D02*
G01X-355729Y217004D01*
G01X-355729Y217004D01*
G01X-326429Y201931D01*
G01X-326429Y201931D01*
G01X-340572Y187789D01*
G03X-367639Y200242I-265517J-541473D01*
G37*
G36*
G01X21152Y-415441D02*
G01X14379Y-395121D01*
G03X42336Y-393101I-1J194443D01*
G01X51632Y-430681D01*
G03X21152Y-415441I-38100J-38100D01*
G37*
G36*
G01X344579Y-571575D02*
G01X344579Y-520775D01*
G03X405484Y-491175I0J77458D01*
G01X405484Y-601175D01*
G03X344579Y-571575I-60904J-47858D01*
G37*
G36*
G01X540595Y-677497D02*
G01X554964Y-691865D01*
G01X525483Y-721203D01*
G01X525483Y-670403D01*
G03X540595Y-677497I9221J0D01*
G37*
G36*
G01X787400Y-670787D02*
G01X787400Y-721587D01*
G03X715475Y-751187I0J-102185D01*
G01X715475Y-641187D01*
G03X787400Y-670787I71925J72585D01*
G37*
G36*
G01X824639Y181426D02*
G01X804319Y181426D01*
G03X789079Y211906I-38100J0D01*
G01X839879Y211906D01*
G03X824639Y181426I22860J-30480D01*
G37*
G36*
G01X871960Y272797D02*
G01X871960Y252477D01*
G03X841480Y237237I0J-38100D01*
G01X841480Y288037D01*
G03X871960Y272797I30480J22860D01*
G37*
G36*
G01X1023880Y374600D02*
G01X1023880Y323800D01*
G03X947680Y320918I0J-1008493D01*
G01X947680Y377483D01*
G03X1023880Y374600I76200J1005610D01*
G37*
G36*
G01X871299Y252477D02*
G01X871299Y272797D01*
G03X901779Y282820I0J51357D01*
G01X901779Y242454D01*
G03X871299Y252477I-30480J-41334D01*
G37*
G36*
G01X960909Y272797D02*
G01X960909Y252477D01*
G03X955780Y242454I7229J-10023D01*
G01X955780Y282820D01*
G03X960909Y272797I12358J0D01*
G37*
G36*
G01X369979Y577051D02*
G01X369979Y526251D01*
G03X311000Y522999I-0J-536380D01*
G01X311000Y579565D01*
G03X369979Y577051I58979J690769D01*
G37*
G36*
G01X316639Y414056D02*
G01X296319Y405956D01*
G03X281079Y436436I-38100J0D01*
G01X319100Y444536D01*
G03X316639Y414056I187540J-30480D01*
G37*
G36*
G01X-823702Y1044069D02*
G01X-855812Y1047442D01*
G01X-860064Y1051220D01*
G01X-864291Y1054090D01*
G01X-868505Y1056170D01*
G01X-872721Y1057574D01*
G01X-876951Y1058420D01*
G01X-881209Y1058822D01*
G01X-889865Y1058761D01*
G01X-898797Y1058322D01*
G01X-908114Y1058431D01*
G01X-912951Y1058981D01*
G01X-917925Y1060017D01*
G01X-923050Y1061655D01*
G01X-928339Y1064010D01*
G01X-802712Y1113436D01*
G01X-805204Y1107467D01*
G01X-808089Y1101959D01*
G01X-814571Y1092117D01*
G01X-821213Y1083493D01*
G01X-827068Y1075671D01*
G01X-829404Y1071930D01*
G01X-831190Y1068234D01*
G01X-832306Y1064530D01*
G01X-832634Y1060765D01*
G01X-832056Y1056889D01*
G01X-830453Y1052849D01*
G01X-827708Y1048593D01*
G01X-823702Y1044069D01*
G37*
G36*
G01X-642912Y991446D02*
G01X-663586Y994581D01*
G01X-661147Y1001443D01*
G01X-659689Y1008010D01*
G01X-659142Y1014315D01*
G01X-659434Y1020390D01*
G01X-660496Y1026266D01*
G01X-662256Y1031975D01*
G01X-664645Y1037548D01*
G01X-667592Y1043019D01*
G01X-671026Y1048418D01*
G01X-674876Y1053778D01*
G01X-683545Y1064506D01*
G01X-702780Y1086888D01*
G01X-567856Y1082358D01*
G01X-579984Y1070092D01*
G01X-591207Y1059523D01*
G01X-601585Y1049932D01*
G01X-611178Y1040600D01*
G01X-620048Y1030805D01*
G01X-628253Y1019828D01*
G01X-632125Y1013671D01*
G01X-635854Y1006948D01*
G01X-639447Y999570D01*
G01X-642912Y991446D01*
G37*
G36*
G01X-458778Y1050294D02*
G01X-473146Y1064662D01*
G01X-470590Y1067905D01*
G01X-468630Y1071831D01*
G01X-467202Y1076352D01*
G01X-466246Y1081381D01*
G01X-465700Y1086832D01*
G01X-465503Y1092617D01*
G01X-465907Y1104844D01*
G01X-468187Y1129489D01*
G01X-469077Y1140517D01*
G01X-469144Y1149755D01*
G01X-373685Y1054296D01*
G01X-382923Y1054363D01*
G01X-393950Y1055253D01*
G01X-418596Y1057532D01*
G01X-430822Y1057936D01*
G01X-436608Y1057739D01*
G01X-442058Y1057193D01*
G01X-447087Y1056237D01*
G01X-451608Y1054810D01*
G01X-455534Y1052849D01*
G01X-458778Y1050294D01*
G37*
G36*
G01X-34943Y1020538D02*
G01X-52822Y1010177D01*
G01X-55592Y1016878D01*
G01X-58883Y1022749D01*
G01X-62664Y1027859D01*
G01X-66903Y1032276D01*
G01X-71572Y1036067D01*
G01X-76639Y1039299D01*
G01X-82075Y1042040D01*
G01X-87848Y1044359D01*
G01X-100287Y1047996D01*
G01X-113714Y1050753D01*
G01X-142561Y1055786D01*
G01X-35525Y1138055D01*
G01X-37132Y1120866D01*
G01X-39173Y1105556D01*
G01X-41192Y1091540D01*
G01X-42730Y1078239D01*
G01X-43332Y1065069D01*
G01X-43139Y1058352D01*
G01X-42539Y1051451D01*
G01X-41477Y1044291D01*
G01X-39896Y1036801D01*
G01X-37736Y1028908D01*
G01X-34943Y1020538D01*
G37*
G36*
G01X138839Y1021590D02*
G01X118519Y1021590D01*
G01X118033Y1025690D01*
G01X116644Y1029852D01*
G01X114456Y1034059D01*
G01X111576Y1038291D01*
G01X108108Y1042531D01*
G01X104157Y1046761D01*
G01X95225Y1055121D01*
G01X76187Y1070936D01*
G01X67759Y1078105D01*
G01X61180Y1084590D01*
G01X196179Y1084590D01*
G01X189600Y1078105D01*
G01X181172Y1070936D01*
G01X162134Y1055121D01*
G01X153202Y1046761D01*
G01X149251Y1042531D01*
G01X145783Y1038291D01*
G01X142903Y1034059D01*
G01X140715Y1029852D01*
G01X139326Y1025690D01*
G01X138839Y1021590D01*
G37*
G36*
G01X365605Y991828D02*
G01X345514Y996111D01*
G01X347742Y1003115D01*
G01X349066Y1009830D01*
G01X349551Y1016288D01*
G01X349262Y1022523D01*
G01X348265Y1028568D01*
G01X346626Y1034457D01*
G01X344410Y1040221D01*
G01X341682Y1045895D01*
G01X334954Y1057103D01*
G01X326967Y1068345D01*
G01X309311Y1091994D01*
G01X443567Y1077841D01*
G01X430855Y1066752D01*
G01X418951Y1057115D01*
G01X407875Y1048254D01*
G01X397646Y1039489D01*
G01X388285Y1030143D01*
G01X383936Y1025039D01*
G01X379811Y1019536D01*
G01X375913Y1013548D01*
G01X372244Y1006990D01*
G01X368807Y999779D01*
G01X365605Y991828D01*
G37*
G36*
G01X546320Y1052091D02*
G01X541477Y1075985D01*
G01X544202Y1079358D01*
G01X546293Y1083298D01*
G01X547818Y1087734D01*
G01X548848Y1092597D01*
G01X549451Y1097816D01*
G01X549698Y1103322D01*
G01X549400Y1114911D01*
G01X547589Y1138438D01*
G01X547188Y1149254D01*
G01X547358Y1154179D01*
G01X547867Y1158690D01*
G01X633325Y1054182D01*
G01X625921Y1054728D01*
G01X619023Y1055718D01*
G01X606535Y1058572D01*
G01X595445Y1061828D01*
G01X585334Y1064570D01*
G01X580515Y1065462D01*
G01X575784Y1065883D01*
G01X571089Y1065717D01*
G01X566377Y1064851D01*
G01X561596Y1063170D01*
G01X556695Y1060559D01*
G01X551620Y1056904D01*
G01X546320Y1052091D01*
G37*
G36*
G01X811222Y1050294D02*
G01X796854Y1064662D01*
G01X799409Y1067905D01*
G01X801370Y1071831D01*
G01X802798Y1076352D01*
G01X803754Y1081381D01*
G01X804299Y1086832D01*
G01X804497Y1092617D01*
G01X804093Y1104844D01*
G01X801813Y1129489D01*
G01X800923Y1140517D01*
G01X800856Y1149755D01*
G01X896315Y1054296D01*
G01X887077Y1054363D01*
G01X876050Y1055253D01*
G01X851404Y1057533D01*
G01X839178Y1057936D01*
G01X833392Y1057739D01*
G01X827942Y1057193D01*
G01X822912Y1056237D01*
G01X818392Y1054810D01*
G01X814466Y1052849D01*
G01X811222Y1050294D01*
G37*
G36*
G01X-1084936Y-791727D02*
G01X-1051517Y-787046D01*
G01X-1056116Y-792148D01*
G01X-1059662Y-797162D01*
G01X-1062251Y-802119D01*
G01X-1063977Y-807049D01*
G01X-1064937Y-811984D01*
G01X-1065226Y-816955D01*
G01X-1064939Y-821993D01*
G01X-1064172Y-827129D01*
G01X-1061577Y-837820D01*
G01X-1058205Y-849276D01*
G01X-1054818Y-861746D01*
G01X-1052180Y-875478D01*
G01X-1164769Y-800990D01*
G01X-1160085Y-800005D01*
G01X-1155127Y-799445D01*
G01X-1144590Y-799280D01*
G01X-1122427Y-800550D01*
G01X-1111601Y-800716D01*
G01X-1106427Y-800404D01*
G01X-1101478Y-799724D01*
G01X-1096804Y-798595D01*
G01X-1092456Y-796939D01*
G01X-1088483Y-794676D01*
G01X-1084936Y-791727D01*
G37*
G36*
G01X-1307340Y-961493D02*
G01X-1321709Y-975862D01*
G01X-1324886Y-973372D01*
G01X-1328627Y-971597D01*
G01X-1332859Y-970457D01*
G01X-1337514Y-969875D01*
G01X-1342523Y-969772D01*
G01X-1347814Y-970068D01*
G01X-1358968Y-971545D01*
G01X-1381604Y-975834D01*
G01X-1391970Y-977386D01*
G01X-1396671Y-977739D01*
G01X-1400957Y-977704D01*
G01X-1305497Y-882245D01*
G01X-1305463Y-886531D01*
G01X-1305816Y-891232D01*
G01X-1307368Y-901598D01*
G01X-1311657Y-924234D01*
G01X-1313134Y-935388D01*
G01X-1313430Y-940679D01*
G01X-1313327Y-945687D01*
G01X-1312744Y-950343D01*
G01X-1311605Y-954575D01*
G01X-1309830Y-958316D01*
G01X-1307340Y-961493D01*
G37*
G36*
G01X-1001329Y-571483D02*
G01X-986362Y-621178D01*
G01X-996937Y-627290D01*
G01X-1008366Y-634902D01*
G01X-1020250Y-643655D01*
G01X-1032193Y-653190D01*
G01X-1043796Y-663149D01*
G01X-1054661Y-673173D01*
G01X-1064391Y-682904D01*
G01X-1072589Y-691984D01*
G01X-1092265Y-558426D01*
G01X-1081860Y-564587D01*
G01X-1070723Y-569953D01*
G01X-1059082Y-574274D01*
G01X-1047166Y-577301D01*
G01X-1041176Y-578252D01*
G01X-1035203Y-578785D01*
G01X-1029277Y-578870D01*
G01X-1023424Y-578476D01*
G01X-1017674Y-577571D01*
G01X-1012056Y-576125D01*
G01X-1006598Y-574106D01*
G01X-1001329Y-571483D01*
G37*
G36*
G01X-1032026Y-357818D02*
G01X-1017657Y-372186D01*
G01X-1028834Y-383992D01*
G01X-1037065Y-393848D01*
G01X-1043359Y-402375D01*
G01X-1048726Y-410193D01*
G01X-1054177Y-417924D01*
G01X-1060722Y-426187D01*
G01X-1069369Y-435603D01*
G01X-1081131Y-446793D01*
G01X-1082457Y-311799D01*
G01X-1077073Y-317483D01*
G01X-1070822Y-325407D01*
G01X-1056925Y-343534D01*
G01X-1049885Y-351517D01*
G01X-1046474Y-354753D01*
G01X-1043187Y-357300D01*
G01X-1040060Y-359018D01*
G01X-1037133Y-359770D01*
G01X-1034442Y-359416D01*
G01X-1032026Y-357818D01*
G37*
G36*
G01X-1018791Y-115721D02*
G01X-1018791Y-136041D01*
G01X-1022892Y-136528D01*
G01X-1027054Y-137917D01*
G01X-1031260Y-140104D01*
G01X-1035492Y-142985D01*
G01X-1039733Y-146453D01*
G01X-1043963Y-150404D01*
G01X-1052323Y-159335D01*
G01X-1068138Y-178374D01*
G01X-1075306Y-186802D01*
G01X-1081791Y-193381D01*
G01X-1081791Y-58381D01*
G01X-1075306Y-64961D01*
G01X-1068138Y-73388D01*
G01X-1052323Y-92427D01*
G01X-1043963Y-101358D01*
G01X-1039733Y-105309D01*
G01X-1035492Y-108778D01*
G01X-1031260Y-111658D01*
G01X-1027054Y-113845D01*
G01X-1022892Y-115235D01*
G01X-1018791Y-115721D01*
G37*
G36*
G01X-1065376Y3043D02*
G01X-1123039Y31969D01*
G01X-1127624Y36138D01*
G01X-1131969Y39296D01*
G01X-1136115Y41579D01*
G01X-1140105Y43122D01*
G01X-1143981Y44060D01*
G01X-1147784Y44528D01*
G01X-1155339Y44594D01*
G01X-1163105Y44403D01*
G01X-1171417Y45033D01*
G01X-1175883Y45995D01*
G01X-1180610Y47567D01*
G01X-1185641Y49885D01*
G01X-1191018Y53085D01*
G01X-1060663Y88190D01*
G01X-1066109Y76876D01*
G01X-1071010Y65542D01*
G01X-1074944Y54294D01*
G01X-1076417Y48736D01*
G01X-1077490Y43239D01*
G01X-1078112Y37816D01*
G01X-1078228Y32480D01*
G01X-1077787Y27245D01*
G01X-1076735Y22124D01*
G01X-1075021Y17131D01*
G01X-1072592Y12277D01*
G01X-1069394Y7576D01*
G01X-1065376Y3043D01*
G37*
G36*
G01X981221Y-1272121D02*
G01X997067Y-1285867D01*
G01X993413Y-1293467D01*
G01X990371Y-1300785D01*
G01X987885Y-1307868D01*
G01X985898Y-1314765D01*
G01X983196Y-1328200D01*
G01X981817Y-1341480D01*
G01X981311Y-1354997D01*
G01X981229Y-1369142D01*
G01X981122Y-1384306D01*
G01X980540Y-1400881D01*
G01X884408Y-1306100D01*
G01X899748Y-1305343D01*
G01X914497Y-1304832D01*
G01X928489Y-1303946D01*
G01X935148Y-1303168D01*
G01X941555Y-1302063D01*
G01X947689Y-1300553D01*
G01X953529Y-1298561D01*
G01X959054Y-1296008D01*
G01X964243Y-1292818D01*
G01X969075Y-1288912D01*
G01X973529Y-1284212D01*
G01X977585Y-1278641D01*
G01X981221Y-1272121D01*
G37*
G36*
G01X715380Y-1302812D02*
G01X729748Y-1317180D01*
G01X727201Y-1320415D01*
G01X725265Y-1324317D01*
G01X723875Y-1328800D01*
G01X722967Y-1333781D01*
G01X722478Y-1339175D01*
G01X722345Y-1344896D01*
G01X722888Y-1356984D01*
G01X725427Y-1381369D01*
G01X726403Y-1392312D01*
G01X726503Y-1401517D01*
G01X631043Y-1306058D01*
G01X640249Y-1306157D01*
G01X651191Y-1307133D01*
G01X675576Y-1309673D01*
G01X687664Y-1310216D01*
G01X693385Y-1310082D01*
G01X698779Y-1309593D01*
G01X703760Y-1308686D01*
G01X708243Y-1307296D01*
G01X712145Y-1305359D01*
G01X715380Y-1302812D01*
G37*
G36*
G01X460649Y-1303543D02*
G01X475018Y-1317911D01*
G01X472479Y-1321138D01*
G01X470565Y-1325016D01*
G01X469211Y-1329464D01*
G01X468350Y-1334398D01*
G01X467917Y-1339736D01*
G01X467845Y-1345396D01*
G01X468522Y-1357350D01*
G01X471313Y-1381484D01*
G01X472372Y-1392343D01*
G01X472503Y-1401517D01*
G01X377043Y-1306058D01*
G01X386217Y-1306189D01*
G01X397077Y-1307248D01*
G01X421211Y-1310038D01*
G01X433164Y-1310715D01*
G01X438824Y-1310644D01*
G01X444162Y-1310210D01*
G01X449097Y-1309349D01*
G01X453544Y-1307995D01*
G01X457423Y-1306082D01*
G01X460649Y-1303543D01*
G37*
G36*
G01X190256Y-1319936D02*
G01X204624Y-1334305D01*
G01X202270Y-1337347D01*
G01X200876Y-1340705D01*
G01X200331Y-1344345D01*
G01X200519Y-1348230D01*
G01X201326Y-1352327D01*
G01X202639Y-1356603D01*
G01X206326Y-1365546D01*
G01X210667Y-1374786D01*
G01X214752Y-1384045D01*
G01X216413Y-1388596D01*
G01X217667Y-1393048D01*
G01X218402Y-1397366D01*
G01X218503Y-1401517D01*
G01X123043Y-1306058D01*
G01X127194Y-1306158D01*
G01X131513Y-1306893D01*
G01X135965Y-1308148D01*
G01X140515Y-1309809D01*
G01X149774Y-1313893D01*
G01X159014Y-1318235D01*
G01X167958Y-1321922D01*
G01X172233Y-1323235D01*
G01X176330Y-1324042D01*
G01X180216Y-1324230D01*
G01X183855Y-1323684D01*
G01X187213Y-1322291D01*
G01X190256Y-1319936D01*
G37*
G36*
G01X-63744Y-1319936D02*
G01X-49376Y-1334305D01*
G01X-51730Y-1337347D01*
G01X-53124Y-1340705D01*
G01X-53669Y-1344345D01*
G01X-53481Y-1348230D01*
G01X-52674Y-1352327D01*
G01X-51361Y-1356603D01*
G01X-47674Y-1365546D01*
G01X-43333Y-1374786D01*
G01X-39248Y-1384045D01*
G01X-37587Y-1388596D01*
G01X-36333Y-1393048D01*
G01X-35598Y-1397366D01*
G01X-35497Y-1401517D01*
G01X-130957Y-1306058D01*
G01X-126806Y-1306158D01*
G01X-122487Y-1306893D01*
G01X-118035Y-1308148D01*
G01X-113485Y-1309809D01*
G01X-104226Y-1313893D01*
G01X-94986Y-1318235D01*
G01X-86042Y-1321922D01*
G01X-81767Y-1323235D01*
G01X-77670Y-1324042D01*
G01X-73784Y-1324230D01*
G01X-70145Y-1323684D01*
G01X-66787Y-1322291D01*
G01X-63744Y-1319936D01*
G37*
G36*
G01X-377978Y-1301258D02*
G01X-304426Y-1256443D01*
G01X-308285Y-1260803D01*
G01X-311562Y-1265539D01*
G01X-314273Y-1270603D01*
G01X-316433Y-1275948D01*
G01X-318060Y-1281526D01*
G01X-319168Y-1287289D01*
G01X-319775Y-1293189D01*
G01X-319897Y-1299179D01*
G01X-319550Y-1305211D01*
G01X-318750Y-1311238D01*
G01X-317513Y-1317212D01*
G01X-315857Y-1323084D01*
G01X-313796Y-1328809D01*
G01X-311347Y-1334337D01*
G01X-308526Y-1339621D01*
G01X-305350Y-1344614D01*
G01X-439432Y-1328899D01*
G01X-434871Y-1325142D01*
G01X-430569Y-1322228D01*
G01X-426491Y-1320034D01*
G01X-422602Y-1318437D01*
G01X-415250Y-1316546D01*
G01X-408236Y-1315574D01*
G01X-401280Y-1314540D01*
G01X-394105Y-1312463D01*
G01X-390347Y-1310728D01*
G01X-386430Y-1308363D01*
G01X-382319Y-1305248D01*
G01X-377978Y-1301258D01*
G37*
G36*
G01X-542558Y-1272289D02*
G01X-526751Y-1286029D01*
G01X-530445Y-1293593D01*
G01X-533521Y-1300882D01*
G01X-536036Y-1307943D01*
G01X-538047Y-1314824D01*
G01X-539611Y-1321574D01*
G01X-540783Y-1328240D01*
G01X-542181Y-1341514D01*
G01X-542694Y-1355031D01*
G01X-542777Y-1369175D01*
G01X-542881Y-1384331D01*
G01X-543460Y-1400884D01*
G01X-639590Y-1306100D01*
G01X-624247Y-1305345D01*
G01X-609499Y-1304840D01*
G01X-595508Y-1303966D01*
G01X-588847Y-1303196D01*
G01X-582435Y-1302101D01*
G01X-576294Y-1300601D01*
G01X-570442Y-1298621D01*
G01X-564901Y-1296082D01*
G01X-559691Y-1292907D01*
G01X-554831Y-1289018D01*
G01X-550342Y-1284337D01*
G01X-546244Y-1278786D01*
G01X-542558Y-1272289D01*
G37*
G36*
G01X-846452Y-1289845D02*
G01X-820356Y-1292485D01*
G03X-822721Y-1305881I8387J-8387D01*
G01X-873521Y-1305881D01*
G03X-846452Y-1289845I-17797J60903D01*
G37*
G36*
G01X1055667Y202762D02*
G01X1070036Y217131D01*
G01X1073072Y214738D01*
G01X1076755Y212891D01*
G01X1081002Y211536D01*
G01X1085730Y210614D01*
G01X1096302Y209849D01*
G01X1107809Y210146D01*
G01X1130993Y212126D01*
G01X1141350Y212908D01*
G01X1150002Y212952D01*
G01X1059846Y122796D01*
G01X1059890Y131449D01*
G01X1060673Y141805D01*
G01X1062652Y164989D01*
G01X1062949Y176497D01*
G01X1062184Y187068D01*
G01X1061263Y191797D01*
G01X1059907Y196044D01*
G01X1058061Y199726D01*
G01X1055667Y202762D01*
G37*
G36*
G01X1058034Y323800D02*
G01X1008656Y374600D01*
G01X1013281Y374856D01*
G01X1017870Y375600D01*
G01X1022406Y376801D01*
G01X1026870Y378426D01*
G01X1035510Y382818D01*
G01X1043642Y388513D01*
G01X1051119Y395252D01*
G01X1057795Y402773D01*
G01X1063523Y410817D01*
G01X1068156Y419121D01*
G01X1117533Y301570D01*
G01X1110956Y304121D01*
G01X1103727Y307388D01*
G01X1088125Y314770D01*
G01X1080159Y318232D01*
G01X1072353Y321109D01*
G01X1064910Y323073D01*
G01X1058034Y323800D01*
G37*
G36*
G01X-334741Y743196D02*
G01X-370662Y779117D01*
G03X-314762Y830980I-664262J772026D01*
G01X-258194Y774411D01*
G03X-334741Y743196I-1171J-106593D01*
G37*
G36*
G01X-808238Y269699D02*
G01X-844159Y305620D01*
G03X-794524Y353990I-1849807J1947822D01*
G01X-737956Y297422D01*
G03X-808238Y269699I-3221J-94784D01*
G37*
G36*
G01X-704554Y445225D02*
G01X-668633Y409304D01*
G03X-674316Y361061I27722J-27722D01*
G01X-730885Y417630D01*
G03X-704554Y445225I-575348J575346D01*
G37*
G36*
G01X588104Y670702D02*
G01X552183Y634781D01*
G03X497535Y687895I-1893191J-1893186D01*
G01X554103Y744464D01*
G03X588104Y670702I116958J9195D01*
G37*
G36*
G01X584894Y787249D02*
G01X584894Y736449D01*
G03X497535Y687895I41348J-177261D01*
G01X495400Y803166D01*
G03X584894Y787249I89494J243625D01*
G37*
G36*
G01X791618Y-806963D02*
G01X755289Y-771451D01*
G01X758290Y-768084D01*
G01X761026Y-764170D01*
G01X763136Y-759953D01*
G01X764260Y-755673D01*
G01X792794Y-783390D01*
G01X791270Y-783818D01*
G01X790262Y-784536D01*
G01X789701Y-785513D01*
G01X789517Y-786716D01*
G01X790007Y-789670D01*
G01X791177Y-793138D01*
G01X792477Y-796861D01*
G01X793352Y-800580D01*
G01X793250Y-804033D01*
G01X792660Y-805580D01*
G01X791618Y-806963D01*
G37*
G36*
G01X319179Y-781481D02*
G01X369979Y-776801D01*
G01X370214Y-781469D01*
G01X371044Y-786187D01*
G01X372659Y-790587D01*
G01X375250Y-794301D01*
G01X335746Y-798981D01*
G01X336514Y-797292D01*
G01X336696Y-795878D01*
G01X336367Y-794697D01*
G01X335600Y-793708D01*
G01X333048Y-792135D01*
G01X329634Y-790824D01*
G01X325948Y-789438D01*
G01X322582Y-787643D01*
G01X321204Y-786487D01*
G01X320129Y-785103D01*
G01X319429Y-783448D01*
G01X319179Y-781481D01*
G37*
G36*
G01X230684Y-529620D02*
G01X271756Y-498851D01*
G01X274930Y-501631D01*
G01X278833Y-504431D01*
G01X282962Y-506863D01*
G01X286815Y-508541D01*
G01X254010Y-531043D01*
G01X253874Y-529791D01*
G01X253348Y-528950D01*
G01X252480Y-528466D01*
G01X251314Y-528283D01*
G01X248271Y-528603D01*
G01X244583Y-529470D01*
G01X240616Y-530444D01*
G01X236735Y-531087D01*
G01X233302Y-530959D01*
G01X231869Y-530468D01*
G01X230684Y-529620D01*
G37*
G36*
G01X230024Y473858D02*
G01X209704Y473858D01*
G01X209511Y476089D01*
G01X208966Y477974D01*
G01X207020Y481065D01*
G01X201114Y487054D01*
G01X238614Y487054D01*
G01X232708Y481065D01*
G01X230762Y477974D01*
G01X230217Y476089D01*
G01X230024Y473858D01*
G37*
G36*
G01X279742Y283059D02*
G01X280587Y303379D01*
G01X285370Y304100D01*
G01X289912Y306002D01*
G01X294168Y308691D01*
G01X298088Y311773D01*
G01X297242Y274283D01*
G01X293412Y277505D01*
G01X289135Y280316D01*
G01X284537Y282305D01*
G01X279742Y283059D01*
G37*
G36*
G01X-651874Y885934D02*
G01X-637855Y871216D01*
G01X-640724Y867317D01*
G01X-642586Y862739D01*
G01X-643678Y857807D01*
G01X-644236Y852847D01*
G01X-670400Y879712D01*
G01X-665419Y880175D01*
G01X-660428Y881225D01*
G01X-655791Y883074D01*
G01X-651874Y885934D01*
G37*
G36*
G01X-725103Y906167D02*
G01X-710735Y891798D01*
G01X-713599Y887890D01*
G01X-715454Y883282D01*
G01X-716525Y878321D01*
G01X-717035Y873350D01*
G01X-743552Y899866D01*
G01X-738581Y900376D01*
G01X-733619Y901447D01*
G01X-729012Y903302D01*
G01X-725103Y906167D01*
G37*
G36*
G01X-806378Y973388D02*
G01X-785960Y975300D01*
G01X-784193Y968319D01*
G01X-781798Y961304D01*
G01X-778599Y954712D01*
G01X-776641Y951715D01*
G01X-774416Y948994D01*
G01X-811906Y948144D01*
G01X-810217Y950568D01*
G01X-808768Y953475D01*
G01X-806678Y960189D01*
G01X-805820Y967191D01*
G01X-805911Y970458D01*
G01X-806378Y973388D01*
G37*
G36*
G01X-309629Y274009D02*
G01X-310946Y253689D01*
G01X-315723Y252977D01*
G01X-320251Y251101D01*
G01X-324502Y248448D01*
G01X-328445Y245408D01*
G01X-327129Y282884D01*
G01X-323324Y279626D01*
G01X-319041Y276783D01*
G01X-314427Y274772D01*
G01X-309629Y274009D01*
G37*
G36*
G01X359819Y274716D02*
G01X380139Y274716D01*
G01X380878Y269927D01*
G01X382824Y265357D01*
G01X385575Y261091D01*
G01X388729Y257216D01*
G01X351229Y257216D01*
G01X354384Y261091D01*
G01X357135Y265357D01*
G01X359081Y269927D01*
G01X359819Y274716D01*
G37*
G36*
G01X364990Y208621D02*
G01X341096Y213465D01*
G01X342614Y215303D01*
G01X343941Y217537D01*
G01X345897Y222762D01*
G01X346711Y228267D01*
G01X346611Y230851D01*
G01X346131Y233178D01*
G01X380403Y217957D01*
G01X372229Y213961D01*
G01X368451Y211561D01*
G01X364990Y208621D01*
G37*
G36*
G01X308965Y124758D02*
G01X322635Y109691D01*
G01X319762Y105803D01*
G01X317893Y101254D01*
G01X316778Y96353D01*
G01X316172Y91405D01*
G01X290363Y118610D01*
G01X295353Y119027D01*
G01X300373Y120057D01*
G01X305038Y121901D01*
G01X308965Y124758D01*
G37*
G36*
G01X804319Y212955D02*
G01X824639Y212955D01*
G01X825378Y208166D01*
G01X827324Y203596D01*
G01X830075Y199331D01*
G01X833229Y195455D01*
G01X795729Y195455D01*
G01X798884Y199331D01*
G01X801635Y203596D01*
G01X803581Y208166D01*
G01X804319Y212955D01*
G37*
G36*
G01X-535496Y280982D02*
G01X-549864Y266614D01*
G01X-553772Y269478D01*
G01X-558380Y271333D01*
G01X-563342Y272404D01*
G01X-568313Y272914D01*
G01X-541796Y299431D01*
G01X-541286Y294460D01*
G01X-540215Y289498D01*
G01X-538360Y284890D01*
G01X-535496Y280982D01*
G37*
G36*
G01X-320340Y110755D02*
G01X-308040Y127192D01*
G01X-306192Y125636D01*
G01X-304081Y124350D01*
G01X-299305Y122520D01*
G01X-294178Y121558D01*
G01X-289165Y121318D01*
G01X-313533Y92814D01*
G01X-314332Y97702D01*
G01X-315544Y102480D01*
G01X-317451Y106910D01*
G01X-320340Y110755D01*
G37*
G36*
G01X-259881Y163447D02*
G01X-254843Y187146D01*
G01X-253014Y185640D01*
G01X-250781Y184323D01*
G01X-245549Y182378D01*
G01X-240037Y181555D01*
G01X-237455Y181643D01*
G01X-235136Y182104D01*
G01X-250627Y147953D01*
G01X-254562Y156178D01*
G01X-256940Y159970D01*
G01X-259881Y163447D01*
G37*
G36*
G01X55836Y-541512D02*
G01X55836Y-561832D01*
G01X51047Y-562570D01*
G01X46477Y-564517D01*
G01X42212Y-567268D01*
G01X38336Y-570422D01*
G01X38336Y-532922D01*
G01X42212Y-536076D01*
G01X46477Y-538828D01*
G01X51047Y-540774D01*
G01X55836Y-541512D01*
G37*
G36*
G01X47976Y-472969D02*
G01X47976Y-493289D01*
G01X43186Y-494027D01*
G01X38617Y-495973D01*
G01X34351Y-498725D01*
G01X30475Y-501879D01*
G01X30475Y-464379D01*
G01X34351Y-467533D01*
G01X38617Y-470285D01*
G01X43186Y-472231D01*
G01X47976Y-472969D01*
G37*
G36*
G01X309188Y-235366D02*
G01X329508Y-245887D01*
G01X329978Y-250516D01*
G01X331215Y-254865D01*
G01X334971Y-263387D01*
G01X298977Y-252866D01*
G01X302726Y-249620D01*
G01X305997Y-245171D01*
G01X308311Y-240195D01*
G01X308959Y-237720D01*
G01X309188Y-235366D01*
G37*
G36*
G01X655475Y-670787D02*
G03X763679Y-633881I0J177073D01*
G01X789079Y-696187D01*
G01X763679Y-758668D01*
G03X655475Y-721587I-108204J-139333D01*
G01X655475Y-670787D01*
G37*
G04 TearDrop End*

G04 Pad Start*
G54D12*
G01X369536Y-380324D03*
G01X446623Y-303238D03*
G54D13*
G01X712879Y-358190D03*
G01X712879Y-249173D03*
G54D14*
G01X-355090Y758767D03*
G01X-432177Y835854D03*
G01X-836471Y278156D03*
G01X-913557Y355243D03*
G54D15*
G01X594871Y-113181D03*
G01X703888Y-113181D03*
G54D12*
G01X218023Y-481038D03*
G01X140936Y-558124D03*
G01X-315377Y395262D03*
G01X-392464Y318176D03*
G01X484723Y458762D03*
G01X407636Y381676D03*
G54D14*
G01X623536Y598462D03*
G01X700623Y521376D03*
G54D17*
G01X772724Y74256D03*
G01X856235Y4182D03*
G54D18*
G01X-582077Y-202524D03*
G01X-659164Y-125438D03*
G01X-658277Y-278724D03*
G01X-735364Y-201638D03*
G54D19*
G01X611279Y-358190D03*
G01X611279Y-249173D03*
G54D20*
G01X521936Y267376D03*
G01X599023Y344462D03*
G54D21*
G01X1046142Y-294637D03*
G01X1116217Y-211125D03*
G54D19*
G01X598579Y22810D03*
G01X598579Y131827D03*
G54D22*
G01X-631972Y427264D03*
G01X-766316Y561609D03*
G01X-582455Y745471D03*
G01X-515282Y678299D03*
G01X-448110Y611126D03*
G54D23*
G01X1347879Y-1094383D03*
G01X1347879Y-554379D03*
G54D24*
G01X426481Y58215D03*
G01X398194Y86503D03*
G01X369906Y114791D03*
G01X341636Y143061D03*
G01X313348Y171349D03*
G01X285060Y199636D03*
G01X256773Y227924D03*
G01X228485Y256212D03*
G01X200215Y284482D03*
G01X171927Y312770D03*
G01X143639Y341057D03*
G01X115352Y369345D03*
G01X87064Y397633D03*
G01X58794Y425903D03*
G54D25*
G01X-55435Y425903D03*
G01X-83705Y397633D03*
G01X-111993Y369345D03*
G01X-140280Y341057D03*
G01X-168568Y312770D03*
G01X-196856Y284482D03*
G01X-225126Y256212D03*
G01X-253414Y227924D03*
G01X-281701Y199636D03*
G01X-309989Y171349D03*
G01X-338277Y143061D03*
G01X-366547Y114791D03*
G01X-394835Y86503D03*
G01X-423123Y58215D03*
G54D24*
G01X-423105Y-55996D03*
G01X-394835Y-84266D03*
G01X-366547Y-112553D03*
G01X-338259Y-140841D03*
G01X-309971Y-169129D03*
G01X-281683Y-197417D03*
G01X-253414Y-225686D03*
G01X-225126Y-253974D03*
G01X-196838Y-282262D03*
G01X-168550Y-310550D03*
G01X-140262Y-338838D03*
G01X-111993Y-367107D03*
G01X-83705Y-395395D03*
G01X-55417Y-423683D03*
G54D25*
G01X58776Y-423683D03*
G01X87064Y-395395D03*
G01X115352Y-367107D03*
G01X143621Y-338838D03*
G01X171909Y-310550D03*
G01X200197Y-282262D03*
G01X228485Y-253974D03*
G01X256773Y-225686D03*
G01X285042Y-197417D03*
G01X313330Y-169129D03*
G01X341618Y-140841D03*
G01X369906Y-112553D03*
G01X398194Y-84266D03*
G01X426463Y-55996D03*
G54D26*
G01X1679Y1101D03*
G54D27*
G01X655475Y-546175D03*
G01X465483Y-546175D03*
G01X465483Y-696187D03*
G01X655475Y-696187D03*
G54D13*
G01X814479Y251410D03*
G01X814479Y360427D03*
G54D28*
G01X928779Y349200D03*
G01X928779Y262637D03*
G01X292100Y551282D03*
G01X292100Y464718D03*
G54D29*
G01X-887321Y1144119D03*
G01X-887321Y1398119D03*
G01X-633321Y1144119D03*
G01X-633321Y1398119D03*
G01X-379321Y1144119D03*
G01X-379321Y1398119D03*
G01X-125321Y1144119D03*
G01X-125321Y1398119D03*
G01X128679Y1144119D03*
G01X128679Y1398119D03*
G01X382679Y1144119D03*
G01X382679Y1398119D03*
G01X636679Y1144119D03*
G01X636679Y1398119D03*
G01X890679Y1144119D03*
G54D30*
G01X890679Y1398119D03*
G54D29*
G01X-1141321Y-887881D03*
G01X-1395321Y-887881D03*
G01X-1141321Y-633881D03*
G01X-1395321Y-633881D03*
G01X-1141321Y-379881D03*
G01X-1395321Y-379881D03*
G01X-1141321Y-125881D03*
G01X-1395321Y-125881D03*
G01X-1141321Y128119D03*
G01X-1395321Y128119D03*
G01X-1141321Y382119D03*
G01X-1395321Y382119D03*
G01X-1141321Y636119D03*
G01X-1395321Y636119D03*
G01X-1141321Y890119D03*
G54D30*
G01X-1395321Y890119D03*
G54D29*
G01X890679Y-1141881D03*
G01X890679Y-1395881D03*
G01X636679Y-1141881D03*
G01X636679Y-1395881D03*
G01X382679Y-1141881D03*
G01X382679Y-1395881D03*
G01X128679Y-1141881D03*
G01X128679Y-1395881D03*
G01X-125321Y-1141881D03*
G01X-125321Y-1395881D03*
G01X-379321Y-1141881D03*
G01X-379321Y-1395881D03*
G01X-633321Y-1141881D03*
G01X-633321Y-1395881D03*
G01X-887321Y-1141881D03*
G54D30*
G01X-887321Y-1395881D03*
G54D31*
G01X1398679Y128119D03*
G54D32*
G01X1144679Y128119D03*
G01X1398679Y382119D03*
G01X1144679Y382119D03*
G01X1398679Y636119D03*
G01X1144679Y636119D03*
G01X1398679Y890119D03*
G01X1144679Y890119D03*
G54D33*
G01X-254658Y834515D03*
G01X-353656Y933514D03*
G01X-734420Y357526D03*
G01X-833419Y456524D03*
G54D34*
G01X493999Y747999D03*
G01X395001Y649001D03*
G04 Pad End*

G04 Via Start*
G54D35*
G01X660128Y761849D03*
G01X584894Y761849D03*
G01X489170Y-111024D03*
G01X789079Y-113181D03*
G01X789079Y-205135D03*
G01X789079Y-299269D03*
G01X789079Y-405281D03*
G01X789079Y-513390D03*
G01X789079Y-633881D03*
G01X789079Y-758668D03*
G01X750979Y-811681D03*
G01X662079Y-811681D03*
G01X560479Y-811681D03*
G01X454911Y-811681D03*
G01X357279Y-811681D03*
G01X344579Y-719556D03*
G01X344579Y-609727D03*
G01X344579Y-496817D03*
G01X458879Y-417981D03*
G01X694223Y-445413D03*
G01X-866027Y195603D03*
G01X-845884Y107441D03*
G01X-939135Y175219D03*
G01X-929278Y80188D03*
G01X-150721Y813919D03*
G01X-226921Y674219D03*
G01X-226921Y750419D03*
G01X-290421Y686919D03*
G01X-163421Y734300D03*
G01X278979Y-532281D03*
G01X-359839Y446558D03*
G01X471579Y572619D03*
G01X369979Y551651D03*
G01X154664Y514684D03*
G01X219864Y503590D03*
G01X200671Y383445D03*
G01X129433Y270275D03*
G01X265736Y360623D03*
G01X314196Y292655D03*
G01X198806Y185575D03*
G01X243130Y137693D03*
G01X-126074Y268482D03*
G01X-669164Y854742D03*
G01X-741986Y874915D03*
G01X-792786Y932038D03*
G01X-301588Y314209D03*
G01X-344313Y264727D03*
G01X369979Y240680D03*
G01X291271Y93627D03*
G01X814479Y178919D03*
G01X-566747Y297865D03*
G01X-288780Y96321D03*
G01X-227823Y158197D03*
G01X-441050Y-255807D03*
G01X-386172Y-306941D03*
G01X-430073Y-190607D03*
G01X-239189Y-154867D03*
G01X-564517Y-385498D03*
G01X-900021Y-379881D03*
G01X-535471Y-9365D03*
G01X-912721Y877419D03*
G01X-963521Y509119D03*
G01X-418664Y505382D03*
G01X-772253Y-624932D03*
G01X-925421Y-887881D03*
G01X945501Y735462D03*
G01X928779Y483719D03*
G01X901296Y615058D03*
G01X-265021Y991719D03*
G01X-112621Y661519D03*
G01X-188821Y585319D03*
G01X1055779Y-417981D03*
G01X1055779Y-532281D03*
G01X1055779Y-646581D03*
G01X1055779Y-748181D03*
G01X1055779Y-875181D03*
G01X1054070Y-1005470D03*
G01X1462179Y-214781D03*
G01X1325236Y-85565D03*
G01X1233579Y-163981D03*
G01X1119279Y-100481D03*
G01X1030379Y-36981D03*
G01X928779Y64619D03*
G01X966879Y-456081D03*
G01X966879Y-608481D03*
G01X877979Y-722781D03*
G01X890679Y-290981D03*
G01X890679Y-532281D03*
G01X1443513Y-83577D03*
G01X1220879Y-75081D03*
G01X1335179Y-214781D03*
G01X966879Y-773581D03*
G01X-1014321Y-1078381D03*
G01X-192438Y949516D03*
G01X789079Y572619D03*
G01X776379Y712319D03*
G01X21800Y-551672D03*
G01X13940Y-483129D03*
G01X377535Y-258792D03*
G01X312335Y-273998D03*
G01X215430Y-163155D03*
G01X171548Y-211480D03*
G01X271988Y-325858D03*
G01X249214Y-391058D03*
G01X-161641Y-813670D03*
G01X-409487Y-872390D03*
G01X-321665Y-749489D03*
G01X1060350Y-1379026D03*
G54D36*
G01X-69049Y-69592D03*
G01X1661Y-140302D03*
G01X72372Y71793D03*
G01X143065Y1101D03*
G01X-139760Y1119D03*
G01X1661Y142540D03*
G01X1661Y1119D03*
G01X-69049Y71758D03*
G01X72372Y-69592D03*
G04 Via End*

G04 Track Start*
G54D37*
G01X521936Y267376D02*
G01X420779Y166219D01*
G01X420779Y140819D02*
G01X401729Y121769D01*
G54D11*
G01X426481Y58215D02*
G01X470985Y102719D01*
G01X471579Y102719D01*
G54D37*
G01X594871Y-113181D02*
G01X512761Y-113181D01*
G54D10*
G01X441433Y-184081D02*
G01X369906Y-112553D01*
G54D37*
G01X-539407Y788519D02*
G01X-493621Y788519D01*
G01X-410417Y703440D02*
G01X-410417Y648819D01*
G01X-274683Y839175D02*
G01X-355090Y758767D01*
G01X-410417Y703440D01*
G01X-410417Y705316D02*
G01X-410417Y703440D01*
G01X-631972Y427264D02*
G01X-686593Y427264D01*
G01X560479Y-811681D02*
G01X454911Y-811681D01*
G01X598136Y344462D02*
G01X484723Y457876D01*
G01X484723Y458762D01*
G01X484279Y459205D02*
G01X623536Y598462D01*
G54D11*
G01X-196856Y284482D02*
G01X-302677Y390303D01*
G01X-423105Y-55996D02*
G01X-569633Y-202524D01*
G01X-582077Y-202524D01*
G54D37*
G01X-582077Y-202524D02*
G01X-658277Y-278724D01*
G54D10*
G01X465483Y-696187D02*
G01X520001Y-696187D01*
G01X560479Y-654021D02*
G01X560479Y-464913D01*
G01X486085Y-285308D02*
G01X341618Y-140841D01*
G54D37*
G01X420779Y-75081D02*
G01X408079Y-62381D01*
G01X-582455Y745471D02*
G01X-539407Y788519D01*
G01X-410417Y648819D02*
G01X-448110Y611126D01*
G01X-493621Y788519D02*
G01X-410417Y705316D01*
G54D38*
G01X532900Y128119D02*
G01X658998Y128119D01*
G54D37*
G01X420779Y166219D02*
G01X420779Y140819D01*
G54D10*
G01X611279Y-358190D02*
G01X712879Y-358190D01*
G01X306479Y391100D02*
G01X306479Y465837D01*
G54D37*
G01X369979Y551651D02*
G01X307229Y551651D01*
G01X306479Y552400D01*
G54D10*
G01X58794Y425903D02*
G01X88400Y455510D01*
G01X200215Y284482D02*
G01X265736Y350003D01*
G01X265736Y360623D01*
G01X228485Y256212D02*
G01X258052Y285779D01*
G01X87064Y397633D02*
G01X141857Y452426D01*
G01X154664Y483345D02*
G01X154664Y514684D01*
G01X115352Y369345D02*
G01X219864Y473858D01*
G01X219864Y503590D01*
G01X171927Y312770D02*
G01X129433Y270275D01*
G01X-168568Y312770D02*
G01X-126074Y270275D01*
G01X-126074Y268482D01*
G01X-253414Y227924D02*
G01X-281899Y256409D01*
G01X-299859Y263849D02*
G01X-322255Y263849D01*
G01X-887321Y1103840D02*
G01X-887321Y1144119D01*
G01X-633321Y1144119D02*
G01X-633321Y1094221D01*
G01X-711555Y905346D02*
G01X-741986Y874915D01*
G01X-379321Y1144119D02*
G01X-668697Y854742D01*
G01X-669164Y854742D01*
G01X276013Y293219D02*
G01X313633Y293219D01*
G01X314196Y292655D01*
G01X369979Y240680D02*
G01X369979Y327600D01*
G01X306479Y391100D01*
G01X313348Y171349D02*
G01X369979Y227980D01*
G01X369979Y240680D01*
G01X341636Y143061D02*
G01X292202Y93627D01*
G01X291271Y93627D01*
G54D37*
G01X928779Y349200D02*
G01X1111761Y349200D01*
G01X1144679Y382119D01*
G54D10*
G01X1144679Y128119D02*
G01X1044987Y227811D01*
G01X960909Y262637D02*
G01X928779Y262637D01*
G01X825706Y262637D01*
G01X814479Y251410D01*
G01X814479Y178919D01*
G01X-1141321Y-873002D02*
G01X-1141321Y-887881D01*
G01X-688164Y-409818D02*
G01X-688658Y-409818D01*
G01X-1133881Y-855041D01*
G01X-488122Y-209776D02*
G01X-688164Y-409818D01*
G01X-338277Y143061D02*
G01X-291538Y96321D01*
G01X-288780Y96321D01*
G01X-423123Y58215D02*
G01X-452747Y87840D01*
G01X-1060763Y-379881D02*
G01X-1141321Y-379881D01*
G01X-1141321Y85661D02*
G01X-1141321Y128119D01*
G01X-281701Y199636D02*
G01X-240262Y158197D01*
G01X-227823Y158197D01*
G01X-394835Y-84266D02*
G01X-473243Y-162673D01*
G01X-480682Y-180634D02*
G01X-480682Y-191816D01*
G01X-366547Y-112553D02*
G01X-417421Y-163427D01*
G01X-417421Y-177955D01*
G01X-430073Y-190607D01*
G01X-338259Y-140841D02*
G01X-372274Y-174855D01*
G01X-379713Y-192816D02*
G01X-379713Y-201062D01*
G01X-309971Y-169129D02*
G01X-341754Y-200911D01*
G01X-349193Y-218872D02*
G01X-349193Y-224933D01*
G01X-356633Y-242893D02*
G01X-371881Y-258141D01*
G01X143639Y341057D02*
G01X186027Y383445D01*
G01X200671Y383445D01*
G01X-83705Y397633D02*
G01X-111377Y425306D01*
G01X-111993Y369345D02*
G01X-127018Y384371D01*
G01X-140280Y341057D02*
G01X-161241Y362019D01*
G01X-111377Y425306D02*
G01X-111377Y451220D01*
G01X-887321Y-1366123D02*
G01X-887321Y-1395881D01*
G01X-83705Y-395395D02*
G01X-112621Y-424311D01*
G01X-55417Y-423683D02*
G01X-74521Y-442787D01*
G01X-111993Y-367107D02*
G01X-135841Y-390957D01*
G01X-173941Y-372517D02*
G01X-140262Y-338838D01*
G54D37*
G01X662079Y-811681D02*
G01X560479Y-811681D01*
G54D10*
G01X87064Y-395395D02*
G01X107279Y-415610D01*
G01X114718Y-433571D02*
G01X114718Y-449935D01*
G01X198806Y185575D02*
G01X214423Y185575D01*
G01X256773Y227924D01*
G01X285060Y199636D02*
G01X243130Y157706D01*
G01X243130Y137693D01*
G01X285042Y-197417D02*
G01X319348Y-231723D01*
G01X319348Y-261011D01*
G54D11*
G01X218023Y-481038D02*
G01X218023Y-469224D01*
G54D10*
G01X319348Y-261011D02*
G01X312335Y-268025D01*
G01X312335Y-273998D01*
G01X200197Y-282262D02*
G01X242293Y-324358D01*
G01X270488Y-324358D01*
G01X271988Y-325858D01*
G01X228485Y-253974D02*
G01X185990Y-211480D01*
G01X171548Y-211480D01*
G01X256773Y-225686D02*
G01X215430Y-184344D01*
G01X215430Y-163155D01*
G01X313330Y-169129D02*
G01X377535Y-233333D01*
G01X377535Y-258792D01*
G01X107279Y-467896D02*
G01X99485Y-475689D01*
G01X81525Y-483129D02*
G01X13940Y-483129D01*
G54D37*
G01X344579Y-496817D02*
G01X423416Y-417981D01*
G01X458879Y-417981D01*
G01X465483Y-546175D02*
G01X344579Y-546175D01*
G01X344579Y-609727D01*
G01X344579Y-719556D01*
G01X344579Y-546175D02*
G01X344579Y-496817D01*
G01X278979Y-532281D02*
G01X269266Y-532281D01*
G01X218023Y-481038D01*
G54D10*
G01X-55435Y425903D02*
G01X27153Y508490D01*
G01X103279Y491431D02*
G01X103279Y531926D01*
G01X58776Y-423683D02*
G01X40374Y-405281D01*
G01X14379Y-405281D01*
G01X-21541Y-441202D01*
G01X703899Y-1018601D02*
G01X716089Y-1030790D01*
G01X197440Y-1327121D02*
G01X128679Y-1395881D01*
G01X255679Y-1142784D02*
G01X255679Y-1186518D01*
G01X-125321Y-1395881D02*
G01X-56560Y-1327121D01*
G01X1679Y-1186518D02*
G01X1679Y-982944D01*
G01X-506321Y-894044D02*
G01X-506321Y-1161118D01*
G01X-582521Y-1345081D02*
G01X-633321Y-1395881D01*
G01X-760321Y-1084544D02*
G01X-760321Y-1123018D01*
G01X-827540Y-1285301D02*
G01X-872441Y-1330202D01*
G01X-488668Y102719D02*
G01X-505418Y102719D01*
G01X-593680Y66160D02*
G01X-1024841Y-365002D01*
G01X-394835Y86503D02*
G01X-403611Y95279D01*
G01X-513553Y140819D02*
G01X-518118Y140819D01*
G01X128679Y926795D02*
G01X128679Y1144119D01*
G01X-606380Y104260D02*
G01X-747621Y-36981D01*
G01X-962244Y-125881D02*
G01X-1141321Y-125881D01*
G01X-392021Y-608481D02*
G01X-684121Y-900581D01*
G01X-375601Y-668261D02*
G01X-439101Y-731761D01*
G01X-308022Y-1245671D02*
G01X-402339Y-1339987D01*
G01X-233627Y-436058D02*
G01X-233627Y-1066066D01*
G01X404272Y-951381D02*
G01X541616Y-951381D01*
G01X-283123Y314209D02*
G01X-301588Y314209D01*
G01X-225126Y256212D02*
G01X-283123Y314209D01*
G01X-323133Y264727D02*
G01X-344313Y264727D01*
G01X-322255Y263849D02*
G01X-323133Y264727D01*
G01X-450908Y229719D02*
G01X-455521Y229719D01*
G01X-529063Y260181D02*
G01X-566747Y297865D01*
G54D37*
G01X497687Y725727D02*
G01X497423Y725462D01*
G01X622909Y599976D01*
G54D10*
G01X54589Y574729D02*
G01X614999Y1135139D01*
G01X736474Y989914D02*
G01X890679Y1144119D01*
G01X-792786Y932038D02*
G01X-792786Y944903D01*
G01X-830886Y1036884D02*
G01X-879881Y1085879D01*
G01X-931584Y-62381D02*
G01X-931957Y-62381D01*
G01X-1072560Y-4141D02*
G01X-1126441Y49740D01*
G01X62819Y-551672D02*
G01X21800Y-551672D01*
G01X-36421Y-477123D02*
G01X-36421Y-531438D01*
G01X9077Y-641279D02*
G01X177002Y-809204D01*
G01X-74521Y-442787D02*
G01X-74521Y-544954D01*
G01X-20620Y-675082D02*
G01X150609Y-846310D01*
G01X-112621Y-424311D02*
G01X-112621Y-555743D01*
G01X-48389Y-710813D02*
G01X141115Y-900317D01*
G01X-150721Y-426877D02*
G01X-150721Y-582163D01*
G01X-87209Y-735492D02*
G01X210140Y-1032842D01*
G01X-65540Y-820661D02*
G01X-113880Y-772322D01*
G01X-188821Y-591399D02*
G01X-188821Y-408438D01*
G01X-196838Y-282262D02*
G01X-229062Y-314486D01*
G01X-225126Y-253974D02*
G01X-259358Y-288207D01*
G01X-253414Y-225686D02*
G01X-291547Y-263819D01*
G01X-176121Y397940D02*
G01X-176121Y475009D01*
G01X-143021Y554918D02*
G01X-69260Y628679D01*
G01X-141897Y420292D02*
G01X-141897Y455596D01*
G01X-110616Y531116D02*
G01X18099Y659831D01*
G01X-415732Y-563631D02*
G01X-799762Y-947661D01*
G01X496979Y-1190725D02*
G01X496979Y-1240363D01*
G01X467833Y-1310727D02*
G01X382679Y-1395881D01*
G01X941605Y-1344955D02*
G01X890679Y-1395881D01*
G01X1016000Y-1133910D02*
G01X1016000Y-1165350D01*
G01X397606Y-900581D02*
G01X811904Y-900581D01*
G01X752648Y-1119052D02*
G01X752648Y-1237368D01*
G01X722564Y-1309996D02*
G01X636679Y-1395881D01*
G01X138111Y-486900D02*
G01X80779Y-544233D01*
G01X115352Y-367107D02*
G01X139146Y-390902D01*
G01X154079Y-426954D02*
G01X154079Y-448350D01*
G54D11*
G01X181082Y-376298D02*
G01X143621Y-338838D01*
G01X218023Y-469224D02*
G01X194497Y-445699D01*
G01X192179Y-440103D02*
G01X192179Y-403090D01*
G54D38*
G01X1136377Y-224788D02*
G01X1306282Y-394692D01*
G54D10*
G01X1347634Y-512230D02*
G01X1347634Y-480049D01*
G01X188423Y-326348D02*
G01X246443Y-384368D01*
G01X-239189Y-154867D02*
G01X-281683Y-197362D01*
G01X-379321Y-300089D02*
G01X-386172Y-306941D01*
G01X-379321Y-276102D02*
G01X-379321Y-300089D01*
G01X-423937Y-255807D02*
G01X-441050Y-255807D01*
G01X-387153Y-219023D02*
G01X-423937Y-255807D01*
G01X-1314524Y-968678D02*
G01X-1395321Y-887881D01*
G01X-962045Y-1014881D02*
G01X-1202979Y-1014881D01*
G54D37*
G01X789079Y-513390D02*
G01X789079Y-633881D01*
G01X789079Y-405281D02*
G01X789079Y-513390D01*
G01X789079Y-299269D02*
G01X789079Y-405281D01*
G01X789079Y-205135D02*
G01X789079Y-299269D01*
G01X789079Y-113181D02*
G01X789079Y-205135D01*
G01X655475Y-696187D02*
G01X787400Y-696187D01*
G01X662079Y-811681D02*
G01X750979Y-811681D01*
G01X789079Y-773581D01*
G01X789079Y-758668D01*
G01X357279Y-811681D02*
G01X454911Y-811681D01*
G01X344579Y-719556D02*
G01X344579Y-798981D01*
G01X357279Y-811681D01*
G01X789079Y-633881D02*
G01X789079Y-758668D01*
G54D10*
G01X611279Y-358190D02*
G01X611279Y-535079D01*
G01X622375Y-546175D01*
G01X655475Y-546175D01*
G01X-638798Y135341D02*
G01X-769301Y4839D01*
G54D37*
G01X-331644Y401106D02*
G01X-359839Y429302D01*
G01X-359839Y446558D01*
G54D10*
G01X-23721Y738622D02*
G01X-23721Y898835D01*
G01X-96498Y487141D02*
G01X256956Y840595D01*
G54D37*
G01X-658277Y-278724D02*
G01X-923005Y-543452D01*
G54D10*
G01X123073Y579713D02*
G01X389590Y846230D01*
G01X498039Y-1111601D02*
G01X498039Y-1189665D01*
G01X496979Y-1190725D01*
G01X-366547Y114791D02*
G01X-401262Y149505D01*
G54D37*
G01X-826198Y287659D02*
G01X-686593Y427264D01*
G01X660128Y761849D02*
G01X584894Y761849D01*
G54D38*
G01X471579Y102719D02*
G02X532900Y128119I61321J-61321D01*
G01X658998Y128119D02*
G02X750979Y90019I0J-130082D01*
G01X856235Y4182D02*
G03X1116217Y-211125I1275299J1275298D01*
G54D37*
G01X512761Y-113181D02*
G02X420779Y-75081I0J130082D01*
G54D10*
G01X598579Y-249173D02*
G02X441433Y-184081I0J222238D01*
G01X520001Y-696187D02*
G03X547779Y-684681I0J39285D01*
G03X560479Y-654021I-30661J30661D01*
G01X560479Y-464913D02*
G03X486085Y-285308I-254000J0D01*
G01X-452747Y87840D02*
G03X-488668Y102719I-35921J-35921D01*
G01X-1024841Y-365002D02*
G02X-1060763Y-379881I-35921J35921D01*
G01X-1126441Y49740D02*
G02X-1141321Y85661I35921J35921D01*
G01X-161241Y362019D02*
G02X-176121Y397940I35921J35921D01*
G01X-127018Y384371D02*
G02X-141897Y420292I35921J35921D01*
G01X-111377Y451220D02*
G02X-96498Y487141I50800J-0D01*
G01X88400Y455510D02*
G03X103279Y491431I-35921J35921D01*
G01X27153Y508490D02*
G03X39779Y538975I-30484J30484D01*
G02X54589Y574729I50564J0D01*
G01X103279Y531926D02*
G02X123073Y579713I67581J0D01*
G01X-872441Y-1330202D02*
G03X-887321Y-1366123I35921J-35921D01*
G01X-188821Y-408438D02*
G02X-173941Y-372517I50800J-0D01*
G01X-135841Y-390957D02*
G03X-150721Y-426877I35921J-35921D01*
G01X-21541Y-441202D02*
G03X-36421Y-477123I35921J-35921D01*
G01X716089Y-1030790D02*
G02X752648Y-1119052I-88262J-88262D01*
G01X541616Y-951381D02*
G02X703899Y-1018601I0J-229503D01*
G01X356377Y-989481D02*
G02X466319Y-1035021I0J-155481D01*
G02X498039Y-1111601I-76580J-76580D01*
G01X255679Y-1186518D02*
G02X197440Y-1327121I-198842J0D01*
G01X210140Y-1032842D02*
G02X255679Y-1142784I-109942J-109942D01*
G01X-56560Y-1327121D02*
G03X1679Y-1186518I-140602J140602D01*
G01X1679Y-982944D02*
G03X-65540Y-820661I-229503J0D01*
G01X-439101Y-731761D02*
G03X-506321Y-894044I162283J-162283D01*
G01X-506321Y-1161118D02*
G02X-582521Y-1345081I-260163J0D01*
G01X-684121Y-900581D02*
G03X-760321Y-1084544I183963J-183963D01*
G01X-760321Y-1123018D02*
G02X-827540Y-1285301I-229503J0D01*
G01X-505418Y102719D02*
G03X-593680Y66160I0J-124821D01*
G01X-518118Y140819D02*
G03X-606380Y104260I0J-124821D01*
G01X-403611Y95279D02*
G03X-513553Y140819I-109942J-109942D01*
G01X18099Y659831D02*
G03X128679Y926795I-266964J266964D01*
G01X-769301Y4839D02*
G02X-931584Y-62381I-162283J162283D01*
G01X-747621Y-36981D02*
G02X-962244Y-125881I-214624J214624D01*
G01X-303121Y-393857D02*
G02X-392021Y-608481I-303524J0D01*
G01X-265021Y-401297D02*
G02X-375601Y-668261I-377544J0D01*
G01X-189365Y-329201D02*
G03X-233627Y-436058I106857J-106857D01*
G01X-233627Y-1066066D02*
G02X-308022Y-1245671I-254000J0D01*
G01X-799762Y-947661D02*
G02X-962045Y-1014881I-162283J162283D01*
G01X177002Y-809204D02*
G03X397606Y-900581I220604J220604D01*
G01X150609Y-846310D02*
G03X404272Y-951381I253664J253663D01*
G01X141115Y-900317D02*
G03X356377Y-989481I215262J215262D01*
G01X-309989Y171349D02*
G03X-450908Y229719I-140918J-140918D01*
G01X-455521Y229719D02*
G02X-529063Y260181I0J104005D01*
G54D37*
G01X584894Y761849D02*
G03X497687Y725727I-0J-123329D01*
G01X622909Y599976D02*
G01X623536Y598462D01*
G54D10*
G01X-69260Y628679D02*
G03X-23721Y738622I-109942J109942D01*
G01X614999Y1135139D02*
G02X636679Y1144119I21680J-21681D01*
G01X556869Y915519D02*
G03X736474Y989914I-0J254000D01*
G01X-633321Y1094221D02*
G02X-711555Y905346I-267110J0D01*
G01X-879881Y1085879D02*
G02X-887321Y1103840I17961J17960D01*
G01X-792786Y944903D02*
G03X-830886Y1036884I-130082J0D01*
G01X-931957Y-62381D02*
G02X-1072560Y-4141I0J198842D01*
G01X-36421Y-531438D02*
G03X9077Y-641279I155338J0D01*
G01X-74521Y-544954D02*
G03X-20620Y-675082I184028J-0D01*
G01X-112621Y-555743D02*
G03X-48389Y-710813I219302J-0D01*
G01X-150721Y-582163D02*
G03X-87209Y-735492I216841J0D01*
G01X-113880Y-772322D02*
G02X-188821Y-591399I180922J180922D01*
G01X-229062Y-314486D02*
G03X-265021Y-401297I86811J-86811D01*
G01X-259358Y-288207D02*
G03X-303121Y-393857I105651J-105651D01*
G01X-291547Y-263819D02*
G03X-335812Y-370688I106869J-106868D01*
G01X-176121Y475009D02*
G02X-143021Y554918I113008J0D01*
G01X-141897Y455596D02*
G02X-110616Y531116I106800J-0D01*
G01X-335812Y-370688D02*
G02X-415732Y-563631I-272863J0D01*
G01X496979Y-1240363D02*
G02X467833Y-1310727I-99511J0D01*
G01X941605Y-954305D02*
G02X1016000Y-1133910I-179605J-179605D01*
G01X1016000Y-1165350D02*
G02X941605Y-1344955I-254000J0D01*
G01X811904Y-900581D02*
G02X941605Y-954305I0J-183426D01*
G01X752648Y-1237368D02*
G02X722564Y-1309996I-102712J0D01*
G01X80779Y-544233D02*
G02X62819Y-551672I-17961J17961D01*
G01X107279Y-415610D02*
G02X114718Y-433571I-17961J-17961D01*
G01X114718Y-449935D02*
G02X107279Y-467896I-25400J0D01*
G01X99485Y-475689D02*
G02X81525Y-483129I-17961J17961D01*
G01X154079Y-448350D02*
G02X138111Y-486900I-54518J0D01*
G01X139146Y-390902D02*
G02X154079Y-426954I-36052J-36052D01*
G54D11*
G01X192179Y-403090D02*
G03X181082Y-376298I-37890J0D01*
G01X194497Y-445699D02*
G01X192179Y-440103D01*
G54D10*
G01X141857Y452426D02*
G03X154664Y483345I-30919J30919D01*
G54D38*
G01X1306282Y-394692D02*
G02X1349173Y-498239I-103547J-103547D01*
G54D10*
G01X1363063Y-549479D02*
G02X1347634Y-512230I37249J37249D01*
G01X-371881Y-258141D02*
G03X-379321Y-276102I17961J-17960D01*
G01X-349193Y-224933D02*
G02X-356633Y-242893I-25400J0D01*
G01X-341754Y-200911D02*
G03X-349193Y-218872I17961J-17960D01*
G01X-379713Y-201062D02*
G02X-387153Y-219023I-25400J0D01*
G01X-372274Y-174855D02*
G03X-379713Y-192816I17961J-17960D01*
G01X-473243Y-162673D02*
G03X-480682Y-180634I17961J-17960D01*
G01X-480682Y-191816D02*
G02X-488122Y-209776I-25400J0D01*
G01X-1133881Y-855041D02*
G03X-1141321Y-873002I17961J-17960D01*
G01X-281899Y256409D02*
G03X-299859Y263849I-17960J-17961D01*
G01X258052Y285779D02*
G02X276013Y293219I17960J-17961D01*
G01X246443Y-384368D02*
G02X249214Y-391058I-6690J-6690D01*
G01X-1202979Y-1014881D02*
G02X-1314524Y-968678I-0J157749D01*
G01X-502932Y191619D02*
G03X-638798Y135341I0J-192144D01*
G01X-23721Y898835D02*
G03X-125321Y1144119I-346884J-0D01*
G01X256956Y840595D02*
G03X382679Y1144119I-303524J303524D01*
G54D37*
G01X-923005Y-543452D02*
G02X-1141321Y-633881I-218316J218316D01*
G54D10*
G01X389590Y846230D02*
G02X556869Y915519I167279J-167279D01*
G01X1044987Y227811D02*
G03X960909Y262637I-84079J-84079D01*
G01X-401262Y149505D02*
G03X-502932Y191619I-101671J-101671D01*
G04 Track End*

M02*

