G04 Layer: BottomSilkscreenLayer*
G04 EasyEDA Pro v2.2.39.2, 2025-05-28 23:54:08*
G04 Gerber Generator version 0.3*
G04 Scale: 100 percent, Rotated: No, Reflected: No*
G04 Dimensions in millimeters*
G04 Leading zeros omitted, absolute positions, 4 integers and 5 decimals*
G04 Generated by one-click*
%FSLAX45Y45*%
%MOMM*%
%ADD10C,0.254*%
%ADD11C,0.9551*%
G75*


G04 Image Start*
G36*
G01X1769551Y16425D02*
G01X1769551Y-1733574D01*
G01X19555Y-1733574D01*
G01X-1730439Y-1733574D01*
G01X-1730439Y16425D01*
G01X-1730439Y1153413D01*
G01X-1557983Y1153413D01*
G01X-1557363Y-30209D01*
G01X-1556911Y-895064D01*
G01X-1159828Y-895064D01*
G01X-1156145Y-881480D01*
G01X-1152459Y-867899D01*
G01X-1149213Y-856830D01*
G01X-1145967Y-845758D01*
G01X-1145967Y-843827D01*
G01X-1145967Y-841892D01*
G01X-1143531Y-837091D01*
G01X-1141096Y-832291D01*
G01X-1135759Y-820894D01*
G01X-1130422Y-809497D01*
G01X-1128797Y-808496D01*
G01X-1127169Y-807500D01*
G01X-1127169Y-804330D01*
G01X-1127169Y-801160D01*
G01X-1124827Y-798836D01*
G01X-1122485Y-796515D01*
G01X-1119655Y-791087D01*
G01X-1116828Y-785656D01*
G01X-1115589Y-785646D01*
G01X-1114352Y-785631D01*
G01X-1110080Y-779347D01*
G01X-1105807Y-773058D01*
G01X-1091065Y-758588D01*
G01X-1076320Y-744112D01*
G01X-1069701Y-738661D01*
G01X-1063084Y-733210D01*
G01X-1056247Y-728763D01*
G01X-1049409Y-724318D01*
G01X-1047682Y-722344D01*
G01X-1045952Y-720373D01*
G01X-1040489Y-716556D01*
G01X-1035020Y-712738D01*
G01X-1033920Y-712738D01*
G01X-1032815Y-712738D01*
G01X-1027735Y-708501D01*
G01X-1022658Y-704262D01*
G01X-1020192Y-704262D01*
G01X-1017723Y-704262D01*
G01X-1003661Y-697739D01*
G01X-989595Y-691214D01*
G01X-976778Y-685641D01*
G01X-963964Y-680068D01*
G01X-948627Y-676157D01*
G01X-933296Y-672243D01*
G01X-911030Y-670348D01*
G01X-888764Y-668453D01*
G01X-886191Y-667722D01*
G01X-883618Y-666990D01*
G01X-862966Y-665316D01*
G01X-842308Y-663640D01*
G01X-824639Y-659395D01*
G01X-806974Y-655151D01*
G01X-805231Y-653424D01*
G01X-803489Y-651694D01*
G01X-801025Y-651694D01*
G01X-798564Y-651694D01*
G01X-791541Y-648158D01*
G01X-784518Y-644623D01*
G01X-778183Y-636541D01*
G01X-771853Y-628456D01*
G01X-768358Y-619662D01*
G01X-764866Y-610871D01*
G01X-764866Y-596101D01*
G01X-764866Y-581334D01*
G01X-769196Y-568608D01*
G01X-773530Y-555885D01*
G01X-778241Y-549104D01*
G01X-782953Y-542319D01*
G01X-789720Y-539162D01*
G01X-796484Y-536002D01*
G01X-797040Y-534532D01*
G01X-797599Y-533058D01*
G01X-811566Y-528436D01*
G01X-825536Y-523808D01*
G01X-940890Y-523190D01*
G01X-1056247Y-522573D01*
G01X-1066501Y-517613D01*
G01X-1076755Y-512652D01*
G01X-1079384Y-510526D01*
G01X-1082018Y-508405D01*
G01X-1087540Y-500704D01*
G01X-1093059Y-493000D01*
G01X-1094751Y-478659D01*
G01X-1096442Y-464316D01*
G01X-1095472Y-440577D01*
G01X-1094507Y-416836D01*
G01X-1092696Y-407511D01*
G01X-1090885Y-398184D01*
G01X-1087829Y-392246D01*
G01X-1084779Y-386312D01*
G01X-1080765Y-382688D01*
G01X-1076755Y-379066D01*
G01X-1069061Y-375187D01*
G01X-1061373Y-371311D01*
G01X-859806Y-371179D01*
G01X-658242Y-371050D01*
G01X-649674Y-373224D01*
G01X-649674Y-373224D01*
G01X-641112Y-375401D01*
G01X-637706Y-378311D01*
G01X-634294Y-381225D01*
G01X-629938Y-386183D01*
G01X-625582Y-391141D01*
G01X-622600Y-395959D01*
G01X-619621Y-400775D01*
G01X-615768Y-411349D01*
G01X-611912Y-421923D01*
G01X-612430Y-580473D01*
G01X-612948Y-739024D01*
G01X-614670Y-752591D01*
G01X-616385Y-766157D01*
G01X-618638Y-773787D01*
G01X-620891Y-781417D01*
G01X-623692Y-788052D01*
G01X-626497Y-794683D01*
G01X-633962Y-803355D01*
G01X-641429Y-812027D01*
G01X-652765Y-816647D01*
G01X-664104Y-821270D01*
G01X-687568Y-821191D01*
G01X-711035Y-821120D01*
G01X-718724Y-819479D01*
G01X-726415Y-817836D01*
G01X-736595Y-816238D01*
G01X-746778Y-814640D01*
G01X-775902Y-813551D01*
G01X-805026Y-812461D01*
G01X-819552Y-814407D01*
G01X-834081Y-816355D01*
G01X-846895Y-819786D01*
G01X-859714Y-823220D01*
G01X-871678Y-827175D01*
G01X-883639Y-831132D01*
G01X-896455Y-836367D01*
G01X-909275Y-841605D01*
G01X-910781Y-841610D01*
G01X-912287Y-841618D01*
G01X-927390Y-850193D01*
G01X-942495Y-858770D01*
G01X-949541Y-866725D01*
G01X-956590Y-874683D01*
G01X-960842Y-884856D01*
G01X-965091Y-895034D01*
G01X-966826Y-901816D01*
G01X-968561Y-908597D01*
G01X-968563Y-924127D01*
G01X-968569Y-939656D01*
G01X-965678Y-949519D01*
G01X-962790Y-959377D01*
G01X-957377Y-970446D01*
G01X-951959Y-981513D01*
G01X-948561Y-986428D01*
G01X-945162Y-991340D01*
G01X-933859Y-1002537D01*
G01X-922554Y-1013733D01*
G01X-915546Y-1019293D01*
G01X-908533Y-1024853D01*
G01X-892671Y-1033761D01*
G01X-876803Y-1042674D01*
G01X-860570Y-1049674D01*
G01X-844335Y-1056674D01*
G01X-830532Y-1060941D01*
G01X-816735Y-1065211D01*
G01X-803189Y-1067027D01*
G01X-789643Y-1068849D01*
G01X-780245Y-1067243D01*
G01X-770847Y-1065640D01*
G01X-763154Y-1063959D01*
G01X-755465Y-1062283D01*
G01X-743502Y-1058107D01*
G01X-731541Y-1053934D01*
G01X-717012Y-1048059D01*
G01X-702486Y-1042184D01*
G01X-685397Y-1036166D01*
G01X-668305Y-1030149D01*
G01X-659674Y-1027530D01*
G01X-651041Y-1024907D01*
G01X-635036Y-1022976D01*
G01X-619029Y-1021043D01*
G01X-609997Y-1022166D01*
G01X-600967Y-1023283D01*
G01X-592570Y-1029918D01*
G01X-584175Y-1036552D01*
G01X-583108Y-1042946D01*
G01X-582044Y-1049344D01*
G01X-582097Y-1062910D01*
G01X-582151Y-1076474D01*
G01X-584477Y-1095127D01*
G01X-586801Y-1113781D01*
G01X-590408Y-1124802D01*
G01X-594015Y-1135823D01*
G01X-598701Y-1142503D01*
G01X-603388Y-1149181D01*
G01X-611069Y-1153921D01*
G01X-618750Y-1158663D01*
G01X-622163Y-1160255D01*
G01X-625582Y-1161846D01*
G01X-635839Y-1165584D01*
G01X-646093Y-1169323D01*
G01X-652072Y-1171701D01*
G01X-658056Y-1174081D01*
G01X-667454Y-1175795D01*
G01X-676852Y-1177510D01*
G01X-694497Y-1179008D01*
G01X-712143Y-1180507D01*
G01X-719278Y-1181632D01*
G01X-726415Y-1182757D01*
G01X-734960Y-1185094D01*
G01X-743502Y-1187426D01*
G01X-767782Y-1190032D01*
G01X-792061Y-1192633D01*
G01X-810509Y-1192618D01*
G01X-828950Y-1192602D01*
G01X-851116Y-1190012D01*
G01X-873283Y-1187423D01*
G01X-881878Y-1185013D01*
G01X-890476Y-1182602D01*
G01X-915256Y-1180748D01*
G01X-940034Y-1178897D01*
G01X-953044Y-1176372D01*
G01X-966056Y-1173852D01*
G01X-972633Y-1170525D01*
G01X-979211Y-1167195D01*
G01X-981299Y-1167195D01*
G01X-983384Y-1167195D01*
G01X-1001144Y-1158757D01*
G01X-1018909Y-1150319D01*
G01X-1025264Y-1146039D01*
G01X-1031619Y-1141762D01*
G01X-1033054Y-1141762D01*
G01X-1034489Y-1141762D01*
G01X-1044217Y-1133817D01*
G01X-1053943Y-1125869D01*
G01X-1060372Y-1119824D01*
G01X-1066795Y-1113781D01*
G01X-1081733Y-1096824D01*
G01X-1096668Y-1079870D01*
G01X-1101825Y-1073934D01*
G01X-1106983Y-1067995D01*
G01X-1112419Y-1059519D01*
G01X-1117852Y-1051038D01*
G01X-1124982Y-1035778D01*
G01X-1132119Y-1020515D01*
G01X-1138406Y-1006105D01*
G01X-1144700Y-991688D01*
G01X-1147956Y-979819D01*
G01X-1151212Y-967950D01*
G01X-1154933Y-955232D01*
G01X-1158657Y-942514D01*
G01X-1159241Y-918788D01*
G01X-1159828Y-895064D01*
G01X-1556911Y-895064D01*
G01X-1556744Y-1213829D01*
G01X-1553795Y-1225699D01*
G01X-1550843Y-1237571D01*
G01X-1548532Y-1251983D01*
G01X-1546220Y-1266400D01*
G01X-1543353Y-1274876D01*
G01X-1540490Y-1283357D01*
G01X-1538743Y-1286557D01*
G01X-1537000Y-1289760D01*
G01X-1534580Y-1297847D01*
G01X-1532156Y-1305932D01*
G01X-1529624Y-1310753D01*
G01X-1527089Y-1315571D01*
G01X-1527079Y-1317484D01*
G01X-1527071Y-1319397D01*
G01X-1524506Y-1321510D01*
G01X-1521941Y-1323621D01*
G01X-1521935Y-1326379D01*
G01X-1521928Y-1329140D01*
G01X-1517219Y-1338467D01*
G01X-1512510Y-1347794D01*
G01X-1506975Y-1355729D01*
G01X-1501435Y-1363666D01*
G01X-1501433Y-1365056D01*
G01X-1501430Y-1366445D01*
G01X-1494570Y-1376255D01*
G01X-1487704Y-1386064D01*
G01X-1479904Y-1395757D01*
G01X-1472101Y-1405447D01*
G01X-1466688Y-1412157D01*
G01X-1461275Y-1418868D01*
G01X-1448623Y-1431235D01*
G01X-1435972Y-1443600D01*
G01X-1434638Y-1443600D01*
G01X-1433305Y-1443600D01*
G01X-1432220Y-1446994D01*
G01X-1431138Y-1450384D01*
G01X-1429551Y-1450384D01*
G01X-1427961Y-1450384D01*
G01X-1416421Y-1461548D01*
G01X-1404880Y-1472714D01*
G01X-1389327Y-1485287D01*
G01X-1373777Y-1497865D01*
G01X-1372111Y-1497865D01*
G01X-1370440Y-1497865D01*
G01X-1366427Y-1502104D01*
G01X-1362413Y-1506346D01*
G01X-1360864Y-1506346D01*
G01X-1359317Y-1506346D01*
G01X-1350480Y-1512150D01*
G01X-1341644Y-1517956D01*
G01X-1333955Y-1520735D01*
G01X-1326264Y-1523511D01*
G01X-1320285Y-1525279D01*
G01X-1314303Y-1527049D01*
G01X-1310031Y-1529269D01*
G01X-1305759Y-1531487D01*
G01X-1298644Y-1534918D01*
G01X-1291532Y-1538355D01*
G01X-1284971Y-1539498D01*
G01X-1278416Y-1540641D01*
G01X-1274915Y-1542805D01*
G01X-1271415Y-1544972D01*
G01X-1260387Y-1547928D01*
G01X-1249360Y-1550885D01*
G01X-1234837Y-1552866D01*
G01X-1220308Y-1554852D01*
G01X-1216676Y-1556831D01*
G01X-1213044Y-1558804D01*
G01X-1185060Y-1560321D01*
G01X-1157075Y-1561835D01*
G01X-4369Y-1561761D01*
G01X1148336Y-1561687D01*
G01X1182517Y-1560369D01*
G01X1216695Y-1559051D01*
G01X1223535Y-1557164D01*
G01X1230370Y-1555274D01*
G01X1246604Y-1552901D01*
G01X1262839Y-1550529D01*
G01X1273093Y-1547755D01*
G01X1283347Y-1544979D01*
G01X1287619Y-1542800D01*
G01X1291894Y-1540620D01*
G01X1306415Y-1536021D01*
G01X1320944Y-1531418D01*
G01X1323507Y-1529175D01*
G01X1326073Y-1526935D01*
G01X1339649Y-1522536D01*
G01X1353233Y-1518139D01*
G01X1355887Y-1515894D01*
G01X1358541Y-1513651D01*
G01X1368798Y-1507992D01*
G01X1379049Y-1502327D01*
G01X1379905Y-1501286D01*
G01X1380759Y-1500245D01*
G01X1389303Y-1495388D01*
G01X1397848Y-1490529D01*
G01X1409809Y-1481002D01*
G01X1421777Y-1471469D01*
G01X1427825Y-1467791D01*
G01X1433875Y-1464116D01*
G01X1449184Y-1448589D01*
G01X1464500Y-1433067D01*
G01X1466880Y-1430583D01*
G01X1469262Y-1428093D01*
G01X1473456Y-1421860D01*
G01X1477652Y-1415622D01*
G01X1480906Y-1412231D01*
G01X1484157Y-1408840D01*
G01X1490596Y-1400362D01*
G01X1497037Y-1391883D01*
G01X1500372Y-1386796D01*
G01X1503705Y-1381708D01*
G01X1506319Y-1377149D01*
G01X1508930Y-1372592D01*
G01X1515409Y-1361888D01*
G01X1521891Y-1351185D01*
G01X1523481Y-1348642D01*
G01X1525069Y-1346097D01*
G01X1531853Y-1331683D01*
G01X1538638Y-1317268D01*
G01X1541411Y-1310489D01*
G01X1544185Y-1303702D01*
G01X1547690Y-1293529D01*
G01X1551198Y-1283357D01*
G01X1554408Y-1270636D01*
G01X1557621Y-1257918D01*
G01X1559407Y-1232483D01*
G01X1561190Y-1207047D01*
G01X1563626Y-1195963D01*
G01X1566059Y-1184876D01*
G01X1567825Y-1145089D01*
G01X1569592Y-1105305D01*
G01X1569532Y14731D01*
G01X1569465Y1134762D01*
G01X1567919Y1171218D01*
G01X1566369Y1207677D01*
G01X1563911Y1217002D01*
G01X1561449Y1226329D01*
G01X1560258Y1242442D01*
G01X1559067Y1258551D01*
G01X1554911Y1274512D01*
G01X1550753Y1290481D01*
G01X1549267Y1292320D01*
G01X1547776Y1294159D01*
G01X1546539Y1300093D01*
G01X1545305Y1306031D01*
G01X1541785Y1314510D01*
G01X1538264Y1322988D01*
G01X1536285Y1325531D01*
G01X1534302Y1328073D01*
G01X1532326Y1334964D01*
G01X1530349Y1341853D01*
G01X1526105Y1349376D01*
G01X1521861Y1356902D01*
G01X1519011Y1361990D01*
G01X1516161Y1367075D01*
G01X1510060Y1376402D01*
G01X1503954Y1385729D01*
G01X1492854Y1399719D01*
G01X1481754Y1413707D01*
G01X1480550Y1413707D01*
G01X1479351Y1413707D01*
G01X1474843Y1421342D01*
G01X1470334Y1428972D01*
G01X1468076Y1428972D01*
G01X1465816Y1428972D01*
G01X1461081Y1435752D01*
G01X1456344Y1442536D01*
G01X1454238Y1442536D01*
G01X1452135Y1442536D01*
G01X1447612Y1449320D01*
G01X1443088Y1456105D01*
G01X1440781Y1456105D01*
G01X1438475Y1456105D01*
G01X1433738Y1462884D01*
G01X1428998Y1469668D01*
G01X1427452Y1469668D01*
G01X1425902Y1469668D01*
G01X1412730Y1480737D01*
G01X1399560Y1491807D01*
G01X1394429Y1495896D01*
G01X1389303Y1499988D01*
G01X1383322Y1504293D01*
G01X1377340Y1508596D01*
G01X1373070Y1510732D01*
G01X1368798Y1512866D01*
G01X1367086Y1514715D01*
G01X1365379Y1516564D01*
G01X1353116Y1523641D01*
G01X1340855Y1530714D01*
G01X1339443Y1530725D01*
G01X1338036Y1530735D01*
G01X1322887Y1538355D01*
G01X1307739Y1545977D01*
G01X1305311Y1545977D01*
G01X1302880Y1545977D01*
G01X1298788Y1548637D01*
G01X1294698Y1551296D01*
G01X1280886Y1553689D01*
G01X1267076Y1556079D01*
G01X1239324Y1557870D01*
G01X1211569Y1559658D01*
G01X1204234Y1562312D01*
G01X1196891Y1564966D01*
G01X1177744Y1566262D01*
G01X1158593Y1567560D01*
G01X52882Y1567504D01*
G01X-1052828Y1567453D01*
G01X-1122040Y1566252D01*
G01X-1122040Y1566252D01*
G01X-1191255Y1565045D01*
G01X-1198614Y1562340D01*
G01X-1205967Y1559627D01*
G01X-1226810Y1558459D01*
G01X-1247654Y1557288D01*
G01X-1264740Y1553496D01*
G01X-1281832Y1549701D01*
G01X-1292942Y1545558D01*
G01X-1304049Y1541418D01*
G01X-1310882Y1537852D01*
G01X-1317719Y1534283D01*
G01X-1321992Y1532231D01*
G01X-1326264Y1530181D01*
G01X-1333955Y1526521D01*
G01X-1341644Y1522853D01*
G01X-1347628Y1519254D01*
G01X-1353610Y1515655D01*
G01X-1355675Y1513859D01*
G01X-1357735Y1512061D01*
G01X-1360272Y1512061D01*
G01X-1362804Y1512061D01*
G01X-1363869Y1510354D01*
G01X-1364930Y1508650D01*
G01X-1376360Y1501202D01*
G01X-1387785Y1493757D01*
G01X-1392807Y1488495D01*
G01X-1397826Y1483232D01*
G01X-1399248Y1483232D01*
G01X-1400671Y1483232D01*
G01X-1409363Y1476874D01*
G01X-1418052Y1470514D01*
G01X-1434534Y1454299D01*
G01X-1451021Y1438078D01*
G01X-1455212Y1433100D01*
G01X-1459406Y1428121D01*
G01X-1467173Y1418502D01*
G01X-1474945Y1408883D01*
G01X-1480564Y1401545D01*
G01X-1486180Y1394207D01*
G01X-1492157Y1386176D01*
G01X-1498141Y1378144D01*
G01X-1509190Y1358553D01*
G01X-1520234Y1338962D01*
G01X-1520234Y1337657D01*
G01X-1520234Y1336351D01*
G01X-1526091Y1324555D01*
G01X-1531948Y1312762D01*
G01X-1533186Y1307725D01*
G01X-1095048Y1307725D01*
G01X-1091022Y1313570D01*
G01X-1086999Y1319412D01*
G01X-1081019Y1322894D01*
G01X-1075045Y1326374D01*
G01X-1044283Y1326486D01*
G01X-1013521Y1326595D01*
G01X-979343Y1325399D01*
G01X-979343Y1325399D01*
G01X-945162Y1324202D01*
G01X104670Y1324136D01*
G01X1154501Y1324073D01*
G01X1160724Y1320872D01*
G01X1166944Y1317667D01*
G01X1170076Y1313506D01*
G01X1173208Y1309341D01*
G01X1174214Y1303179D01*
G01X1175224Y1297012D01*
G01X1171483Y1285411D01*
G01X1167744Y1273811D01*
G01X1148862Y1235655D01*
G01X1129985Y1197502D01*
G01X1123406Y1183936D01*
G01X1116830Y1170372D01*
G01X1112672Y1161048D01*
G01X1108509Y1151719D01*
G01X1102250Y1138152D01*
G01X1095989Y1124586D01*
G01X1085509Y1103390D01*
G01X1075027Y1082191D01*
G01X1071265Y1076258D01*
G01X1067508Y1070324D01*
G01X1065260Y1063537D01*
G01X1063015Y1056758D01*
G01X1060071Y1052412D01*
G01X1057132Y1048071D01*
G01X1056012Y1043085D01*
G01X1054889Y1038102D01*
G01X1050109Y1028775D01*
G01X1045331Y1019451D01*
G01X1044079Y1015214D01*
G01X1042824Y1010975D01*
G01X1038545Y1001648D01*
G01X1034265Y992318D01*
G01X1027488Y977906D01*
G01X1020711Y963494D01*
G01X1019187Y960947D01*
G01X1017661Y958404D01*
G01X1013150Y949077D01*
G01X1008636Y939750D01*
G01X1002009Y925928D01*
G01X995385Y912105D01*
G01X995385Y910589D01*
G01X995385Y909077D01*
G01X986970Y893042D01*
G01X978557Y877007D01*
G01X973063Y865986D01*
G01X967569Y854963D01*
G01X966088Y852423D01*
G01X964610Y849878D01*
G01X959294Y838857D01*
G01X953978Y827833D01*
G01X950826Y821051D01*
G01X947676Y814267D01*
G01X946500Y809179D01*
G01X945327Y804094D01*
G01X942253Y798156D01*
G01X939180Y792222D01*
G01X935390Y782049D01*
G01X931600Y771874D01*
G01X929314Y769197D01*
G01X927023Y766520D01*
G01X927023Y764559D01*
G01X927023Y762596D01*
G01X919944Y747734D01*
G01X912865Y732873D01*
G01X911115Y729479D01*
G01X909365Y726088D01*
G01X904732Y716761D01*
G01X900094Y707437D01*
G01X884600Y676467D01*
G01X869106Y645499D01*
G01X864826Y637465D01*
G01X860551Y629431D01*
G01X857897Y623498D01*
G01X855248Y617564D01*
G01X851049Y610229D01*
G01X846853Y602896D01*
G01X845731Y599208D01*
G01X844613Y595520D01*
G01X839513Y583648D01*
G01X834412Y571778D01*
G01X829447Y561176D01*
G01X824483Y550572D01*
G01X824483Y549596D01*
G01X824483Y548623D01*
G01X816589Y532223D01*
G01X808692Y515817D01*
G01X802838Y503099D01*
G01X796985Y490381D01*
G01X793645Y484110D01*
G01X790308Y477839D01*
G01X790308Y475609D01*
G01X790308Y473376D01*
G01X786803Y466889D01*
G01X783300Y460407D01*
G01X779851Y451654D01*
G01X776404Y442901D01*
G01X771974Y433574D01*
G01X767544Y424247D01*
G01X763211Y415771D01*
G01X758880Y407293D01*
G01X756648Y402629D01*
G01X754418Y397966D01*
G01X751606Y392454D01*
G01X748797Y386945D01*
G01X734514Y358708D01*
G01X720237Y330471D01*
G01X720199Y329030D01*
G01X720163Y327593D01*
G01X716818Y323351D01*
G01X713478Y319112D01*
G01X713440Y316501D01*
G01X713402Y313892D01*
G01X707659Y302937D01*
G01X701916Y291982D01*
G01X700686Y287743D01*
G01X699460Y283503D01*
G01X693529Y270786D01*
G01X687603Y258068D01*
G01X684954Y252980D01*
G01X682304Y247893D01*
G01X675512Y230168D01*
G01X668718Y212447D01*
G01X663722Y203039D01*
G01X658723Y193628D01*
G01X658718Y191002D01*
G01X658715Y188375D01*
G01X657171Y186762D01*
G01X655634Y185152D01*
G01X647570Y169887D01*
G01X639508Y154626D01*
G01X635124Y148820D01*
G01X630742Y143016D01*
G01X615850Y113654D01*
G01X600958Y84291D01*
G01X599216Y79610D01*
G01X597471Y74926D01*
G01X588652Y55427D01*
G01X579831Y35927D01*
G01X576742Y27449D01*
G01X573656Y18970D01*
G01X571492Y13034D01*
G01X569328Y7098D01*
G01X566171Y-847D01*
G01X563011Y-8792D01*
G01X563011Y-11020D01*
G01X563011Y-13247D01*
G01X556089Y-29356D01*
G01X549170Y-45467D01*
G01X547654Y-48012D01*
G01X546140Y-50557D01*
G01X541568Y-59884D01*
G01X536994Y-69211D01*
G01X532564Y-77690D01*
G01X528137Y-86166D01*
G01X524139Y-93798D01*
G01X520141Y-101429D01*
G01X515277Y-109247D01*
G01X510418Y-117060D01*
G01X509155Y-121007D01*
G01X507890Y-124957D01*
G01X496844Y-144563D01*
G01X485795Y-164172D01*
G01X484390Y-165866D01*
G01X482988Y-167563D01*
G01X477867Y-180280D01*
G01X472749Y-193001D01*
G01X470039Y-198086D01*
G01X467332Y-203171D01*
G01X467319Y-204720D01*
G01X467309Y-206265D01*
G01X462417Y-214047D01*
G01X457525Y-221825D01*
G01X455315Y-230303D01*
G01X453108Y-238784D01*
G01X451883Y-240481D01*
G01X450664Y-242175D01*
G01X448518Y-248774D01*
G01X446374Y-255373D01*
G01X440606Y-266955D01*
G01X434840Y-278538D01*
G01X434840Y-279592D01*
G01X434840Y-280643D01*
G01X423534Y-303801D01*
G01X412234Y-326963D01*
G01X401967Y-347311D01*
G01X391698Y-367659D01*
G01X388688Y-371898D01*
G01X385683Y-376137D01*
G01X379242Y-388007D01*
G01X372803Y-399879D01*
G01X361949Y-420999D01*
G01X351099Y-442116D01*
G01X351099Y-444052D01*
G01X351099Y-445990D01*
G01X348310Y-451537D01*
G01X345521Y-457084D01*
G01X344164Y-462393D01*
G01X342808Y-467709D01*
G01X337672Y-480427D01*
G01X332531Y-493142D01*
G01X328071Y-505014D01*
G01X323606Y-516881D01*
G01X320263Y-523851D01*
G01X316920Y-530821D01*
G01X316920Y-534351D01*
G01X316920Y-537879D01*
G01X315424Y-538796D01*
G01X313936Y-539711D01*
G01X309318Y-549492D01*
G01X304700Y-559276D01*
G01X292709Y-583020D01*
G01X280715Y-606759D01*
G01X276644Y-613541D01*
G01X272564Y-620323D01*
G01X270924Y-623975D01*
G01X269278Y-627625D01*
G01X267611Y-628646D01*
G01X265943Y-629670D01*
G01X257459Y-645342D01*
G01X248978Y-661018D01*
G01X246273Y-666109D01*
G01X243570Y-671196D01*
G01X239003Y-681313D01*
G01X234436Y-691432D01*
G01X230202Y-702509D01*
G01X225968Y-713589D01*
G01X222897Y-722065D01*
G01X219829Y-730546D01*
G01X217294Y-735634D01*
G01X214764Y-740721D01*
G01X208328Y-755981D01*
G01X201891Y-771244D01*
G01X191046Y-793469D01*
G01X180200Y-815699D01*
G01X180200Y-817584D01*
G01X180200Y-819469D01*
G01X176517Y-825880D01*
G01X172831Y-832291D01*
G01X164774Y-847551D01*
G01X156717Y-862811D01*
G01X151353Y-872834D01*
G01X145994Y-882849D01*
G01X144556Y-884701D01*
G01X143123Y-886553D01*
G01X137807Y-896728D01*
G01X132494Y-906901D01*
G01X125341Y-922164D01*
G01X118188Y-937426D01*
G01X113502Y-946753D01*
G01X108811Y-956078D01*
G01X107535Y-960317D01*
G01X106263Y-964556D01*
G01X95379Y-987073D01*
G01X84498Y-1009590D01*
G01X84498Y-1011706D01*
G01X84498Y-1013827D01*
G01X81965Y-1017411D01*
G01X79435Y-1020997D01*
G01X74841Y-1033476D01*
G01X70248Y-1045950D01*
G01X67972Y-1049298D01*
G01X65697Y-1052641D01*
G01X65697Y-1054856D01*
G01X65697Y-1057071D01*
G01X59636Y-1070164D01*
G01X53568Y-1083260D01*
G01X50987Y-1087500D01*
G01X48404Y-1091736D01*
G01X44978Y-1099367D01*
G01X41554Y-1106999D01*
G01X35791Y-1118869D01*
G01X30027Y-1130741D01*
G01X23086Y-1146156D01*
G01X16139Y-1161574D01*
G01X16139Y-1164248D01*
G01X16139Y-1166923D01*
G01X13782Y-1171726D01*
G01X11429Y-1176524D01*
G01X8348Y-1182953D01*
G01X5270Y-1189382D01*
G01X25Y-1195310D01*
G01X-5223Y-1201238D01*
G01X-15279Y-1205247D01*
G01X-25337Y-1209255D01*
G01X-30658Y-1207497D01*
G01X-35985Y-1205737D01*
G01X-44697Y-1199323D01*
G01X-53412Y-1192912D01*
G01X-58779Y-1182176D01*
G01X-64148Y-1171437D01*
G01X-71768Y-1151937D01*
G01X-79393Y-1132435D01*
G01X-81087Y-1125653D01*
G01X-82782Y-1118869D01*
G01X-86294Y-1108876D01*
G01X-89805Y-1098887D01*
G01X-91311Y-1097007D01*
G01X-92820Y-1095127D01*
G01X-94102Y-1090891D01*
G01X-95390Y-1086649D01*
G01X-102004Y-1072895D01*
G01X-108616Y-1059141D01*
G01X-108616Y-1057421D01*
G01X-108616Y-1055701D01*
G01X-112947Y-1045740D01*
G01X-117275Y-1035778D01*
G01X-118794Y-1032387D01*
G01X-120310Y-1028993D01*
G01X-127092Y-1014581D01*
G01X-133874Y-1000167D01*
G01X-135977Y-993385D01*
G01X-138077Y-986601D01*
G01X-149632Y-962862D01*
G01X-161184Y-939121D01*
G01X-169144Y-920469D01*
G01X-177105Y-901816D01*
G01X-179515Y-896728D01*
G01X-181931Y-891643D01*
G01X-186289Y-881094D01*
G01X-190648Y-870546D01*
G01X-190648Y-867886D01*
G01X-190648Y-865227D01*
G01X-200203Y-841127D01*
G01X-209756Y-817028D01*
G01X-213874Y-809004D01*
G01X-217993Y-800983D01*
G01X-217993Y-798984D01*
G01X-217993Y-796990D01*
G01X-230790Y-771122D01*
G01X-243584Y-745258D01*
G01X-249378Y-731120D01*
G01X-255169Y-716980D01*
G01X-257379Y-711895D01*
G01X-259589Y-706807D01*
G01X-265296Y-694328D01*
G01X-271001Y-681849D01*
G01X-275466Y-668892D01*
G01X-279929Y-655933D01*
G01X-282187Y-651694D01*
G01X-284447Y-647457D01*
G01X-291184Y-631344D01*
G01X-297925Y-615235D01*
G01X-303190Y-599126D01*
G01X-308453Y-583020D01*
G01X-312626Y-571994D01*
G01X-316797Y-560973D01*
G01X-322083Y-549949D01*
G01X-327361Y-538928D01*
G01X-327363Y-537077D01*
G01X-327366Y-535230D01*
G01X-332362Y-525210D01*
G01X-337356Y-515189D01*
G01X-346032Y-496917D01*
G01X-354712Y-478646D01*
G01X-354717Y-477415D01*
G01X-354724Y-476185D01*
G01X-359939Y-463467D01*
G01X-365156Y-450750D01*
G01X-373421Y-432947D01*
G01X-381689Y-415139D01*
G01X-386388Y-404118D01*
G01X-391092Y-393094D01*
G01X-395832Y-382919D01*
G01X-400571Y-372746D01*
G01X-403462Y-365962D01*
G01X-406355Y-359180D01*
G01X-412016Y-342132D01*
G01X-417676Y-325083D01*
G01X-420609Y-318393D01*
G01X-423543Y-311697D01*
G01X-424876Y-308309D01*
G01X-426213Y-304918D01*
G01X-432334Y-291906D01*
G01X-438450Y-278896D01*
G01X-438450Y-277687D01*
G01X-438450Y-276473D01*
G01X-445496Y-261868D01*
G01X-452540Y-247260D01*
G01X-458310Y-235589D01*
G01X-464084Y-223915D01*
G01X-464089Y-222023D01*
G01X-464094Y-220130D01*
G01X-469304Y-207458D01*
G01X-474506Y-194784D01*
G01X-482745Y-178627D01*
G01X-490985Y-162475D01*
G01X-492270Y-158236D01*
G01X-493558Y-153996D01*
G01X-499144Y-141279D01*
G01X-504729Y-128558D01*
G01X-510716Y-114146D01*
G01X-516703Y-99734D01*
G01X-522672Y-83623D01*
G01X-528646Y-67512D01*
G01X-530756Y-61581D01*
G01X-532862Y-55645D01*
G01X-535128Y-50557D01*
G01X-537396Y-45467D01*
G01X-541551Y-35297D01*
G01X-545702Y-25119D01*
G01X-546990Y-20883D01*
G01X-548272Y-16641D01*
G01X-555915Y316D01*
G01X-563560Y17273D01*
G01X-568508Y27802D01*
G01X-573459Y38327D01*
G01X-573459Y39066D01*
G01X-573459Y39806D01*
G01X-583499Y60758D01*
G01X-593535Y81711D01*
G01X-599735Y94916D01*
G01X-605930Y108124D01*
G01X-605930Y109219D01*
G01X-605930Y110316D01*
G01X-609242Y117210D01*
G01X-612552Y124103D01*
G01X-618767Y140212D01*
G01X-624980Y156320D01*
G01X-627353Y164715D01*
G01X-629727Y173107D01*
G01X-636052Y189302D01*
G01X-642377Y205500D01*
G01X-647370Y217367D01*
G01X-652366Y229239D01*
G01X-658043Y244502D01*
G01X-663715Y259762D01*
G01X-673705Y279452D01*
G01X-683690Y299140D01*
G01X-686885Y306582D01*
G01X-690085Y314027D01*
G01X-699166Y332680D01*
G01X-708241Y351334D01*
G01X-713339Y364900D01*
G01X-718432Y378464D01*
G01X-720916Y383549D01*
G01X-723395Y388639D01*
G01X-729440Y402203D01*
G01X-735488Y415771D01*
G01X-739214Y427641D01*
G01X-742943Y439510D01*
G01X-748000Y453076D01*
G01X-753062Y466640D01*
G01X-755798Y472578D01*
G01X-758531Y478512D01*
G01X-760123Y481669D01*
G01X-761716Y484824D01*
G01X-765734Y497049D01*
G01X-769758Y509271D01*
G01X-774149Y518796D01*
G01X-778536Y528321D01*
G01X-778536Y529248D01*
G01X-778536Y530178D01*
G01X-783789Y540803D01*
G01X-789041Y551430D01*
G01X-794744Y566891D01*
G01X-800443Y582352D01*
G01X-802254Y585542D01*
G01X-804065Y588733D01*
G01X-811810Y605870D01*
G01X-819552Y623007D01*
G01X-819552Y624186D01*
G01X-819552Y625365D01*
G01X-826532Y641814D01*
G01X-833514Y658260D01*
G01X-839242Y670386D01*
G01X-844965Y682509D01*
G01X-846938Y689886D01*
G01X-848914Y697262D01*
G01X-852122Y706589D01*
G01X-855328Y715918D01*
G01X-860263Y728633D01*
G01X-865201Y741351D01*
G01X-869978Y753220D01*
G01X-874761Y765090D01*
G01X-881510Y779504D01*
G01X-888256Y793916D01*
G01X-893870Y805115D01*
G01X-899483Y816314D01*
G01X-903852Y830086D01*
G01X-908221Y843860D01*
G01X-911111Y850261D01*
G01X-914002Y856659D01*
G01X-917106Y863444D01*
G01X-920204Y870228D01*
G01X-922000Y874467D01*
G01X-923791Y878704D01*
G01X-925429Y881249D01*
G01X-927070Y883792D01*
G01X-935828Y904142D01*
G01X-944588Y924490D01*
G01X-947100Y930424D01*
G01X-949620Y936360D01*
G01X-951858Y940599D01*
G01X-954098Y944838D01*
G01X-954487Y946535D01*
G01X-549687Y946535D01*
G01X-549613Y898206D01*
G01X-549545Y849878D01*
G01X-548861Y517514D01*
G01X-548178Y185152D01*
G01X-545351Y162256D01*
G01X-542529Y139366D01*
G01X-537429Y129191D01*
G01X-532331Y119018D01*
G01X-529860Y114616D01*
G01X-527383Y110217D01*
G01X-522862Y106986D01*
G01X-518343Y103755D01*
G01X-513652Y99973D01*
G01X-508961Y96191D01*
G01X-501252Y92912D01*
G01X-493548Y89635D01*
G01X-484196Y88477D01*
G01X-474841Y87316D01*
G01X-456220Y89137D01*
G01X-437594Y90954D01*
G01X-402560Y91871D01*
G01X-367528Y92787D01*
G01X-356421Y94662D01*
G01X-345308Y96539D01*
G01X-341039Y98787D01*
G01X-336766Y101037D01*
G01X-321387Y107227D01*
G01X-306004Y113417D01*
G01X-290643Y117489D01*
G01X-275283Y121561D01*
G01X-259848Y121561D01*
G01X-244409Y121561D01*
G01X-231986Y118144D01*
G01X-219558Y114725D01*
G01X-210658Y109745D01*
G01X-201758Y104761D01*
G01X-194067Y100458D01*
G01X-186376Y96156D01*
G01X-165095Y85914D01*
G01X-143813Y75670D01*
G01X-130630Y72333D01*
G01X-117448Y68993D01*
G01X-95515Y69135D01*
G01X-73582Y69277D01*
G01X-64186Y70669D01*
G01X-54783Y72066D01*
G01X-42474Y74822D01*
G01X-30163Y77578D01*
G01X-15985Y83214D01*
G01X-1804Y88853D01*
G01X7068Y91746D01*
G01X15946Y94637D01*
G01X20137Y97911D01*
G01X24333Y101182D01*
G01X31770Y104380D01*
G01X39207Y107578D01*
G01X48910Y112018D01*
G01X58610Y116458D01*
G01X71485Y116648D01*
G01X84361Y116841D01*
G01X89453Y112841D01*
G01X94543Y108843D01*
G01X97462Y102978D01*
G01X100375Y97111D01*
G01X99090Y73303D01*
G01X97800Y49491D01*
G01X97271Y43555D01*
G01X96740Y37621D01*
G01X95752Y-5620D01*
G01X94764Y-48863D01*
G01X93484Y-94647D01*
G01X92207Y-140430D01*
G01X92194Y-163323D01*
G01X92186Y-186214D01*
G01X96349Y-197237D01*
G01X100507Y-208258D01*
G01X104759Y-213892D01*
G01X109014Y-219521D01*
G01X116009Y-224301D01*
G01X123012Y-229076D01*
G01X134942Y-233003D01*
G01X146872Y-236930D01*
G01X239128Y-236407D01*
G01X331376Y-235889D01*
G01X341665Y-232589D01*
G01X351952Y-229292D01*
G01X359643Y-223788D01*
G01X367332Y-218289D01*
G01X371896Y-209033D01*
G01X376455Y-199780D01*
G01X377601Y-190453D01*
G01X378747Y-181129D01*
G01X380250Y-175193D01*
G01X381749Y-169257D01*
G01X382579Y-49707D01*
G01X383410Y69841D01*
G01X383567Y508187D01*
G01X383725Y946535D01*
G01X382071Y952471D01*
G01X380410Y958404D01*
G01X378437Y964965D01*
G01X376458Y971528D01*
G01X369333Y978884D01*
G01X362209Y986235D01*
G01X353816Y990642D01*
G01X345427Y995054D01*
G01X335262Y998544D01*
G01X325097Y1002036D01*
G01X305198Y1003113D01*
G01X285302Y1004190D01*
G01X232415Y1004686D01*
G01X179524Y1005186D01*
G01X163202Y1003256D01*
G01X163202Y1003256D01*
G01X146872Y1001333D01*
G01X136987Y997944D01*
G01X127106Y994559D01*
G01X119900Y990558D01*
G01X112697Y986558D01*
G01X106357Y979913D01*
G01X100017Y973268D01*
G01X95732Y961970D01*
G01X91450Y950670D01*
G01X90965Y927409D01*
G01X90482Y904142D01*
G01X92575Y877007D01*
G01X94665Y849878D01*
G01X94282Y615867D01*
G01X93898Y381855D01*
G01X89865Y368291D01*
G01X85829Y354722D01*
G01X80888Y344547D01*
G01X75951Y334374D01*
G01X72006Y329996D01*
G01X68064Y325619D01*
G01X57332Y318385D01*
G01X46601Y311151D01*
G01X34114Y305507D01*
G01X21623Y299858D01*
G01X9908Y297138D01*
G01X-1804Y294413D01*
G01X-7788Y292858D01*
G01X-13767Y291306D01*
G01X-34278Y288713D01*
G01X-54783Y286122D01*
G01X-73582Y285388D01*
G01X-92383Y284657D01*
G01X-112032Y286973D01*
G01X-131687Y289297D01*
G01X-144506Y290260D01*
G01X-157323Y291225D01*
G01X-170140Y293943D01*
G01X-182959Y296661D01*
G01X-198982Y304344D01*
G01X-215009Y312030D01*
G01X-224618Y318411D01*
G01X-234227Y324789D01*
G01X-238768Y329579D01*
G01X-243310Y334374D01*
G01X-247549Y342005D01*
G01X-251783Y349637D01*
G01X-255639Y361504D01*
G01X-259492Y373379D01*
G01X-260163Y592972D01*
G01X-260836Y812570D01*
G01X-257998Y854117D01*
G01X-255161Y895664D01*
G01X-254374Y913726D01*
G01X-253586Y931788D01*
G01X-256490Y945943D01*
G01X-259390Y960101D01*
G01X-262451Y966034D01*
G01X-265509Y971970D01*
G01X-269680Y975544D01*
G01X-273853Y979115D01*
G01X-276256Y982481D01*
G01X-278661Y985846D01*
G01X-288913Y990169D01*
G01X-299169Y994493D01*
G01X-311984Y998209D01*
G01X-324803Y1001925D01*
G01X-394018Y1003700D01*
G01X-463230Y1005476D01*
G01X-480340Y1003639D01*
G01X-497447Y1001800D01*
G01X-508534Y997599D01*
G01X-519629Y993395D01*
G01X-526461Y990050D01*
G01X-533299Y986700D01*
G01X-537371Y981219D01*
G01X-541442Y975737D01*
G01X-545565Y961137D01*
G01X-549687Y946535D01*
G01X-954487Y946535D01*
G01X-955264Y949926D01*
G01X-956430Y955013D01*
G01X-959953Y964340D01*
G01X-963471Y973665D01*
G01X-965797Y978752D01*
G01X-968122Y983842D01*
G01X-970532Y990624D01*
G01X-972940Y997406D01*
G01X-978205Y1010124D01*
G01X-983478Y1022841D01*
G01X-987710Y1033863D01*
G01X-991944Y1044889D01*
G01X-998076Y1058455D01*
G01X-1004210Y1072018D01*
G01X-1007583Y1078186D01*
G01X-1010959Y1084350D01*
G01X-1010959Y1087083D01*
G01X-1010959Y1089816D01*
G01X-1023897Y1116527D01*
G01X-1036839Y1143240D01*
G01X-1041180Y1152567D01*
G01X-1045523Y1161891D01*
G01X-1047128Y1164975D01*
G01X-1048733Y1168066D01*
G01X-1055655Y1183629D01*
G01X-1062576Y1199199D01*
G01X-1065703Y1210220D01*
G01X-1068827Y1221241D01*
G01X-1071418Y1228025D01*
G01X-1074009Y1234810D01*
G01X-1081083Y1252615D01*
G01X-1088159Y1270418D01*
G01X-1090727Y1277202D01*
G01X-1093293Y1283987D01*
G01X-1094172Y1295856D01*
G01X-1095048Y1307725D01*
G01X-1533186Y1307725D01*
G01X-1534026Y1304309D01*
G01X-1536109Y1295856D01*
G01X-1537620Y1292907D01*
G01X-1539134Y1289958D01*
G01X-1543218Y1275950D01*
G01X-1547305Y1261942D01*
G01X-1549025Y1246679D01*
G01X-1550739Y1231419D01*
G01X-1552667Y1226417D01*
G01X-1554587Y1221416D01*
G01X-1556286Y1187416D01*
G01X-1557983Y1153413D01*
G01X-1730439Y1153413D01*
G01X-1730439Y1766421D01*
G01X19555Y1766421D01*
G01X1769551Y1766421D01*
G01X1769551Y16425D01*
G37*
G04 Image End*
G54D10*

M02*

